M48
; DRILL file {KiCad 8.0.8} date 2025-02-01T00:49:15+0300
; FORMAT={-:-/ absolute / metric / decimal}
; #@! TF.CreationDate,2025-02-01T00:49:15+03:00
; #@! TF.GenerationSoftware,Kicad,Pcbnew,8.0.8
; #@! TF.FileFunction,Plated,1,2,PTH
FMAT,2
METRIC
; #@! TA.AperFunction,Plated,PTH,ViaDrill
T1C0.400
; #@! TA.AperFunction,Plated,PTH,ComponentDrill
T2C0.400
; #@! TA.AperFunction,Plated,PTH,ViaDrill
T3C0.600
; #@! TA.AperFunction,Plated,PTH,ComponentDrill
T4C0.700
; #@! TA.AperFunction,Plated,PTH,ComponentDrill
T5C0.800
; #@! TA.AperFunction,Plated,PTH,ComponentDrill
T6C0.950
; #@! TA.AperFunction,Plated,PTH,ComponentDrill
T7C1.000
; #@! TA.AperFunction,Plated,PTH,ComponentDrill
T8C1.100
%
G90
G05
T1
X35.72Y-35.59
X35.96Y-44.58
X36.14Y-42.75
X36.14Y-72.65
X36.26Y-38.35
X36.31Y-51.89
X36.37Y-68.49
X36.6Y-33.26
X36.81Y-58.91
X37.2Y-54.42
X37.22Y-65.63
X37.27Y-56.4
X37.42Y-64.66
X38.01Y-76.38
X38.05Y-60.5
X38.2Y-37.9
X38.28Y-69.39
X38.84Y-62.43
X38.9Y-64.5
X38.96Y-58.6
X39.0Y-65.65
X39.38Y-55.97
X39.58Y-42.59
X39.59Y-44.61
X39.88Y-57.32
X39.93Y-54.03
X40.03Y-51.49
X40.09Y-47.73
X40.46Y-64.43
X40.63Y-43.47
X40.65Y-71.55
X40.85Y-62.32
X40.96Y-58.73
X41.22Y-41.49
X42.35Y-51.3
X42.42Y-72.73
X42.47Y-54.26
X43.55Y-75.85
X44.15Y-32.7
X44.25Y-35.55
X44.615Y-76.925
X44.62Y-73.52
X44.82Y-48.46
X44.93Y-74.74
X45.59Y-32.75
X45.77Y-59.14
X45.87Y-73.14
X46.18Y-44.3
X46.6Y-69.28
X46.75Y-59.01
X46.82Y-60.15
X47.05Y-72.89
X47.19Y-32.86
X47.886Y-56.296
X47.89Y-54.0
X48.14Y-41.95
X48.155Y-77.149
X48.29Y-50.91
X48.7Y-46.71
X49.08Y-32.25
X49.53Y-43.49
X49.78Y-42.1
X49.95Y-60.78
X49.983Y-56.39
X50.6Y-75.33
X50.94Y-35.83
X51.01Y-33.69
X53.179Y-36.12
X53.189Y-44.092
X53.23Y-33.37
X54.13Y-42.74
X54.79Y-36.64
X55.22Y-77.09
X55.75Y-48.25
X55.88Y-71.16
X56.74Y-75.53
X57.07Y-72.62
X57.23Y-71.08
X57.4Y-35.3
X57.4Y-45.0
X57.52Y-68.07
X57.637Y-42.463
X58.21Y-71.7
X58.74Y-68.14
X58.85Y-49.85
X59.26Y-71.64
X59.44Y-61.48
X59.65Y-32.25
X60.15Y-72.63
X60.42Y-59.04
X60.51Y-75.25
X60.51Y-76.29
X60.617Y-48.586
X61.035Y-60.604
X61.24Y-71.1
X61.27Y-68.17
X61.5Y-58.56
X61.782Y-41.884
X62.1Y-46.8
X62.51Y-58.85
X62.849Y-50.599
X63.53Y-61.45
X64.03Y-64.87
X64.239Y-49.189
X64.35Y-44.15
X64.47Y-35.88
X64.47Y-76.29
X64.48Y-33.82
X64.48Y-71.64
X64.75Y-75.19
X65.226Y-65.371
X65.91Y-36.61
X65.913Y-66.057
X66.27Y-61.19
X66.56Y-71.65
X66.57Y-74.88
X66.96Y-33.78
X66.96Y-35.84
X67.199Y-62.06
X67.51Y-61.26
X68.86Y-73.11
X68.92Y-76.29
X69.02Y-43.04
X69.33Y-40.02
X69.53Y-32.86
X69.58Y-50.978
X69.9Y-67.18
X70.17Y-66.01
X70.22Y-48.65
X70.26Y-60.44
X70.37Y-76.29
X70.47Y-63.0
X70.57Y-39.79
X70.57Y-68.16
X71.07Y-32.31
X71.28Y-60.33
X71.31Y-48.95
X71.31Y-51.07
X71.4Y-50.05
X71.58Y-67.94
X72.42Y-50.63
X72.62Y-45.43
X72.77Y-67.96
X72.95Y-72.922
X73.27Y-35.15
X73.32Y-69.36
X73.49Y-57.76
X73.6Y-34.02
X73.62Y-73.05
X73.73Y-58.87
X73.86Y-61.87
X74.25Y-45.03
X74.49Y-39.99
X74.94Y-61.86
X75.01Y-72.882
X75.11Y-74.65
X75.31Y-45.89
X75.42Y-39.98
X75.92Y-51.0
X75.98Y-61.872
X75.98Y-61.872
X75.98Y-61.872
X76.11Y-70.33
X76.16Y-72.92
X76.3Y-47.44
X76.595Y-40.01
X76.69Y-38.06
X76.945Y-61.852
X76.98Y-44.99
X76.99Y-43.6
X77.01Y-51.0
X77.24Y-72.92
X77.69Y-70.52
X77.9Y-40.01
X77.975Y-61.882
X77.975Y-51.023
X78.11Y-64.51
X78.658Y-59.562
X78.72Y-37.7
X78.79Y-40.01
X79.02Y-51.0
X79.87Y-70.87
X80.15Y-50.97
X80.19Y-47.48
X80.49Y-33.42
X80.54Y-35.29
X80.55Y-58.28
X80.825Y-48.955
X81.24Y-67.49
X81.35Y-59.09
X81.48Y-37.19
X82.27Y-65.14
X82.58Y-70.07
X83.67Y-59.43
X83.69Y-66.85
X84.04Y-47.29
X84.05Y-45.69
X84.88Y-58.85
X84.89Y-35.61
X85.08Y-46.35
X85.24Y-72.18
X85.32Y-69.67
X85.39Y-65.65
X85.53Y-33.65
X85.56Y-70.97
X85.63Y-75.92
X85.69Y-42.73
X85.79Y-67.4
X86.08Y-74.18
X86.134Y-58.646
X86.158Y-72.482
X86.37Y-64.06
X86.39Y-41.2
X86.4Y-62.54
X86.41Y-38.15
X86.48Y-60.84
X86.71Y-35.72
X86.79Y-71.29
X86.84Y-65.33
X87.05Y-69.59
X87.11Y-68.3
X87.34Y-72.21
X87.825Y-57.696
X88.03Y-61.36
X88.03Y-62.6
X88.06Y-60.05
X88.59Y-44.0
X88.595Y-37.105
X88.595Y-39.255
X88.719Y-52.522
X88.78Y-47.46
X89.245Y-43.605
X89.6Y-76.29
X89.62Y-32.26
X89.83Y-67.78
X89.88Y-60.19
X90.03Y-58.93
X90.13Y-61.55
X90.26Y-51.82
X90.345Y-39.555
X90.495Y-37.305
X90.495Y-48.255
X90.58Y-46.35
X91.0Y-32.1
X91.25Y-43.71
X91.81Y-62.31
X91.87Y-76.26
X92.689Y-49.307
X92.72Y-46.79
X92.915Y-75.931
X93.361Y-59.702
X93.45Y-61.67
X93.808Y-75.038
X94.073Y-47.681
X94.09Y-63.56
X94.27Y-60.74
X94.83Y-50.65
X94.9Y-32.3
X95.081Y-46.673
X95.3Y-57.58
X95.595Y-37.555
X95.61Y-35.63
X95.79Y-39.52
X95.79Y-44.72
X96.04Y-58.5
X96.569Y-69.736
X96.57Y-48.6
X96.68Y-32.695
X96.74Y-75.14
X96.924Y-59.243
X96.95Y-73.76
X97.04Y-44.07
X97.9Y-67.16
X97.9Y-68.23
X97.91Y-65.98
X98.0Y-70.03
X98.01Y-60.25
X98.159Y-36.551
X98.28Y-76.26
X98.332Y-56.85
X98.345Y-35.155
X98.36Y-33.55
X98.44Y-55.18
X99.062Y-51.297
X99.062Y-48.977
X99.105Y-59.039
X99.47Y-42.29
X99.565Y-56.99
X99.57Y-76.19
X99.75Y-40.97
X99.814Y-59.921
X99.85Y-62.02
X100.06Y-54.395
X100.09Y-74.98
X100.92Y-54.23
X101.07Y-74.02
X101.136Y-68.684
X101.17Y-32.785
X101.27Y-38.705
X101.29Y-76.42
X101.815Y-40.94
X101.965Y-59.04
X102.46Y-70.83
X102.85Y-75.23
X103.165Y-41.17
X103.29Y-76.59
X103.615Y-54.365
X103.665Y-53.24
X105.521Y-40.829
X105.715Y-69.84
X105.89Y-76.06
X106.0Y-74.82
X106.065Y-54.39
X106.665Y-57.19
X107.1Y-39.025
X107.34Y-54.365
X107.418Y-41.854
X108.315Y-50.99
X108.41Y-49.895
X108.51Y-42.813
X108.55Y-52.58
X108.965Y-41.797
X108.965Y-57.19
X109.165Y-58.69
X109.288Y-67.9
X109.46Y-64.22
X109.49Y-65.56
X109.91Y-58.69
X110.19Y-57.615
X110.23Y-70.37
X110.37Y-69.09
X110.881Y-56.759
X110.89Y-45.41
X110.93Y-48.22
X110.97Y-64.28
X111.02Y-41.19
X111.02Y-51.36
X111.98Y-68.88
X112.02Y-32.98
X112.09Y-70.36
X112.26Y-76.81
X112.29Y-62.71
T2
X100.765Y-45.69
X100.765Y-48.09
X101.265Y-63.09
X101.265Y-65.49
X101.365Y-46.89
X101.865Y-64.29
X102.165Y-48.09
X102.365Y-45.69
X102.665Y-63.09
X102.665Y-65.49
X103.165Y-46.89
X103.665Y-64.29
X104.165Y-45.69
X104.165Y-48.09
X104.465Y-63.09
X104.465Y-65.49
X104.965Y-46.89
X105.465Y-64.29
X105.965Y-45.69
X105.965Y-48.09
X106.265Y-65.49
X106.465Y-63.09
X106.765Y-46.89
X107.265Y-64.29
X107.365Y-45.69
X107.365Y-48.09
X107.865Y-63.09
X107.865Y-65.49
T3
X69.79Y-57.78
T4
X46.815Y-74.565
X46.815Y-75.835
X101.17Y-55.47
X102.44Y-55.47
X103.71Y-55.47
X104.98Y-55.47
X106.25Y-55.47
X107.52Y-55.47
X108.79Y-55.47
X110.06Y-55.47
T5
X103.13Y-34.167
X103.13Y-36.167
X104.39Y-73.22
X104.39Y-75.22
T6
X47.21Y-34.83
X48.61Y-59.51
X49.71Y-34.83
X51.11Y-59.51
X52.21Y-34.83
X53.61Y-59.51
X54.71Y-34.83
X56.11Y-59.51
X58.61Y-59.51
X60.72Y-34.81
X63.22Y-34.81
X65.72Y-34.81
X68.22Y-34.81
T7
X37.955Y-41.01
X37.955Y-43.55
X37.955Y-46.09
X37.955Y-48.63
X38.31Y-67.57
X40.05Y-60.51
X40.81Y-67.57
X42.55Y-60.51
X62.51Y-66.645
X62.8Y-73.515
X64.64Y-59.52
X65.01Y-66.645
X65.3Y-73.515
X67.14Y-59.52
X83.52Y-71.92
X83.52Y-74.42
X83.835Y-61.25
X83.835Y-63.75
X84.475Y-37.09
X84.475Y-39.59
X86.055Y-48.62
X86.055Y-51.12
X91.815Y-57.94
X91.815Y-60.44
X92.375Y-34.62
X92.375Y-37.12
X93.95Y-43.1
X93.95Y-45.6
X98.525Y-72.19
X98.525Y-74.69
T8
X41.35Y-52.76
X43.89Y-52.76
X46.43Y-40.06
X46.43Y-52.76
X46.43Y-55.3
X48.97Y-40.06
X48.97Y-52.76
X48.97Y-55.3
X51.51Y-40.06
X51.51Y-52.76
X51.51Y-55.3
X54.05Y-40.06
X54.05Y-52.76
X54.05Y-55.3
X56.59Y-40.06
X56.59Y-52.76
X56.59Y-55.3
X59.13Y-40.06
X59.13Y-52.76
X59.13Y-55.3
X61.67Y-40.06
X61.67Y-52.76
X61.67Y-55.3
X64.21Y-40.06
X64.21Y-52.76
X64.21Y-55.3
X66.75Y-40.06
X66.75Y-42.6
X66.75Y-45.14
X66.75Y-47.68
X66.75Y-50.22
X66.75Y-52.76
X66.75Y-55.3
M30
