%TF.GenerationSoftware,KiCad,Pcbnew,8.0.8*%
%TF.CreationDate,2025-02-01T00:49:18+03:00*%
%TF.ProjectId,Pistol_Camera_Driver,50697374-6f6c-45f4-9361-6d6572615f44,rev?*%
%TF.SameCoordinates,Original*%
%TF.FileFunction,Legend,Top*%
%TF.FilePolarity,Positive*%
%FSLAX46Y46*%
G04 Gerber Fmt 4.6, Leading zero omitted, Abs format (unit mm)*
G04 Created by KiCad (PCBNEW 8.0.8) date 2025-02-01 00:49:18*
%MOMM*%
%LPD*%
G01*
G04 APERTURE LIST*
%ADD10C,0.120000*%
%ADD11C,0.150000*%
G04 APERTURE END LIST*
D10*
X98765000Y-39640000D02*
X98765000Y-41040000D01*
X98975000Y-46950000D02*
X96775000Y-46950000D01*
X98365000Y-47440000D02*
X97965000Y-47040000D01*
X98765000Y-41040000D02*
X100165000Y-41640000D01*
D11*
X94819820Y-59523333D02*
X95534105Y-59523333D01*
X95534105Y-59523333D02*
X95676962Y-59570952D01*
X95676962Y-59570952D02*
X95772201Y-59666190D01*
X95772201Y-59666190D02*
X95819820Y-59809047D01*
X95819820Y-59809047D02*
X95819820Y-59904285D01*
X95248391Y-58904285D02*
X95200772Y-58999523D01*
X95200772Y-58999523D02*
X95153153Y-59047142D01*
X95153153Y-59047142D02*
X95057915Y-59094761D01*
X95057915Y-59094761D02*
X95010296Y-59094761D01*
X95010296Y-59094761D02*
X94915058Y-59047142D01*
X94915058Y-59047142D02*
X94867439Y-58999523D01*
X94867439Y-58999523D02*
X94819820Y-58904285D01*
X94819820Y-58904285D02*
X94819820Y-58713809D01*
X94819820Y-58713809D02*
X94867439Y-58618571D01*
X94867439Y-58618571D02*
X94915058Y-58570952D01*
X94915058Y-58570952D02*
X95010296Y-58523333D01*
X95010296Y-58523333D02*
X95057915Y-58523333D01*
X95057915Y-58523333D02*
X95153153Y-58570952D01*
X95153153Y-58570952D02*
X95200772Y-58618571D01*
X95200772Y-58618571D02*
X95248391Y-58713809D01*
X95248391Y-58713809D02*
X95248391Y-58904285D01*
X95248391Y-58904285D02*
X95296010Y-58999523D01*
X95296010Y-58999523D02*
X95343629Y-59047142D01*
X95343629Y-59047142D02*
X95438867Y-59094761D01*
X95438867Y-59094761D02*
X95629343Y-59094761D01*
X95629343Y-59094761D02*
X95724581Y-59047142D01*
X95724581Y-59047142D02*
X95772201Y-58999523D01*
X95772201Y-58999523D02*
X95819820Y-58904285D01*
X95819820Y-58904285D02*
X95819820Y-58713809D01*
X95819820Y-58713809D02*
X95772201Y-58618571D01*
X95772201Y-58618571D02*
X95724581Y-58570952D01*
X95724581Y-58570952D02*
X95629343Y-58523333D01*
X95629343Y-58523333D02*
X95438867Y-58523333D01*
X95438867Y-58523333D02*
X95343629Y-58570952D01*
X95343629Y-58570952D02*
X95296010Y-58618571D01*
X95296010Y-58618571D02*
X95248391Y-58713809D01*
X42097142Y-71654819D02*
X41763809Y-71178628D01*
X41525714Y-71654819D02*
X41525714Y-70654819D01*
X41525714Y-70654819D02*
X41906666Y-70654819D01*
X41906666Y-70654819D02*
X42001904Y-70702438D01*
X42001904Y-70702438D02*
X42049523Y-70750057D01*
X42049523Y-70750057D02*
X42097142Y-70845295D01*
X42097142Y-70845295D02*
X42097142Y-70988152D01*
X42097142Y-70988152D02*
X42049523Y-71083390D01*
X42049523Y-71083390D02*
X42001904Y-71131009D01*
X42001904Y-71131009D02*
X41906666Y-71178628D01*
X41906666Y-71178628D02*
X41525714Y-71178628D01*
X43001904Y-70654819D02*
X42525714Y-70654819D01*
X42525714Y-70654819D02*
X42478095Y-71131009D01*
X42478095Y-71131009D02*
X42525714Y-71083390D01*
X42525714Y-71083390D02*
X42620952Y-71035771D01*
X42620952Y-71035771D02*
X42859047Y-71035771D01*
X42859047Y-71035771D02*
X42954285Y-71083390D01*
X42954285Y-71083390D02*
X43001904Y-71131009D01*
X43001904Y-71131009D02*
X43049523Y-71226247D01*
X43049523Y-71226247D02*
X43049523Y-71464342D01*
X43049523Y-71464342D02*
X43001904Y-71559580D01*
X43001904Y-71559580D02*
X42954285Y-71607200D01*
X42954285Y-71607200D02*
X42859047Y-71654819D01*
X42859047Y-71654819D02*
X42620952Y-71654819D01*
X42620952Y-71654819D02*
X42525714Y-71607200D01*
X42525714Y-71607200D02*
X42478095Y-71559580D01*
X44001904Y-71654819D02*
X43430476Y-71654819D01*
X43716190Y-71654819D02*
X43716190Y-70654819D01*
X43716190Y-70654819D02*
X43620952Y-70797676D01*
X43620952Y-70797676D02*
X43525714Y-70892914D01*
X43525714Y-70892914D02*
X43430476Y-70940533D01*
X94389581Y-63632857D02*
X94437201Y-63680476D01*
X94437201Y-63680476D02*
X94484820Y-63823333D01*
X94484820Y-63823333D02*
X94484820Y-63918571D01*
X94484820Y-63918571D02*
X94437201Y-64061428D01*
X94437201Y-64061428D02*
X94341962Y-64156666D01*
X94341962Y-64156666D02*
X94246724Y-64204285D01*
X94246724Y-64204285D02*
X94056248Y-64251904D01*
X94056248Y-64251904D02*
X93913391Y-64251904D01*
X93913391Y-64251904D02*
X93722915Y-64204285D01*
X93722915Y-64204285D02*
X93627677Y-64156666D01*
X93627677Y-64156666D02*
X93532439Y-64061428D01*
X93532439Y-64061428D02*
X93484820Y-63918571D01*
X93484820Y-63918571D02*
X93484820Y-63823333D01*
X93484820Y-63823333D02*
X93532439Y-63680476D01*
X93532439Y-63680476D02*
X93580058Y-63632857D01*
X93580058Y-63251904D02*
X93532439Y-63204285D01*
X93532439Y-63204285D02*
X93484820Y-63109047D01*
X93484820Y-63109047D02*
X93484820Y-62870952D01*
X93484820Y-62870952D02*
X93532439Y-62775714D01*
X93532439Y-62775714D02*
X93580058Y-62728095D01*
X93580058Y-62728095D02*
X93675296Y-62680476D01*
X93675296Y-62680476D02*
X93770534Y-62680476D01*
X93770534Y-62680476D02*
X93913391Y-62728095D01*
X93913391Y-62728095D02*
X94484820Y-63299523D01*
X94484820Y-63299523D02*
X94484820Y-62680476D01*
X93484820Y-61823333D02*
X93484820Y-62013809D01*
X93484820Y-62013809D02*
X93532439Y-62109047D01*
X93532439Y-62109047D02*
X93580058Y-62156666D01*
X93580058Y-62156666D02*
X93722915Y-62251904D01*
X93722915Y-62251904D02*
X93913391Y-62299523D01*
X93913391Y-62299523D02*
X94294343Y-62299523D01*
X94294343Y-62299523D02*
X94389581Y-62251904D01*
X94389581Y-62251904D02*
X94437201Y-62204285D01*
X94437201Y-62204285D02*
X94484820Y-62109047D01*
X94484820Y-62109047D02*
X94484820Y-61918571D01*
X94484820Y-61918571D02*
X94437201Y-61823333D01*
X94437201Y-61823333D02*
X94389581Y-61775714D01*
X94389581Y-61775714D02*
X94294343Y-61728095D01*
X94294343Y-61728095D02*
X94056248Y-61728095D01*
X94056248Y-61728095D02*
X93961010Y-61775714D01*
X93961010Y-61775714D02*
X93913391Y-61823333D01*
X93913391Y-61823333D02*
X93865772Y-61918571D01*
X93865772Y-61918571D02*
X93865772Y-62109047D01*
X93865772Y-62109047D02*
X93913391Y-62204285D01*
X93913391Y-62204285D02*
X93961010Y-62251904D01*
X93961010Y-62251904D02*
X94056248Y-62299523D01*
X109922142Y-69399580D02*
X109874523Y-69447200D01*
X109874523Y-69447200D02*
X109731666Y-69494819D01*
X109731666Y-69494819D02*
X109636428Y-69494819D01*
X109636428Y-69494819D02*
X109493571Y-69447200D01*
X109493571Y-69447200D02*
X109398333Y-69351961D01*
X109398333Y-69351961D02*
X109350714Y-69256723D01*
X109350714Y-69256723D02*
X109303095Y-69066247D01*
X109303095Y-69066247D02*
X109303095Y-68923390D01*
X109303095Y-68923390D02*
X109350714Y-68732914D01*
X109350714Y-68732914D02*
X109398333Y-68637676D01*
X109398333Y-68637676D02*
X109493571Y-68542438D01*
X109493571Y-68542438D02*
X109636428Y-68494819D01*
X109636428Y-68494819D02*
X109731666Y-68494819D01*
X109731666Y-68494819D02*
X109874523Y-68542438D01*
X109874523Y-68542438D02*
X109922142Y-68590057D01*
X110874523Y-69494819D02*
X110303095Y-69494819D01*
X110588809Y-69494819D02*
X110588809Y-68494819D01*
X110588809Y-68494819D02*
X110493571Y-68637676D01*
X110493571Y-68637676D02*
X110398333Y-68732914D01*
X110398333Y-68732914D02*
X110303095Y-68780533D01*
X111255476Y-68590057D02*
X111303095Y-68542438D01*
X111303095Y-68542438D02*
X111398333Y-68494819D01*
X111398333Y-68494819D02*
X111636428Y-68494819D01*
X111636428Y-68494819D02*
X111731666Y-68542438D01*
X111731666Y-68542438D02*
X111779285Y-68590057D01*
X111779285Y-68590057D02*
X111826904Y-68685295D01*
X111826904Y-68685295D02*
X111826904Y-68780533D01*
X111826904Y-68780533D02*
X111779285Y-68923390D01*
X111779285Y-68923390D02*
X111207857Y-69494819D01*
X111207857Y-69494819D02*
X111826904Y-69494819D01*
X38867142Y-71409580D02*
X38819523Y-71457200D01*
X38819523Y-71457200D02*
X38676666Y-71504819D01*
X38676666Y-71504819D02*
X38581428Y-71504819D01*
X38581428Y-71504819D02*
X38438571Y-71457200D01*
X38438571Y-71457200D02*
X38343333Y-71361961D01*
X38343333Y-71361961D02*
X38295714Y-71266723D01*
X38295714Y-71266723D02*
X38248095Y-71076247D01*
X38248095Y-71076247D02*
X38248095Y-70933390D01*
X38248095Y-70933390D02*
X38295714Y-70742914D01*
X38295714Y-70742914D02*
X38343333Y-70647676D01*
X38343333Y-70647676D02*
X38438571Y-70552438D01*
X38438571Y-70552438D02*
X38581428Y-70504819D01*
X38581428Y-70504819D02*
X38676666Y-70504819D01*
X38676666Y-70504819D02*
X38819523Y-70552438D01*
X38819523Y-70552438D02*
X38867142Y-70600057D01*
X39200476Y-70504819D02*
X39819523Y-70504819D01*
X39819523Y-70504819D02*
X39486190Y-70885771D01*
X39486190Y-70885771D02*
X39629047Y-70885771D01*
X39629047Y-70885771D02*
X39724285Y-70933390D01*
X39724285Y-70933390D02*
X39771904Y-70981009D01*
X39771904Y-70981009D02*
X39819523Y-71076247D01*
X39819523Y-71076247D02*
X39819523Y-71314342D01*
X39819523Y-71314342D02*
X39771904Y-71409580D01*
X39771904Y-71409580D02*
X39724285Y-71457200D01*
X39724285Y-71457200D02*
X39629047Y-71504819D01*
X39629047Y-71504819D02*
X39343333Y-71504819D01*
X39343333Y-71504819D02*
X39248095Y-71457200D01*
X39248095Y-71457200D02*
X39200476Y-71409580D01*
X40438571Y-70504819D02*
X40533809Y-70504819D01*
X40533809Y-70504819D02*
X40629047Y-70552438D01*
X40629047Y-70552438D02*
X40676666Y-70600057D01*
X40676666Y-70600057D02*
X40724285Y-70695295D01*
X40724285Y-70695295D02*
X40771904Y-70885771D01*
X40771904Y-70885771D02*
X40771904Y-71123866D01*
X40771904Y-71123866D02*
X40724285Y-71314342D01*
X40724285Y-71314342D02*
X40676666Y-71409580D01*
X40676666Y-71409580D02*
X40629047Y-71457200D01*
X40629047Y-71457200D02*
X40533809Y-71504819D01*
X40533809Y-71504819D02*
X40438571Y-71504819D01*
X40438571Y-71504819D02*
X40343333Y-71457200D01*
X40343333Y-71457200D02*
X40295714Y-71409580D01*
X40295714Y-71409580D02*
X40248095Y-71314342D01*
X40248095Y-71314342D02*
X40200476Y-71123866D01*
X40200476Y-71123866D02*
X40200476Y-70885771D01*
X40200476Y-70885771D02*
X40248095Y-70695295D01*
X40248095Y-70695295D02*
X40295714Y-70600057D01*
X40295714Y-70600057D02*
X40343333Y-70552438D01*
X40343333Y-70552438D02*
X40438571Y-70504819D01*
X52130476Y-70594819D02*
X52463809Y-71594819D01*
X52463809Y-71594819D02*
X52797142Y-70594819D01*
X53130476Y-71594819D02*
X53130476Y-70594819D01*
X53130476Y-70594819D02*
X53368571Y-70594819D01*
X53368571Y-70594819D02*
X53511428Y-70642438D01*
X53511428Y-70642438D02*
X53606666Y-70737676D01*
X53606666Y-70737676D02*
X53654285Y-70832914D01*
X53654285Y-70832914D02*
X53701904Y-71023390D01*
X53701904Y-71023390D02*
X53701904Y-71166247D01*
X53701904Y-71166247D02*
X53654285Y-71356723D01*
X53654285Y-71356723D02*
X53606666Y-71451961D01*
X53606666Y-71451961D02*
X53511428Y-71547200D01*
X53511428Y-71547200D02*
X53368571Y-71594819D01*
X53368571Y-71594819D02*
X53130476Y-71594819D01*
X54606666Y-70594819D02*
X54130476Y-70594819D01*
X54130476Y-70594819D02*
X54082857Y-71071009D01*
X54082857Y-71071009D02*
X54130476Y-71023390D01*
X54130476Y-71023390D02*
X54225714Y-70975771D01*
X54225714Y-70975771D02*
X54463809Y-70975771D01*
X54463809Y-70975771D02*
X54559047Y-71023390D01*
X54559047Y-71023390D02*
X54606666Y-71071009D01*
X54606666Y-71071009D02*
X54654285Y-71166247D01*
X54654285Y-71166247D02*
X54654285Y-71404342D01*
X54654285Y-71404342D02*
X54606666Y-71499580D01*
X54606666Y-71499580D02*
X54559047Y-71547200D01*
X54559047Y-71547200D02*
X54463809Y-71594819D01*
X54463809Y-71594819D02*
X54225714Y-71594819D01*
X54225714Y-71594819D02*
X54130476Y-71547200D01*
X54130476Y-71547200D02*
X54082857Y-71499580D01*
X71753333Y-35144819D02*
X71277143Y-35144819D01*
X71277143Y-35144819D02*
X71277143Y-34144819D01*
X72039048Y-34240057D02*
X72086667Y-34192438D01*
X72086667Y-34192438D02*
X72181905Y-34144819D01*
X72181905Y-34144819D02*
X72420000Y-34144819D01*
X72420000Y-34144819D02*
X72515238Y-34192438D01*
X72515238Y-34192438D02*
X72562857Y-34240057D01*
X72562857Y-34240057D02*
X72610476Y-34335295D01*
X72610476Y-34335295D02*
X72610476Y-34430533D01*
X72610476Y-34430533D02*
X72562857Y-34573390D01*
X72562857Y-34573390D02*
X71991429Y-35144819D01*
X71991429Y-35144819D02*
X72610476Y-35144819D01*
X93979580Y-70176666D02*
X94027200Y-70224285D01*
X94027200Y-70224285D02*
X94074819Y-70367142D01*
X94074819Y-70367142D02*
X94074819Y-70462380D01*
X94074819Y-70462380D02*
X94027200Y-70605237D01*
X94027200Y-70605237D02*
X93931961Y-70700475D01*
X93931961Y-70700475D02*
X93836723Y-70748094D01*
X93836723Y-70748094D02*
X93646247Y-70795713D01*
X93646247Y-70795713D02*
X93503390Y-70795713D01*
X93503390Y-70795713D02*
X93312914Y-70748094D01*
X93312914Y-70748094D02*
X93217676Y-70700475D01*
X93217676Y-70700475D02*
X93122438Y-70605237D01*
X93122438Y-70605237D02*
X93074819Y-70462380D01*
X93074819Y-70462380D02*
X93074819Y-70367142D01*
X93074819Y-70367142D02*
X93122438Y-70224285D01*
X93122438Y-70224285D02*
X93170057Y-70176666D01*
X93170057Y-69795713D02*
X93122438Y-69748094D01*
X93122438Y-69748094D02*
X93074819Y-69652856D01*
X93074819Y-69652856D02*
X93074819Y-69414761D01*
X93074819Y-69414761D02*
X93122438Y-69319523D01*
X93122438Y-69319523D02*
X93170057Y-69271904D01*
X93170057Y-69271904D02*
X93265295Y-69224285D01*
X93265295Y-69224285D02*
X93360533Y-69224285D01*
X93360533Y-69224285D02*
X93503390Y-69271904D01*
X93503390Y-69271904D02*
X94074819Y-69843332D01*
X94074819Y-69843332D02*
X94074819Y-69224285D01*
X68497142Y-65209580D02*
X68449523Y-65257200D01*
X68449523Y-65257200D02*
X68306666Y-65304819D01*
X68306666Y-65304819D02*
X68211428Y-65304819D01*
X68211428Y-65304819D02*
X68068571Y-65257200D01*
X68068571Y-65257200D02*
X67973333Y-65161961D01*
X67973333Y-65161961D02*
X67925714Y-65066723D01*
X67925714Y-65066723D02*
X67878095Y-64876247D01*
X67878095Y-64876247D02*
X67878095Y-64733390D01*
X67878095Y-64733390D02*
X67925714Y-64542914D01*
X67925714Y-64542914D02*
X67973333Y-64447676D01*
X67973333Y-64447676D02*
X68068571Y-64352438D01*
X68068571Y-64352438D02*
X68211428Y-64304819D01*
X68211428Y-64304819D02*
X68306666Y-64304819D01*
X68306666Y-64304819D02*
X68449523Y-64352438D01*
X68449523Y-64352438D02*
X68497142Y-64400057D01*
X69449523Y-65304819D02*
X68878095Y-65304819D01*
X69163809Y-65304819D02*
X69163809Y-64304819D01*
X69163809Y-64304819D02*
X69068571Y-64447676D01*
X69068571Y-64447676D02*
X68973333Y-64542914D01*
X68973333Y-64542914D02*
X68878095Y-64590533D01*
X69782857Y-64304819D02*
X70449523Y-64304819D01*
X70449523Y-64304819D02*
X70020952Y-65304819D01*
X68633333Y-76719580D02*
X68585714Y-76767200D01*
X68585714Y-76767200D02*
X68442857Y-76814819D01*
X68442857Y-76814819D02*
X68347619Y-76814819D01*
X68347619Y-76814819D02*
X68204762Y-76767200D01*
X68204762Y-76767200D02*
X68109524Y-76671961D01*
X68109524Y-76671961D02*
X68061905Y-76576723D01*
X68061905Y-76576723D02*
X68014286Y-76386247D01*
X68014286Y-76386247D02*
X68014286Y-76243390D01*
X68014286Y-76243390D02*
X68061905Y-76052914D01*
X68061905Y-76052914D02*
X68109524Y-75957676D01*
X68109524Y-75957676D02*
X68204762Y-75862438D01*
X68204762Y-75862438D02*
X68347619Y-75814819D01*
X68347619Y-75814819D02*
X68442857Y-75814819D01*
X68442857Y-75814819D02*
X68585714Y-75862438D01*
X68585714Y-75862438D02*
X68633333Y-75910057D01*
X68966667Y-75814819D02*
X69585714Y-75814819D01*
X69585714Y-75814819D02*
X69252381Y-76195771D01*
X69252381Y-76195771D02*
X69395238Y-76195771D01*
X69395238Y-76195771D02*
X69490476Y-76243390D01*
X69490476Y-76243390D02*
X69538095Y-76291009D01*
X69538095Y-76291009D02*
X69585714Y-76386247D01*
X69585714Y-76386247D02*
X69585714Y-76624342D01*
X69585714Y-76624342D02*
X69538095Y-76719580D01*
X69538095Y-76719580D02*
X69490476Y-76767200D01*
X69490476Y-76767200D02*
X69395238Y-76814819D01*
X69395238Y-76814819D02*
X69109524Y-76814819D01*
X69109524Y-76814819D02*
X69014286Y-76767200D01*
X69014286Y-76767200D02*
X68966667Y-76719580D01*
X95726666Y-33624819D02*
X95726666Y-34339104D01*
X95726666Y-34339104D02*
X95679047Y-34481961D01*
X95679047Y-34481961D02*
X95583809Y-34577200D01*
X95583809Y-34577200D02*
X95440952Y-34624819D01*
X95440952Y-34624819D02*
X95345714Y-34624819D01*
X96726666Y-34624819D02*
X96155238Y-34624819D01*
X96440952Y-34624819D02*
X96440952Y-33624819D01*
X96440952Y-33624819D02*
X96345714Y-33767676D01*
X96345714Y-33767676D02*
X96250476Y-33862914D01*
X96250476Y-33862914D02*
X96155238Y-33910533D01*
X39081905Y-71804819D02*
X39081905Y-72614342D01*
X39081905Y-72614342D02*
X39129524Y-72709580D01*
X39129524Y-72709580D02*
X39177143Y-72757200D01*
X39177143Y-72757200D02*
X39272381Y-72804819D01*
X39272381Y-72804819D02*
X39462857Y-72804819D01*
X39462857Y-72804819D02*
X39558095Y-72757200D01*
X39558095Y-72757200D02*
X39605714Y-72709580D01*
X39605714Y-72709580D02*
X39653333Y-72614342D01*
X39653333Y-72614342D02*
X39653333Y-71804819D01*
X40653333Y-72804819D02*
X40081905Y-72804819D01*
X40367619Y-72804819D02*
X40367619Y-71804819D01*
X40367619Y-71804819D02*
X40272381Y-71947676D01*
X40272381Y-71947676D02*
X40177143Y-72042914D01*
X40177143Y-72042914D02*
X40081905Y-72090533D01*
X41034286Y-71900057D02*
X41081905Y-71852438D01*
X41081905Y-71852438D02*
X41177143Y-71804819D01*
X41177143Y-71804819D02*
X41415238Y-71804819D01*
X41415238Y-71804819D02*
X41510476Y-71852438D01*
X41510476Y-71852438D02*
X41558095Y-71900057D01*
X41558095Y-71900057D02*
X41605714Y-71995295D01*
X41605714Y-71995295D02*
X41605714Y-72090533D01*
X41605714Y-72090533D02*
X41558095Y-72233390D01*
X41558095Y-72233390D02*
X40986667Y-72804819D01*
X40986667Y-72804819D02*
X41605714Y-72804819D01*
X97076666Y-41994819D02*
X97076666Y-42709104D01*
X97076666Y-42709104D02*
X97029047Y-42851961D01*
X97029047Y-42851961D02*
X96933809Y-42947200D01*
X96933809Y-42947200D02*
X96790952Y-42994819D01*
X96790952Y-42994819D02*
X96695714Y-42994819D01*
X98029047Y-41994819D02*
X97552857Y-41994819D01*
X97552857Y-41994819D02*
X97505238Y-42471009D01*
X97505238Y-42471009D02*
X97552857Y-42423390D01*
X97552857Y-42423390D02*
X97648095Y-42375771D01*
X97648095Y-42375771D02*
X97886190Y-42375771D01*
X97886190Y-42375771D02*
X97981428Y-42423390D01*
X97981428Y-42423390D02*
X98029047Y-42471009D01*
X98029047Y-42471009D02*
X98076666Y-42566247D01*
X98076666Y-42566247D02*
X98076666Y-42804342D01*
X98076666Y-42804342D02*
X98029047Y-42899580D01*
X98029047Y-42899580D02*
X97981428Y-42947200D01*
X97981428Y-42947200D02*
X97886190Y-42994819D01*
X97886190Y-42994819D02*
X97648095Y-42994819D01*
X97648095Y-42994819D02*
X97552857Y-42947200D01*
X97552857Y-42947200D02*
X97505238Y-42899580D01*
X73027142Y-69064819D02*
X72693809Y-68588628D01*
X72455714Y-69064819D02*
X72455714Y-68064819D01*
X72455714Y-68064819D02*
X72836666Y-68064819D01*
X72836666Y-68064819D02*
X72931904Y-68112438D01*
X72931904Y-68112438D02*
X72979523Y-68160057D01*
X72979523Y-68160057D02*
X73027142Y-68255295D01*
X73027142Y-68255295D02*
X73027142Y-68398152D01*
X73027142Y-68398152D02*
X72979523Y-68493390D01*
X72979523Y-68493390D02*
X72931904Y-68541009D01*
X72931904Y-68541009D02*
X72836666Y-68588628D01*
X72836666Y-68588628D02*
X72455714Y-68588628D01*
X73979523Y-69064819D02*
X73408095Y-69064819D01*
X73693809Y-69064819D02*
X73693809Y-68064819D01*
X73693809Y-68064819D02*
X73598571Y-68207676D01*
X73598571Y-68207676D02*
X73503333Y-68302914D01*
X73503333Y-68302914D02*
X73408095Y-68350533D01*
X74884285Y-68064819D02*
X74408095Y-68064819D01*
X74408095Y-68064819D02*
X74360476Y-68541009D01*
X74360476Y-68541009D02*
X74408095Y-68493390D01*
X74408095Y-68493390D02*
X74503333Y-68445771D01*
X74503333Y-68445771D02*
X74741428Y-68445771D01*
X74741428Y-68445771D02*
X74836666Y-68493390D01*
X74836666Y-68493390D02*
X74884285Y-68541009D01*
X74884285Y-68541009D02*
X74931904Y-68636247D01*
X74931904Y-68636247D02*
X74931904Y-68874342D01*
X74931904Y-68874342D02*
X74884285Y-68969580D01*
X74884285Y-68969580D02*
X74836666Y-69017200D01*
X74836666Y-69017200D02*
X74741428Y-69064819D01*
X74741428Y-69064819D02*
X74503333Y-69064819D01*
X74503333Y-69064819D02*
X74408095Y-69017200D01*
X74408095Y-69017200D02*
X74360476Y-68969580D01*
X108098333Y-54394819D02*
X107765000Y-53918628D01*
X107526905Y-54394819D02*
X107526905Y-53394819D01*
X107526905Y-53394819D02*
X107907857Y-53394819D01*
X107907857Y-53394819D02*
X108003095Y-53442438D01*
X108003095Y-53442438D02*
X108050714Y-53490057D01*
X108050714Y-53490057D02*
X108098333Y-53585295D01*
X108098333Y-53585295D02*
X108098333Y-53728152D01*
X108098333Y-53728152D02*
X108050714Y-53823390D01*
X108050714Y-53823390D02*
X108003095Y-53871009D01*
X108003095Y-53871009D02*
X107907857Y-53918628D01*
X107907857Y-53918628D02*
X107526905Y-53918628D01*
X108431667Y-53394819D02*
X109098333Y-53394819D01*
X109098333Y-53394819D02*
X108669762Y-54394819D01*
X61790476Y-74954819D02*
X61790476Y-75669104D01*
X61790476Y-75669104D02*
X61742857Y-75811961D01*
X61742857Y-75811961D02*
X61647619Y-75907200D01*
X61647619Y-75907200D02*
X61504762Y-75954819D01*
X61504762Y-75954819D02*
X61409524Y-75954819D01*
X62790476Y-75954819D02*
X62219048Y-75954819D01*
X62504762Y-75954819D02*
X62504762Y-74954819D01*
X62504762Y-74954819D02*
X62409524Y-75097676D01*
X62409524Y-75097676D02*
X62314286Y-75192914D01*
X62314286Y-75192914D02*
X62219048Y-75240533D01*
X63647619Y-75288152D02*
X63647619Y-75954819D01*
X63409524Y-74907200D02*
X63171429Y-75621485D01*
X63171429Y-75621485D02*
X63790476Y-75621485D01*
X41300476Y-32194819D02*
X41300476Y-32909104D01*
X41300476Y-32909104D02*
X41252857Y-33051961D01*
X41252857Y-33051961D02*
X41157619Y-33147200D01*
X41157619Y-33147200D02*
X41014762Y-33194819D01*
X41014762Y-33194819D02*
X40919524Y-33194819D01*
X42300476Y-33194819D02*
X41729048Y-33194819D01*
X42014762Y-33194819D02*
X42014762Y-32194819D01*
X42014762Y-32194819D02*
X41919524Y-32337676D01*
X41919524Y-32337676D02*
X41824286Y-32432914D01*
X41824286Y-32432914D02*
X41729048Y-32480533D01*
X42776667Y-33194819D02*
X42967143Y-33194819D01*
X42967143Y-33194819D02*
X43062381Y-33147200D01*
X43062381Y-33147200D02*
X43110000Y-33099580D01*
X43110000Y-33099580D02*
X43205238Y-32956723D01*
X43205238Y-32956723D02*
X43252857Y-32766247D01*
X43252857Y-32766247D02*
X43252857Y-32385295D01*
X43252857Y-32385295D02*
X43205238Y-32290057D01*
X43205238Y-32290057D02*
X43157619Y-32242438D01*
X43157619Y-32242438D02*
X43062381Y-32194819D01*
X43062381Y-32194819D02*
X42871905Y-32194819D01*
X42871905Y-32194819D02*
X42776667Y-32242438D01*
X42776667Y-32242438D02*
X42729048Y-32290057D01*
X42729048Y-32290057D02*
X42681429Y-32385295D01*
X42681429Y-32385295D02*
X42681429Y-32623390D01*
X42681429Y-32623390D02*
X42729048Y-32718628D01*
X42729048Y-32718628D02*
X42776667Y-32766247D01*
X42776667Y-32766247D02*
X42871905Y-32813866D01*
X42871905Y-32813866D02*
X43062381Y-32813866D01*
X43062381Y-32813866D02*
X43157619Y-32766247D01*
X43157619Y-32766247D02*
X43205238Y-32718628D01*
X43205238Y-32718628D02*
X43252857Y-32623390D01*
X110837142Y-65824819D02*
X110503809Y-65348628D01*
X110265714Y-65824819D02*
X110265714Y-64824819D01*
X110265714Y-64824819D02*
X110646666Y-64824819D01*
X110646666Y-64824819D02*
X110741904Y-64872438D01*
X110741904Y-64872438D02*
X110789523Y-64920057D01*
X110789523Y-64920057D02*
X110837142Y-65015295D01*
X110837142Y-65015295D02*
X110837142Y-65158152D01*
X110837142Y-65158152D02*
X110789523Y-65253390D01*
X110789523Y-65253390D02*
X110741904Y-65301009D01*
X110741904Y-65301009D02*
X110646666Y-65348628D01*
X110646666Y-65348628D02*
X110265714Y-65348628D01*
X111789523Y-65824819D02*
X111218095Y-65824819D01*
X111503809Y-65824819D02*
X111503809Y-64824819D01*
X111503809Y-64824819D02*
X111408571Y-64967676D01*
X111408571Y-64967676D02*
X111313333Y-65062914D01*
X111313333Y-65062914D02*
X111218095Y-65110533D01*
X112408571Y-64824819D02*
X112503809Y-64824819D01*
X112503809Y-64824819D02*
X112599047Y-64872438D01*
X112599047Y-64872438D02*
X112646666Y-64920057D01*
X112646666Y-64920057D02*
X112694285Y-65015295D01*
X112694285Y-65015295D02*
X112741904Y-65205771D01*
X112741904Y-65205771D02*
X112741904Y-65443866D01*
X112741904Y-65443866D02*
X112694285Y-65634342D01*
X112694285Y-65634342D02*
X112646666Y-65729580D01*
X112646666Y-65729580D02*
X112599047Y-65777200D01*
X112599047Y-65777200D02*
X112503809Y-65824819D01*
X112503809Y-65824819D02*
X112408571Y-65824819D01*
X112408571Y-65824819D02*
X112313333Y-65777200D01*
X112313333Y-65777200D02*
X112265714Y-65729580D01*
X112265714Y-65729580D02*
X112218095Y-65634342D01*
X112218095Y-65634342D02*
X112170476Y-65443866D01*
X112170476Y-65443866D02*
X112170476Y-65205771D01*
X112170476Y-65205771D02*
X112218095Y-65015295D01*
X112218095Y-65015295D02*
X112265714Y-64920057D01*
X112265714Y-64920057D02*
X112313333Y-64872438D01*
X112313333Y-64872438D02*
X112408571Y-64824819D01*
X52617142Y-69294819D02*
X52283809Y-68818628D01*
X52045714Y-69294819D02*
X52045714Y-68294819D01*
X52045714Y-68294819D02*
X52426666Y-68294819D01*
X52426666Y-68294819D02*
X52521904Y-68342438D01*
X52521904Y-68342438D02*
X52569523Y-68390057D01*
X52569523Y-68390057D02*
X52617142Y-68485295D01*
X52617142Y-68485295D02*
X52617142Y-68628152D01*
X52617142Y-68628152D02*
X52569523Y-68723390D01*
X52569523Y-68723390D02*
X52521904Y-68771009D01*
X52521904Y-68771009D02*
X52426666Y-68818628D01*
X52426666Y-68818628D02*
X52045714Y-68818628D01*
X53521904Y-68294819D02*
X53045714Y-68294819D01*
X53045714Y-68294819D02*
X52998095Y-68771009D01*
X52998095Y-68771009D02*
X53045714Y-68723390D01*
X53045714Y-68723390D02*
X53140952Y-68675771D01*
X53140952Y-68675771D02*
X53379047Y-68675771D01*
X53379047Y-68675771D02*
X53474285Y-68723390D01*
X53474285Y-68723390D02*
X53521904Y-68771009D01*
X53521904Y-68771009D02*
X53569523Y-68866247D01*
X53569523Y-68866247D02*
X53569523Y-69104342D01*
X53569523Y-69104342D02*
X53521904Y-69199580D01*
X53521904Y-69199580D02*
X53474285Y-69247200D01*
X53474285Y-69247200D02*
X53379047Y-69294819D01*
X53379047Y-69294819D02*
X53140952Y-69294819D01*
X53140952Y-69294819D02*
X53045714Y-69247200D01*
X53045714Y-69247200D02*
X52998095Y-69199580D01*
X54188571Y-68294819D02*
X54283809Y-68294819D01*
X54283809Y-68294819D02*
X54379047Y-68342438D01*
X54379047Y-68342438D02*
X54426666Y-68390057D01*
X54426666Y-68390057D02*
X54474285Y-68485295D01*
X54474285Y-68485295D02*
X54521904Y-68675771D01*
X54521904Y-68675771D02*
X54521904Y-68913866D01*
X54521904Y-68913866D02*
X54474285Y-69104342D01*
X54474285Y-69104342D02*
X54426666Y-69199580D01*
X54426666Y-69199580D02*
X54379047Y-69247200D01*
X54379047Y-69247200D02*
X54283809Y-69294819D01*
X54283809Y-69294819D02*
X54188571Y-69294819D01*
X54188571Y-69294819D02*
X54093333Y-69247200D01*
X54093333Y-69247200D02*
X54045714Y-69199580D01*
X54045714Y-69199580D02*
X53998095Y-69104342D01*
X53998095Y-69104342D02*
X53950476Y-68913866D01*
X53950476Y-68913866D02*
X53950476Y-68675771D01*
X53950476Y-68675771D02*
X53998095Y-68485295D01*
X53998095Y-68485295D02*
X54045714Y-68390057D01*
X54045714Y-68390057D02*
X54093333Y-68342438D01*
X54093333Y-68342438D02*
X54188571Y-68294819D01*
X67990476Y-38514819D02*
X68323809Y-39514819D01*
X68323809Y-39514819D02*
X68657142Y-38514819D01*
X68990476Y-39514819D02*
X68990476Y-38514819D01*
X68990476Y-38514819D02*
X69228571Y-38514819D01*
X69228571Y-38514819D02*
X69371428Y-38562438D01*
X69371428Y-38562438D02*
X69466666Y-38657676D01*
X69466666Y-38657676D02*
X69514285Y-38752914D01*
X69514285Y-38752914D02*
X69561904Y-38943390D01*
X69561904Y-38943390D02*
X69561904Y-39086247D01*
X69561904Y-39086247D02*
X69514285Y-39276723D01*
X69514285Y-39276723D02*
X69466666Y-39371961D01*
X69466666Y-39371961D02*
X69371428Y-39467200D01*
X69371428Y-39467200D02*
X69228571Y-39514819D01*
X69228571Y-39514819D02*
X68990476Y-39514819D01*
X70419047Y-38848152D02*
X70419047Y-39514819D01*
X70180952Y-38467200D02*
X69942857Y-39181485D01*
X69942857Y-39181485D02*
X70561904Y-39181485D01*
X85957142Y-68754819D02*
X85623809Y-68278628D01*
X85385714Y-68754819D02*
X85385714Y-67754819D01*
X85385714Y-67754819D02*
X85766666Y-67754819D01*
X85766666Y-67754819D02*
X85861904Y-67802438D01*
X85861904Y-67802438D02*
X85909523Y-67850057D01*
X85909523Y-67850057D02*
X85957142Y-67945295D01*
X85957142Y-67945295D02*
X85957142Y-68088152D01*
X85957142Y-68088152D02*
X85909523Y-68183390D01*
X85909523Y-68183390D02*
X85861904Y-68231009D01*
X85861904Y-68231009D02*
X85766666Y-68278628D01*
X85766666Y-68278628D02*
X85385714Y-68278628D01*
X86814285Y-68088152D02*
X86814285Y-68754819D01*
X86576190Y-67707200D02*
X86338095Y-68421485D01*
X86338095Y-68421485D02*
X86957142Y-68421485D01*
X87290476Y-67850057D02*
X87338095Y-67802438D01*
X87338095Y-67802438D02*
X87433333Y-67754819D01*
X87433333Y-67754819D02*
X87671428Y-67754819D01*
X87671428Y-67754819D02*
X87766666Y-67802438D01*
X87766666Y-67802438D02*
X87814285Y-67850057D01*
X87814285Y-67850057D02*
X87861904Y-67945295D01*
X87861904Y-67945295D02*
X87861904Y-68040533D01*
X87861904Y-68040533D02*
X87814285Y-68183390D01*
X87814285Y-68183390D02*
X87242857Y-68754819D01*
X87242857Y-68754819D02*
X87861904Y-68754819D01*
X51369580Y-75792857D02*
X51417200Y-75840476D01*
X51417200Y-75840476D02*
X51464819Y-75983333D01*
X51464819Y-75983333D02*
X51464819Y-76078571D01*
X51464819Y-76078571D02*
X51417200Y-76221428D01*
X51417200Y-76221428D02*
X51321961Y-76316666D01*
X51321961Y-76316666D02*
X51226723Y-76364285D01*
X51226723Y-76364285D02*
X51036247Y-76411904D01*
X51036247Y-76411904D02*
X50893390Y-76411904D01*
X50893390Y-76411904D02*
X50702914Y-76364285D01*
X50702914Y-76364285D02*
X50607676Y-76316666D01*
X50607676Y-76316666D02*
X50512438Y-76221428D01*
X50512438Y-76221428D02*
X50464819Y-76078571D01*
X50464819Y-76078571D02*
X50464819Y-75983333D01*
X50464819Y-75983333D02*
X50512438Y-75840476D01*
X50512438Y-75840476D02*
X50560057Y-75792857D01*
X50560057Y-75411904D02*
X50512438Y-75364285D01*
X50512438Y-75364285D02*
X50464819Y-75269047D01*
X50464819Y-75269047D02*
X50464819Y-75030952D01*
X50464819Y-75030952D02*
X50512438Y-74935714D01*
X50512438Y-74935714D02*
X50560057Y-74888095D01*
X50560057Y-74888095D02*
X50655295Y-74840476D01*
X50655295Y-74840476D02*
X50750533Y-74840476D01*
X50750533Y-74840476D02*
X50893390Y-74888095D01*
X50893390Y-74888095D02*
X51464819Y-75459523D01*
X51464819Y-75459523D02*
X51464819Y-74840476D01*
X50464819Y-74507142D02*
X50464819Y-73840476D01*
X50464819Y-73840476D02*
X51464819Y-74269047D01*
X79739819Y-62833333D02*
X80454104Y-62833333D01*
X80454104Y-62833333D02*
X80596961Y-62880952D01*
X80596961Y-62880952D02*
X80692200Y-62976190D01*
X80692200Y-62976190D02*
X80739819Y-63119047D01*
X80739819Y-63119047D02*
X80739819Y-63214285D01*
X80739819Y-62309523D02*
X80739819Y-62119047D01*
X80739819Y-62119047D02*
X80692200Y-62023809D01*
X80692200Y-62023809D02*
X80644580Y-61976190D01*
X80644580Y-61976190D02*
X80501723Y-61880952D01*
X80501723Y-61880952D02*
X80311247Y-61833333D01*
X80311247Y-61833333D02*
X79930295Y-61833333D01*
X79930295Y-61833333D02*
X79835057Y-61880952D01*
X79835057Y-61880952D02*
X79787438Y-61928571D01*
X79787438Y-61928571D02*
X79739819Y-62023809D01*
X79739819Y-62023809D02*
X79739819Y-62214285D01*
X79739819Y-62214285D02*
X79787438Y-62309523D01*
X79787438Y-62309523D02*
X79835057Y-62357142D01*
X79835057Y-62357142D02*
X79930295Y-62404761D01*
X79930295Y-62404761D02*
X80168390Y-62404761D01*
X80168390Y-62404761D02*
X80263628Y-62357142D01*
X80263628Y-62357142D02*
X80311247Y-62309523D01*
X80311247Y-62309523D02*
X80358866Y-62214285D01*
X80358866Y-62214285D02*
X80358866Y-62023809D01*
X80358866Y-62023809D02*
X80311247Y-61928571D01*
X80311247Y-61928571D02*
X80263628Y-61880952D01*
X80263628Y-61880952D02*
X80168390Y-61833333D01*
X106033333Y-33209580D02*
X105985714Y-33257200D01*
X105985714Y-33257200D02*
X105842857Y-33304819D01*
X105842857Y-33304819D02*
X105747619Y-33304819D01*
X105747619Y-33304819D02*
X105604762Y-33257200D01*
X105604762Y-33257200D02*
X105509524Y-33161961D01*
X105509524Y-33161961D02*
X105461905Y-33066723D01*
X105461905Y-33066723D02*
X105414286Y-32876247D01*
X105414286Y-32876247D02*
X105414286Y-32733390D01*
X105414286Y-32733390D02*
X105461905Y-32542914D01*
X105461905Y-32542914D02*
X105509524Y-32447676D01*
X105509524Y-32447676D02*
X105604762Y-32352438D01*
X105604762Y-32352438D02*
X105747619Y-32304819D01*
X105747619Y-32304819D02*
X105842857Y-32304819D01*
X105842857Y-32304819D02*
X105985714Y-32352438D01*
X105985714Y-32352438D02*
X106033333Y-32400057D01*
X106985714Y-33304819D02*
X106414286Y-33304819D01*
X106700000Y-33304819D02*
X106700000Y-32304819D01*
X106700000Y-32304819D02*
X106604762Y-32447676D01*
X106604762Y-32447676D02*
X106509524Y-32542914D01*
X106509524Y-32542914D02*
X106414286Y-32590533D01*
X107133333Y-77069580D02*
X107085714Y-77117200D01*
X107085714Y-77117200D02*
X106942857Y-77164819D01*
X106942857Y-77164819D02*
X106847619Y-77164819D01*
X106847619Y-77164819D02*
X106704762Y-77117200D01*
X106704762Y-77117200D02*
X106609524Y-77021961D01*
X106609524Y-77021961D02*
X106561905Y-76926723D01*
X106561905Y-76926723D02*
X106514286Y-76736247D01*
X106514286Y-76736247D02*
X106514286Y-76593390D01*
X106514286Y-76593390D02*
X106561905Y-76402914D01*
X106561905Y-76402914D02*
X106609524Y-76307676D01*
X106609524Y-76307676D02*
X106704762Y-76212438D01*
X106704762Y-76212438D02*
X106847619Y-76164819D01*
X106847619Y-76164819D02*
X106942857Y-76164819D01*
X106942857Y-76164819D02*
X107085714Y-76212438D01*
X107085714Y-76212438D02*
X107133333Y-76260057D01*
X107609524Y-77164819D02*
X107800000Y-77164819D01*
X107800000Y-77164819D02*
X107895238Y-77117200D01*
X107895238Y-77117200D02*
X107942857Y-77069580D01*
X107942857Y-77069580D02*
X108038095Y-76926723D01*
X108038095Y-76926723D02*
X108085714Y-76736247D01*
X108085714Y-76736247D02*
X108085714Y-76355295D01*
X108085714Y-76355295D02*
X108038095Y-76260057D01*
X108038095Y-76260057D02*
X107990476Y-76212438D01*
X107990476Y-76212438D02*
X107895238Y-76164819D01*
X107895238Y-76164819D02*
X107704762Y-76164819D01*
X107704762Y-76164819D02*
X107609524Y-76212438D01*
X107609524Y-76212438D02*
X107561905Y-76260057D01*
X107561905Y-76260057D02*
X107514286Y-76355295D01*
X107514286Y-76355295D02*
X107514286Y-76593390D01*
X107514286Y-76593390D02*
X107561905Y-76688628D01*
X107561905Y-76688628D02*
X107609524Y-76736247D01*
X107609524Y-76736247D02*
X107704762Y-76783866D01*
X107704762Y-76783866D02*
X107895238Y-76783866D01*
X107895238Y-76783866D02*
X107990476Y-76736247D01*
X107990476Y-76736247D02*
X108038095Y-76688628D01*
X108038095Y-76688628D02*
X108085714Y-76593390D01*
X67750476Y-71164819D02*
X68083809Y-72164819D01*
X68083809Y-72164819D02*
X68417142Y-71164819D01*
X68750476Y-72164819D02*
X68750476Y-71164819D01*
X68750476Y-71164819D02*
X68988571Y-71164819D01*
X68988571Y-71164819D02*
X69131428Y-71212438D01*
X69131428Y-71212438D02*
X69226666Y-71307676D01*
X69226666Y-71307676D02*
X69274285Y-71402914D01*
X69274285Y-71402914D02*
X69321904Y-71593390D01*
X69321904Y-71593390D02*
X69321904Y-71736247D01*
X69321904Y-71736247D02*
X69274285Y-71926723D01*
X69274285Y-71926723D02*
X69226666Y-72021961D01*
X69226666Y-72021961D02*
X69131428Y-72117200D01*
X69131428Y-72117200D02*
X68988571Y-72164819D01*
X68988571Y-72164819D02*
X68750476Y-72164819D01*
X70274285Y-72164819D02*
X69702857Y-72164819D01*
X69988571Y-72164819D02*
X69988571Y-71164819D01*
X69988571Y-71164819D02*
X69893333Y-71307676D01*
X69893333Y-71307676D02*
X69798095Y-71402914D01*
X69798095Y-71402914D02*
X69702857Y-71450533D01*
X43133333Y-74144819D02*
X42657143Y-74144819D01*
X42657143Y-74144819D02*
X42657143Y-73144819D01*
X43371429Y-73144819D02*
X44038095Y-73144819D01*
X44038095Y-73144819D02*
X43609524Y-74144819D01*
X52847142Y-70119580D02*
X52799523Y-70167200D01*
X52799523Y-70167200D02*
X52656666Y-70214819D01*
X52656666Y-70214819D02*
X52561428Y-70214819D01*
X52561428Y-70214819D02*
X52418571Y-70167200D01*
X52418571Y-70167200D02*
X52323333Y-70071961D01*
X52323333Y-70071961D02*
X52275714Y-69976723D01*
X52275714Y-69976723D02*
X52228095Y-69786247D01*
X52228095Y-69786247D02*
X52228095Y-69643390D01*
X52228095Y-69643390D02*
X52275714Y-69452914D01*
X52275714Y-69452914D02*
X52323333Y-69357676D01*
X52323333Y-69357676D02*
X52418571Y-69262438D01*
X52418571Y-69262438D02*
X52561428Y-69214819D01*
X52561428Y-69214819D02*
X52656666Y-69214819D01*
X52656666Y-69214819D02*
X52799523Y-69262438D01*
X52799523Y-69262438D02*
X52847142Y-69310057D01*
X53180476Y-69214819D02*
X53799523Y-69214819D01*
X53799523Y-69214819D02*
X53466190Y-69595771D01*
X53466190Y-69595771D02*
X53609047Y-69595771D01*
X53609047Y-69595771D02*
X53704285Y-69643390D01*
X53704285Y-69643390D02*
X53751904Y-69691009D01*
X53751904Y-69691009D02*
X53799523Y-69786247D01*
X53799523Y-69786247D02*
X53799523Y-70024342D01*
X53799523Y-70024342D02*
X53751904Y-70119580D01*
X53751904Y-70119580D02*
X53704285Y-70167200D01*
X53704285Y-70167200D02*
X53609047Y-70214819D01*
X53609047Y-70214819D02*
X53323333Y-70214819D01*
X53323333Y-70214819D02*
X53228095Y-70167200D01*
X53228095Y-70167200D02*
X53180476Y-70119580D01*
X54751904Y-70214819D02*
X54180476Y-70214819D01*
X54466190Y-70214819D02*
X54466190Y-69214819D01*
X54466190Y-69214819D02*
X54370952Y-69357676D01*
X54370952Y-69357676D02*
X54275714Y-69452914D01*
X54275714Y-69452914D02*
X54180476Y-69500533D01*
X108598333Y-42199580D02*
X108550714Y-42247200D01*
X108550714Y-42247200D02*
X108407857Y-42294819D01*
X108407857Y-42294819D02*
X108312619Y-42294819D01*
X108312619Y-42294819D02*
X108169762Y-42247200D01*
X108169762Y-42247200D02*
X108074524Y-42151961D01*
X108074524Y-42151961D02*
X108026905Y-42056723D01*
X108026905Y-42056723D02*
X107979286Y-41866247D01*
X107979286Y-41866247D02*
X107979286Y-41723390D01*
X107979286Y-41723390D02*
X108026905Y-41532914D01*
X108026905Y-41532914D02*
X108074524Y-41437676D01*
X108074524Y-41437676D02*
X108169762Y-41342438D01*
X108169762Y-41342438D02*
X108312619Y-41294819D01*
X108312619Y-41294819D02*
X108407857Y-41294819D01*
X108407857Y-41294819D02*
X108550714Y-41342438D01*
X108550714Y-41342438D02*
X108598333Y-41390057D01*
X108931667Y-41294819D02*
X109598333Y-41294819D01*
X109598333Y-41294819D02*
X109169762Y-42294819D01*
X57808095Y-70184819D02*
X57808095Y-70994342D01*
X57808095Y-70994342D02*
X57855714Y-71089580D01*
X57855714Y-71089580D02*
X57903333Y-71137200D01*
X57903333Y-71137200D02*
X57998571Y-71184819D01*
X57998571Y-71184819D02*
X58189047Y-71184819D01*
X58189047Y-71184819D02*
X58284285Y-71137200D01*
X58284285Y-71137200D02*
X58331904Y-71089580D01*
X58331904Y-71089580D02*
X58379523Y-70994342D01*
X58379523Y-70994342D02*
X58379523Y-70184819D01*
X58760476Y-70184819D02*
X59379523Y-70184819D01*
X59379523Y-70184819D02*
X59046190Y-70565771D01*
X59046190Y-70565771D02*
X59189047Y-70565771D01*
X59189047Y-70565771D02*
X59284285Y-70613390D01*
X59284285Y-70613390D02*
X59331904Y-70661009D01*
X59331904Y-70661009D02*
X59379523Y-70756247D01*
X59379523Y-70756247D02*
X59379523Y-70994342D01*
X59379523Y-70994342D02*
X59331904Y-71089580D01*
X59331904Y-71089580D02*
X59284285Y-71137200D01*
X59284285Y-71137200D02*
X59189047Y-71184819D01*
X59189047Y-71184819D02*
X58903333Y-71184819D01*
X58903333Y-71184819D02*
X58808095Y-71137200D01*
X58808095Y-71137200D02*
X58760476Y-71089580D01*
X94827142Y-68019579D02*
X94779523Y-68067199D01*
X94779523Y-68067199D02*
X94636666Y-68114818D01*
X94636666Y-68114818D02*
X94541428Y-68114818D01*
X94541428Y-68114818D02*
X94398571Y-68067199D01*
X94398571Y-68067199D02*
X94303333Y-67971960D01*
X94303333Y-67971960D02*
X94255714Y-67876722D01*
X94255714Y-67876722D02*
X94208095Y-67686246D01*
X94208095Y-67686246D02*
X94208095Y-67543389D01*
X94208095Y-67543389D02*
X94255714Y-67352913D01*
X94255714Y-67352913D02*
X94303333Y-67257675D01*
X94303333Y-67257675D02*
X94398571Y-67162437D01*
X94398571Y-67162437D02*
X94541428Y-67114818D01*
X94541428Y-67114818D02*
X94636666Y-67114818D01*
X94636666Y-67114818D02*
X94779523Y-67162437D01*
X94779523Y-67162437D02*
X94827142Y-67210056D01*
X95160476Y-67114818D02*
X95779523Y-67114818D01*
X95779523Y-67114818D02*
X95446190Y-67495770D01*
X95446190Y-67495770D02*
X95589047Y-67495770D01*
X95589047Y-67495770D02*
X95684285Y-67543389D01*
X95684285Y-67543389D02*
X95731904Y-67591008D01*
X95731904Y-67591008D02*
X95779523Y-67686246D01*
X95779523Y-67686246D02*
X95779523Y-67924341D01*
X95779523Y-67924341D02*
X95731904Y-68019579D01*
X95731904Y-68019579D02*
X95684285Y-68067199D01*
X95684285Y-68067199D02*
X95589047Y-68114818D01*
X95589047Y-68114818D02*
X95303333Y-68114818D01*
X95303333Y-68114818D02*
X95208095Y-68067199D01*
X95208095Y-68067199D02*
X95160476Y-68019579D01*
X96160476Y-67210056D02*
X96208095Y-67162437D01*
X96208095Y-67162437D02*
X96303333Y-67114818D01*
X96303333Y-67114818D02*
X96541428Y-67114818D01*
X96541428Y-67114818D02*
X96636666Y-67162437D01*
X96636666Y-67162437D02*
X96684285Y-67210056D01*
X96684285Y-67210056D02*
X96731904Y-67305294D01*
X96731904Y-67305294D02*
X96731904Y-67400532D01*
X96731904Y-67400532D02*
X96684285Y-67543389D01*
X96684285Y-67543389D02*
X96112857Y-68114818D01*
X96112857Y-68114818D02*
X96731904Y-68114818D01*
X57707142Y-69524819D02*
X57373809Y-69048628D01*
X57135714Y-69524819D02*
X57135714Y-68524819D01*
X57135714Y-68524819D02*
X57516666Y-68524819D01*
X57516666Y-68524819D02*
X57611904Y-68572438D01*
X57611904Y-68572438D02*
X57659523Y-68620057D01*
X57659523Y-68620057D02*
X57707142Y-68715295D01*
X57707142Y-68715295D02*
X57707142Y-68858152D01*
X57707142Y-68858152D02*
X57659523Y-68953390D01*
X57659523Y-68953390D02*
X57611904Y-69001009D01*
X57611904Y-69001009D02*
X57516666Y-69048628D01*
X57516666Y-69048628D02*
X57135714Y-69048628D01*
X58659523Y-69524819D02*
X58088095Y-69524819D01*
X58373809Y-69524819D02*
X58373809Y-68524819D01*
X58373809Y-68524819D02*
X58278571Y-68667676D01*
X58278571Y-68667676D02*
X58183333Y-68762914D01*
X58183333Y-68762914D02*
X58088095Y-68810533D01*
X59135714Y-69524819D02*
X59326190Y-69524819D01*
X59326190Y-69524819D02*
X59421428Y-69477200D01*
X59421428Y-69477200D02*
X59469047Y-69429580D01*
X59469047Y-69429580D02*
X59564285Y-69286723D01*
X59564285Y-69286723D02*
X59611904Y-69096247D01*
X59611904Y-69096247D02*
X59611904Y-68715295D01*
X59611904Y-68715295D02*
X59564285Y-68620057D01*
X59564285Y-68620057D02*
X59516666Y-68572438D01*
X59516666Y-68572438D02*
X59421428Y-68524819D01*
X59421428Y-68524819D02*
X59230952Y-68524819D01*
X59230952Y-68524819D02*
X59135714Y-68572438D01*
X59135714Y-68572438D02*
X59088095Y-68620057D01*
X59088095Y-68620057D02*
X59040476Y-68715295D01*
X59040476Y-68715295D02*
X59040476Y-68953390D01*
X59040476Y-68953390D02*
X59088095Y-69048628D01*
X59088095Y-69048628D02*
X59135714Y-69096247D01*
X59135714Y-69096247D02*
X59230952Y-69143866D01*
X59230952Y-69143866D02*
X59421428Y-69143866D01*
X59421428Y-69143866D02*
X59516666Y-69096247D01*
X59516666Y-69096247D02*
X59564285Y-69048628D01*
X59564285Y-69048628D02*
X59611904Y-68953390D01*
X68957142Y-43419580D02*
X68909523Y-43467200D01*
X68909523Y-43467200D02*
X68766666Y-43514819D01*
X68766666Y-43514819D02*
X68671428Y-43514819D01*
X68671428Y-43514819D02*
X68528571Y-43467200D01*
X68528571Y-43467200D02*
X68433333Y-43371961D01*
X68433333Y-43371961D02*
X68385714Y-43276723D01*
X68385714Y-43276723D02*
X68338095Y-43086247D01*
X68338095Y-43086247D02*
X68338095Y-42943390D01*
X68338095Y-42943390D02*
X68385714Y-42752914D01*
X68385714Y-42752914D02*
X68433333Y-42657676D01*
X68433333Y-42657676D02*
X68528571Y-42562438D01*
X68528571Y-42562438D02*
X68671428Y-42514819D01*
X68671428Y-42514819D02*
X68766666Y-42514819D01*
X68766666Y-42514819D02*
X68909523Y-42562438D01*
X68909523Y-42562438D02*
X68957142Y-42610057D01*
X69909523Y-43514819D02*
X69338095Y-43514819D01*
X69623809Y-43514819D02*
X69623809Y-42514819D01*
X69623809Y-42514819D02*
X69528571Y-42657676D01*
X69528571Y-42657676D02*
X69433333Y-42752914D01*
X69433333Y-42752914D02*
X69338095Y-42800533D01*
X70385714Y-43514819D02*
X70576190Y-43514819D01*
X70576190Y-43514819D02*
X70671428Y-43467200D01*
X70671428Y-43467200D02*
X70719047Y-43419580D01*
X70719047Y-43419580D02*
X70814285Y-43276723D01*
X70814285Y-43276723D02*
X70861904Y-43086247D01*
X70861904Y-43086247D02*
X70861904Y-42705295D01*
X70861904Y-42705295D02*
X70814285Y-42610057D01*
X70814285Y-42610057D02*
X70766666Y-42562438D01*
X70766666Y-42562438D02*
X70671428Y-42514819D01*
X70671428Y-42514819D02*
X70480952Y-42514819D01*
X70480952Y-42514819D02*
X70385714Y-42562438D01*
X70385714Y-42562438D02*
X70338095Y-42610057D01*
X70338095Y-42610057D02*
X70290476Y-42705295D01*
X70290476Y-42705295D02*
X70290476Y-42943390D01*
X70290476Y-42943390D02*
X70338095Y-43038628D01*
X70338095Y-43038628D02*
X70385714Y-43086247D01*
X70385714Y-43086247D02*
X70480952Y-43133866D01*
X70480952Y-43133866D02*
X70671428Y-43133866D01*
X70671428Y-43133866D02*
X70766666Y-43086247D01*
X70766666Y-43086247D02*
X70814285Y-43038628D01*
X70814285Y-43038628D02*
X70861904Y-42943390D01*
X70811905Y-75814819D02*
X70811905Y-76624342D01*
X70811905Y-76624342D02*
X70859524Y-76719580D01*
X70859524Y-76719580D02*
X70907143Y-76767200D01*
X70907143Y-76767200D02*
X71002381Y-76814819D01*
X71002381Y-76814819D02*
X71192857Y-76814819D01*
X71192857Y-76814819D02*
X71288095Y-76767200D01*
X71288095Y-76767200D02*
X71335714Y-76719580D01*
X71335714Y-76719580D02*
X71383333Y-76624342D01*
X71383333Y-76624342D02*
X71383333Y-75814819D01*
X72383333Y-76814819D02*
X71811905Y-76814819D01*
X72097619Y-76814819D02*
X72097619Y-75814819D01*
X72097619Y-75814819D02*
X72002381Y-75957676D01*
X72002381Y-75957676D02*
X71907143Y-76052914D01*
X71907143Y-76052914D02*
X71811905Y-76100533D01*
X73335714Y-76814819D02*
X72764286Y-76814819D01*
X73050000Y-76814819D02*
X73050000Y-75814819D01*
X73050000Y-75814819D02*
X72954762Y-75957676D01*
X72954762Y-75957676D02*
X72859524Y-76052914D01*
X72859524Y-76052914D02*
X72764286Y-76100533D01*
X90367142Y-77349580D02*
X90319523Y-77397200D01*
X90319523Y-77397200D02*
X90176666Y-77444819D01*
X90176666Y-77444819D02*
X90081428Y-77444819D01*
X90081428Y-77444819D02*
X89938571Y-77397200D01*
X89938571Y-77397200D02*
X89843333Y-77301961D01*
X89843333Y-77301961D02*
X89795714Y-77206723D01*
X89795714Y-77206723D02*
X89748095Y-77016247D01*
X89748095Y-77016247D02*
X89748095Y-76873390D01*
X89748095Y-76873390D02*
X89795714Y-76682914D01*
X89795714Y-76682914D02*
X89843333Y-76587676D01*
X89843333Y-76587676D02*
X89938571Y-76492438D01*
X89938571Y-76492438D02*
X90081428Y-76444819D01*
X90081428Y-76444819D02*
X90176666Y-76444819D01*
X90176666Y-76444819D02*
X90319523Y-76492438D01*
X90319523Y-76492438D02*
X90367142Y-76540057D01*
X90748095Y-76540057D02*
X90795714Y-76492438D01*
X90795714Y-76492438D02*
X90890952Y-76444819D01*
X90890952Y-76444819D02*
X91129047Y-76444819D01*
X91129047Y-76444819D02*
X91224285Y-76492438D01*
X91224285Y-76492438D02*
X91271904Y-76540057D01*
X91271904Y-76540057D02*
X91319523Y-76635295D01*
X91319523Y-76635295D02*
X91319523Y-76730533D01*
X91319523Y-76730533D02*
X91271904Y-76873390D01*
X91271904Y-76873390D02*
X90700476Y-77444819D01*
X90700476Y-77444819D02*
X91319523Y-77444819D01*
X91700476Y-76540057D02*
X91748095Y-76492438D01*
X91748095Y-76492438D02*
X91843333Y-76444819D01*
X91843333Y-76444819D02*
X92081428Y-76444819D01*
X92081428Y-76444819D02*
X92176666Y-76492438D01*
X92176666Y-76492438D02*
X92224285Y-76540057D01*
X92224285Y-76540057D02*
X92271904Y-76635295D01*
X92271904Y-76635295D02*
X92271904Y-76730533D01*
X92271904Y-76730533D02*
X92224285Y-76873390D01*
X92224285Y-76873390D02*
X91652857Y-77444819D01*
X91652857Y-77444819D02*
X92271904Y-77444819D01*
X78589581Y-63122857D02*
X78637201Y-63170476D01*
X78637201Y-63170476D02*
X78684820Y-63313333D01*
X78684820Y-63313333D02*
X78684820Y-63408571D01*
X78684820Y-63408571D02*
X78637201Y-63551428D01*
X78637201Y-63551428D02*
X78541962Y-63646666D01*
X78541962Y-63646666D02*
X78446724Y-63694285D01*
X78446724Y-63694285D02*
X78256248Y-63741904D01*
X78256248Y-63741904D02*
X78113391Y-63741904D01*
X78113391Y-63741904D02*
X77922915Y-63694285D01*
X77922915Y-63694285D02*
X77827677Y-63646666D01*
X77827677Y-63646666D02*
X77732439Y-63551428D01*
X77732439Y-63551428D02*
X77684820Y-63408571D01*
X77684820Y-63408571D02*
X77684820Y-63313333D01*
X77684820Y-63313333D02*
X77732439Y-63170476D01*
X77732439Y-63170476D02*
X77780058Y-63122857D01*
X78684820Y-62170476D02*
X78684820Y-62741904D01*
X78684820Y-62456190D02*
X77684820Y-62456190D01*
X77684820Y-62456190D02*
X77827677Y-62551428D01*
X77827677Y-62551428D02*
X77922915Y-62646666D01*
X77922915Y-62646666D02*
X77970534Y-62741904D01*
X77684820Y-61313333D02*
X77684820Y-61503809D01*
X77684820Y-61503809D02*
X77732439Y-61599047D01*
X77732439Y-61599047D02*
X77780058Y-61646666D01*
X77780058Y-61646666D02*
X77922915Y-61741904D01*
X77922915Y-61741904D02*
X78113391Y-61789523D01*
X78113391Y-61789523D02*
X78494343Y-61789523D01*
X78494343Y-61789523D02*
X78589581Y-61741904D01*
X78589581Y-61741904D02*
X78637201Y-61694285D01*
X78637201Y-61694285D02*
X78684820Y-61599047D01*
X78684820Y-61599047D02*
X78684820Y-61408571D01*
X78684820Y-61408571D02*
X78637201Y-61313333D01*
X78637201Y-61313333D02*
X78589581Y-61265714D01*
X78589581Y-61265714D02*
X78494343Y-61218095D01*
X78494343Y-61218095D02*
X78256248Y-61218095D01*
X78256248Y-61218095D02*
X78161010Y-61265714D01*
X78161010Y-61265714D02*
X78113391Y-61313333D01*
X78113391Y-61313333D02*
X78065772Y-61408571D01*
X78065772Y-61408571D02*
X78065772Y-61599047D01*
X78065772Y-61599047D02*
X78113391Y-61694285D01*
X78113391Y-61694285D02*
X78161010Y-61741904D01*
X78161010Y-61741904D02*
X78256248Y-61789523D01*
X109398333Y-64494819D02*
X109065000Y-64018628D01*
X108826905Y-64494819D02*
X108826905Y-63494819D01*
X108826905Y-63494819D02*
X109207857Y-63494819D01*
X109207857Y-63494819D02*
X109303095Y-63542438D01*
X109303095Y-63542438D02*
X109350714Y-63590057D01*
X109350714Y-63590057D02*
X109398333Y-63685295D01*
X109398333Y-63685295D02*
X109398333Y-63828152D01*
X109398333Y-63828152D02*
X109350714Y-63923390D01*
X109350714Y-63923390D02*
X109303095Y-63971009D01*
X109303095Y-63971009D02*
X109207857Y-64018628D01*
X109207857Y-64018628D02*
X108826905Y-64018628D01*
X109874524Y-64494819D02*
X110065000Y-64494819D01*
X110065000Y-64494819D02*
X110160238Y-64447200D01*
X110160238Y-64447200D02*
X110207857Y-64399580D01*
X110207857Y-64399580D02*
X110303095Y-64256723D01*
X110303095Y-64256723D02*
X110350714Y-64066247D01*
X110350714Y-64066247D02*
X110350714Y-63685295D01*
X110350714Y-63685295D02*
X110303095Y-63590057D01*
X110303095Y-63590057D02*
X110255476Y-63542438D01*
X110255476Y-63542438D02*
X110160238Y-63494819D01*
X110160238Y-63494819D02*
X109969762Y-63494819D01*
X109969762Y-63494819D02*
X109874524Y-63542438D01*
X109874524Y-63542438D02*
X109826905Y-63590057D01*
X109826905Y-63590057D02*
X109779286Y-63685295D01*
X109779286Y-63685295D02*
X109779286Y-63923390D01*
X109779286Y-63923390D02*
X109826905Y-64018628D01*
X109826905Y-64018628D02*
X109874524Y-64066247D01*
X109874524Y-64066247D02*
X109969762Y-64113866D01*
X109969762Y-64113866D02*
X110160238Y-64113866D01*
X110160238Y-64113866D02*
X110255476Y-64066247D01*
X110255476Y-64066247D02*
X110303095Y-64018628D01*
X110303095Y-64018628D02*
X110350714Y-63923390D01*
X93843333Y-50044819D02*
X93510000Y-49568628D01*
X93271905Y-50044819D02*
X93271905Y-49044819D01*
X93271905Y-49044819D02*
X93652857Y-49044819D01*
X93652857Y-49044819D02*
X93748095Y-49092438D01*
X93748095Y-49092438D02*
X93795714Y-49140057D01*
X93795714Y-49140057D02*
X93843333Y-49235295D01*
X93843333Y-49235295D02*
X93843333Y-49378152D01*
X93843333Y-49378152D02*
X93795714Y-49473390D01*
X93795714Y-49473390D02*
X93748095Y-49521009D01*
X93748095Y-49521009D02*
X93652857Y-49568628D01*
X93652857Y-49568628D02*
X93271905Y-49568628D01*
X94795714Y-50044819D02*
X94224286Y-50044819D01*
X94510000Y-50044819D02*
X94510000Y-49044819D01*
X94510000Y-49044819D02*
X94414762Y-49187676D01*
X94414762Y-49187676D02*
X94319524Y-49282914D01*
X94319524Y-49282914D02*
X94224286Y-49330533D01*
X91283333Y-50124819D02*
X90950000Y-49648628D01*
X90711905Y-50124819D02*
X90711905Y-49124819D01*
X90711905Y-49124819D02*
X91092857Y-49124819D01*
X91092857Y-49124819D02*
X91188095Y-49172438D01*
X91188095Y-49172438D02*
X91235714Y-49220057D01*
X91235714Y-49220057D02*
X91283333Y-49315295D01*
X91283333Y-49315295D02*
X91283333Y-49458152D01*
X91283333Y-49458152D02*
X91235714Y-49553390D01*
X91235714Y-49553390D02*
X91188095Y-49601009D01*
X91188095Y-49601009D02*
X91092857Y-49648628D01*
X91092857Y-49648628D02*
X90711905Y-49648628D01*
X92140476Y-49458152D02*
X92140476Y-50124819D01*
X91902381Y-49077200D02*
X91664286Y-49791485D01*
X91664286Y-49791485D02*
X92283333Y-49791485D01*
X36006666Y-62364819D02*
X36006666Y-63079104D01*
X36006666Y-63079104D02*
X35959047Y-63221961D01*
X35959047Y-63221961D02*
X35863809Y-63317200D01*
X35863809Y-63317200D02*
X35720952Y-63364819D01*
X35720952Y-63364819D02*
X35625714Y-63364819D01*
X36387619Y-62364819D02*
X37006666Y-62364819D01*
X37006666Y-62364819D02*
X36673333Y-62745771D01*
X36673333Y-62745771D02*
X36816190Y-62745771D01*
X36816190Y-62745771D02*
X36911428Y-62793390D01*
X36911428Y-62793390D02*
X36959047Y-62841009D01*
X36959047Y-62841009D02*
X37006666Y-62936247D01*
X37006666Y-62936247D02*
X37006666Y-63174342D01*
X37006666Y-63174342D02*
X36959047Y-63269580D01*
X36959047Y-63269580D02*
X36911428Y-63317200D01*
X36911428Y-63317200D02*
X36816190Y-63364819D01*
X36816190Y-63364819D02*
X36530476Y-63364819D01*
X36530476Y-63364819D02*
X36435238Y-63317200D01*
X36435238Y-63317200D02*
X36387619Y-63269580D01*
X96733333Y-55294819D02*
X96400000Y-54818628D01*
X96161905Y-55294819D02*
X96161905Y-54294819D01*
X96161905Y-54294819D02*
X96542857Y-54294819D01*
X96542857Y-54294819D02*
X96638095Y-54342438D01*
X96638095Y-54342438D02*
X96685714Y-54390057D01*
X96685714Y-54390057D02*
X96733333Y-54485295D01*
X96733333Y-54485295D02*
X96733333Y-54628152D01*
X96733333Y-54628152D02*
X96685714Y-54723390D01*
X96685714Y-54723390D02*
X96638095Y-54771009D01*
X96638095Y-54771009D02*
X96542857Y-54818628D01*
X96542857Y-54818628D02*
X96161905Y-54818628D01*
X97114286Y-54390057D02*
X97161905Y-54342438D01*
X97161905Y-54342438D02*
X97257143Y-54294819D01*
X97257143Y-54294819D02*
X97495238Y-54294819D01*
X97495238Y-54294819D02*
X97590476Y-54342438D01*
X97590476Y-54342438D02*
X97638095Y-54390057D01*
X97638095Y-54390057D02*
X97685714Y-54485295D01*
X97685714Y-54485295D02*
X97685714Y-54580533D01*
X97685714Y-54580533D02*
X97638095Y-54723390D01*
X97638095Y-54723390D02*
X97066667Y-55294819D01*
X97066667Y-55294819D02*
X97685714Y-55294819D01*
X100730476Y-75874819D02*
X100730476Y-76589104D01*
X100730476Y-76589104D02*
X100682857Y-76731961D01*
X100682857Y-76731961D02*
X100587619Y-76827200D01*
X100587619Y-76827200D02*
X100444762Y-76874819D01*
X100444762Y-76874819D02*
X100349524Y-76874819D01*
X101730476Y-76874819D02*
X101159048Y-76874819D01*
X101444762Y-76874819D02*
X101444762Y-75874819D01*
X101444762Y-75874819D02*
X101349524Y-76017676D01*
X101349524Y-76017676D02*
X101254286Y-76112914D01*
X101254286Y-76112914D02*
X101159048Y-76160533D01*
X102063810Y-75874819D02*
X102730476Y-75874819D01*
X102730476Y-75874819D02*
X102301905Y-76874819D01*
X102048333Y-38899580D02*
X102000714Y-38947200D01*
X102000714Y-38947200D02*
X101857857Y-38994819D01*
X101857857Y-38994819D02*
X101762619Y-38994819D01*
X101762619Y-38994819D02*
X101619762Y-38947200D01*
X101619762Y-38947200D02*
X101524524Y-38851961D01*
X101524524Y-38851961D02*
X101476905Y-38756723D01*
X101476905Y-38756723D02*
X101429286Y-38566247D01*
X101429286Y-38566247D02*
X101429286Y-38423390D01*
X101429286Y-38423390D02*
X101476905Y-38232914D01*
X101476905Y-38232914D02*
X101524524Y-38137676D01*
X101524524Y-38137676D02*
X101619762Y-38042438D01*
X101619762Y-38042438D02*
X101762619Y-37994819D01*
X101762619Y-37994819D02*
X101857857Y-37994819D01*
X101857857Y-37994819D02*
X102000714Y-38042438D01*
X102000714Y-38042438D02*
X102048333Y-38090057D01*
X102953095Y-37994819D02*
X102476905Y-37994819D01*
X102476905Y-37994819D02*
X102429286Y-38471009D01*
X102429286Y-38471009D02*
X102476905Y-38423390D01*
X102476905Y-38423390D02*
X102572143Y-38375771D01*
X102572143Y-38375771D02*
X102810238Y-38375771D01*
X102810238Y-38375771D02*
X102905476Y-38423390D01*
X102905476Y-38423390D02*
X102953095Y-38471009D01*
X102953095Y-38471009D02*
X103000714Y-38566247D01*
X103000714Y-38566247D02*
X103000714Y-38804342D01*
X103000714Y-38804342D02*
X102953095Y-38899580D01*
X102953095Y-38899580D02*
X102905476Y-38947200D01*
X102905476Y-38947200D02*
X102810238Y-38994819D01*
X102810238Y-38994819D02*
X102572143Y-38994819D01*
X102572143Y-38994819D02*
X102476905Y-38947200D01*
X102476905Y-38947200D02*
X102429286Y-38899580D01*
X82510476Y-34834819D02*
X82510476Y-35549104D01*
X82510476Y-35549104D02*
X82462857Y-35691961D01*
X82462857Y-35691961D02*
X82367619Y-35787200D01*
X82367619Y-35787200D02*
X82224762Y-35834819D01*
X82224762Y-35834819D02*
X82129524Y-35834819D01*
X83510476Y-35834819D02*
X82939048Y-35834819D01*
X83224762Y-35834819D02*
X83224762Y-34834819D01*
X83224762Y-34834819D02*
X83129524Y-34977676D01*
X83129524Y-34977676D02*
X83034286Y-35072914D01*
X83034286Y-35072914D02*
X82939048Y-35120533D01*
X83891429Y-34930057D02*
X83939048Y-34882438D01*
X83939048Y-34882438D02*
X84034286Y-34834819D01*
X84034286Y-34834819D02*
X84272381Y-34834819D01*
X84272381Y-34834819D02*
X84367619Y-34882438D01*
X84367619Y-34882438D02*
X84415238Y-34930057D01*
X84415238Y-34930057D02*
X84462857Y-35025295D01*
X84462857Y-35025295D02*
X84462857Y-35120533D01*
X84462857Y-35120533D02*
X84415238Y-35263390D01*
X84415238Y-35263390D02*
X83843810Y-35834819D01*
X83843810Y-35834819D02*
X84462857Y-35834819D01*
X88706666Y-44754819D02*
X88706666Y-45469104D01*
X88706666Y-45469104D02*
X88659047Y-45611961D01*
X88659047Y-45611961D02*
X88563809Y-45707200D01*
X88563809Y-45707200D02*
X88420952Y-45754819D01*
X88420952Y-45754819D02*
X88325714Y-45754819D01*
X89087619Y-44754819D02*
X89754285Y-44754819D01*
X89754285Y-44754819D02*
X89325714Y-45754819D01*
X95654819Y-71402857D02*
X95178628Y-71736190D01*
X95654819Y-71974285D02*
X94654819Y-71974285D01*
X94654819Y-71974285D02*
X94654819Y-71593333D01*
X94654819Y-71593333D02*
X94702438Y-71498095D01*
X94702438Y-71498095D02*
X94750057Y-71450476D01*
X94750057Y-71450476D02*
X94845295Y-71402857D01*
X94845295Y-71402857D02*
X94988152Y-71402857D01*
X94988152Y-71402857D02*
X95083390Y-71450476D01*
X95083390Y-71450476D02*
X95131009Y-71498095D01*
X95131009Y-71498095D02*
X95178628Y-71593333D01*
X95178628Y-71593333D02*
X95178628Y-71974285D01*
X95654819Y-70450476D02*
X95654819Y-71021904D01*
X95654819Y-70736190D02*
X94654819Y-70736190D01*
X94654819Y-70736190D02*
X94797676Y-70831428D01*
X94797676Y-70831428D02*
X94892914Y-70926666D01*
X94892914Y-70926666D02*
X94940533Y-71021904D01*
X95083390Y-69879047D02*
X95035771Y-69974285D01*
X95035771Y-69974285D02*
X94988152Y-70021904D01*
X94988152Y-70021904D02*
X94892914Y-70069523D01*
X94892914Y-70069523D02*
X94845295Y-70069523D01*
X94845295Y-70069523D02*
X94750057Y-70021904D01*
X94750057Y-70021904D02*
X94702438Y-69974285D01*
X94702438Y-69974285D02*
X94654819Y-69879047D01*
X94654819Y-69879047D02*
X94654819Y-69688571D01*
X94654819Y-69688571D02*
X94702438Y-69593333D01*
X94702438Y-69593333D02*
X94750057Y-69545714D01*
X94750057Y-69545714D02*
X94845295Y-69498095D01*
X94845295Y-69498095D02*
X94892914Y-69498095D01*
X94892914Y-69498095D02*
X94988152Y-69545714D01*
X94988152Y-69545714D02*
X95035771Y-69593333D01*
X95035771Y-69593333D02*
X95083390Y-69688571D01*
X95083390Y-69688571D02*
X95083390Y-69879047D01*
X95083390Y-69879047D02*
X95131009Y-69974285D01*
X95131009Y-69974285D02*
X95178628Y-70021904D01*
X95178628Y-70021904D02*
X95273866Y-70069523D01*
X95273866Y-70069523D02*
X95464342Y-70069523D01*
X95464342Y-70069523D02*
X95559580Y-70021904D01*
X95559580Y-70021904D02*
X95607200Y-69974285D01*
X95607200Y-69974285D02*
X95654819Y-69879047D01*
X95654819Y-69879047D02*
X95654819Y-69688571D01*
X95654819Y-69688571D02*
X95607200Y-69593333D01*
X95607200Y-69593333D02*
X95559580Y-69545714D01*
X95559580Y-69545714D02*
X95464342Y-69498095D01*
X95464342Y-69498095D02*
X95273866Y-69498095D01*
X95273866Y-69498095D02*
X95178628Y-69545714D01*
X95178628Y-69545714D02*
X95131009Y-69593333D01*
X95131009Y-69593333D02*
X95083390Y-69688571D01*
X100122142Y-69499580D02*
X100074523Y-69547200D01*
X100074523Y-69547200D02*
X99931666Y-69594819D01*
X99931666Y-69594819D02*
X99836428Y-69594819D01*
X99836428Y-69594819D02*
X99693571Y-69547200D01*
X99693571Y-69547200D02*
X99598333Y-69451961D01*
X99598333Y-69451961D02*
X99550714Y-69356723D01*
X99550714Y-69356723D02*
X99503095Y-69166247D01*
X99503095Y-69166247D02*
X99503095Y-69023390D01*
X99503095Y-69023390D02*
X99550714Y-68832914D01*
X99550714Y-68832914D02*
X99598333Y-68737676D01*
X99598333Y-68737676D02*
X99693571Y-68642438D01*
X99693571Y-68642438D02*
X99836428Y-68594819D01*
X99836428Y-68594819D02*
X99931666Y-68594819D01*
X99931666Y-68594819D02*
X100074523Y-68642438D01*
X100074523Y-68642438D02*
X100122142Y-68690057D01*
X101074523Y-69594819D02*
X100503095Y-69594819D01*
X100788809Y-69594819D02*
X100788809Y-68594819D01*
X100788809Y-68594819D02*
X100693571Y-68737676D01*
X100693571Y-68737676D02*
X100598333Y-68832914D01*
X100598333Y-68832914D02*
X100503095Y-68880533D01*
X102026904Y-69594819D02*
X101455476Y-69594819D01*
X101741190Y-69594819D02*
X101741190Y-68594819D01*
X101741190Y-68594819D02*
X101645952Y-68737676D01*
X101645952Y-68737676D02*
X101550714Y-68832914D01*
X101550714Y-68832914D02*
X101455476Y-68880533D01*
X90523333Y-69354819D02*
X90047143Y-69354819D01*
X90047143Y-69354819D02*
X90047143Y-68354819D01*
X90999524Y-68783390D02*
X90904286Y-68735771D01*
X90904286Y-68735771D02*
X90856667Y-68688152D01*
X90856667Y-68688152D02*
X90809048Y-68592914D01*
X90809048Y-68592914D02*
X90809048Y-68545295D01*
X90809048Y-68545295D02*
X90856667Y-68450057D01*
X90856667Y-68450057D02*
X90904286Y-68402438D01*
X90904286Y-68402438D02*
X90999524Y-68354819D01*
X90999524Y-68354819D02*
X91190000Y-68354819D01*
X91190000Y-68354819D02*
X91285238Y-68402438D01*
X91285238Y-68402438D02*
X91332857Y-68450057D01*
X91332857Y-68450057D02*
X91380476Y-68545295D01*
X91380476Y-68545295D02*
X91380476Y-68592914D01*
X91380476Y-68592914D02*
X91332857Y-68688152D01*
X91332857Y-68688152D02*
X91285238Y-68735771D01*
X91285238Y-68735771D02*
X91190000Y-68783390D01*
X91190000Y-68783390D02*
X90999524Y-68783390D01*
X90999524Y-68783390D02*
X90904286Y-68831009D01*
X90904286Y-68831009D02*
X90856667Y-68878628D01*
X90856667Y-68878628D02*
X90809048Y-68973866D01*
X90809048Y-68973866D02*
X90809048Y-69164342D01*
X90809048Y-69164342D02*
X90856667Y-69259580D01*
X90856667Y-69259580D02*
X90904286Y-69307200D01*
X90904286Y-69307200D02*
X90999524Y-69354819D01*
X90999524Y-69354819D02*
X91190000Y-69354819D01*
X91190000Y-69354819D02*
X91285238Y-69307200D01*
X91285238Y-69307200D02*
X91332857Y-69259580D01*
X91332857Y-69259580D02*
X91380476Y-69164342D01*
X91380476Y-69164342D02*
X91380476Y-68973866D01*
X91380476Y-68973866D02*
X91332857Y-68878628D01*
X91332857Y-68878628D02*
X91285238Y-68831009D01*
X91285238Y-68831009D02*
X91190000Y-68783390D01*
X84927142Y-43434819D02*
X84593809Y-42958628D01*
X84355714Y-43434819D02*
X84355714Y-42434819D01*
X84355714Y-42434819D02*
X84736666Y-42434819D01*
X84736666Y-42434819D02*
X84831904Y-42482438D01*
X84831904Y-42482438D02*
X84879523Y-42530057D01*
X84879523Y-42530057D02*
X84927142Y-42625295D01*
X84927142Y-42625295D02*
X84927142Y-42768152D01*
X84927142Y-42768152D02*
X84879523Y-42863390D01*
X84879523Y-42863390D02*
X84831904Y-42911009D01*
X84831904Y-42911009D02*
X84736666Y-42958628D01*
X84736666Y-42958628D02*
X84355714Y-42958628D01*
X85784285Y-42768152D02*
X85784285Y-43434819D01*
X85546190Y-42387200D02*
X85308095Y-43101485D01*
X85308095Y-43101485D02*
X85927142Y-43101485D01*
X86212857Y-42434819D02*
X86831904Y-42434819D01*
X86831904Y-42434819D02*
X86498571Y-42815771D01*
X86498571Y-42815771D02*
X86641428Y-42815771D01*
X86641428Y-42815771D02*
X86736666Y-42863390D01*
X86736666Y-42863390D02*
X86784285Y-42911009D01*
X86784285Y-42911009D02*
X86831904Y-43006247D01*
X86831904Y-43006247D02*
X86831904Y-43244342D01*
X86831904Y-43244342D02*
X86784285Y-43339580D01*
X86784285Y-43339580D02*
X86736666Y-43387200D01*
X86736666Y-43387200D02*
X86641428Y-43434819D01*
X86641428Y-43434819D02*
X86355714Y-43434819D01*
X86355714Y-43434819D02*
X86260476Y-43387200D01*
X86260476Y-43387200D02*
X86212857Y-43339580D01*
X98922142Y-59494819D02*
X98588809Y-59018628D01*
X98350714Y-59494819D02*
X98350714Y-58494819D01*
X98350714Y-58494819D02*
X98731666Y-58494819D01*
X98731666Y-58494819D02*
X98826904Y-58542438D01*
X98826904Y-58542438D02*
X98874523Y-58590057D01*
X98874523Y-58590057D02*
X98922142Y-58685295D01*
X98922142Y-58685295D02*
X98922142Y-58828152D01*
X98922142Y-58828152D02*
X98874523Y-58923390D01*
X98874523Y-58923390D02*
X98826904Y-58971009D01*
X98826904Y-58971009D02*
X98731666Y-59018628D01*
X98731666Y-59018628D02*
X98350714Y-59018628D01*
X99874523Y-59494819D02*
X99303095Y-59494819D01*
X99588809Y-59494819D02*
X99588809Y-58494819D01*
X99588809Y-58494819D02*
X99493571Y-58637676D01*
X99493571Y-58637676D02*
X99398333Y-58732914D01*
X99398333Y-58732914D02*
X99303095Y-58780533D01*
X100255476Y-58590057D02*
X100303095Y-58542438D01*
X100303095Y-58542438D02*
X100398333Y-58494819D01*
X100398333Y-58494819D02*
X100636428Y-58494819D01*
X100636428Y-58494819D02*
X100731666Y-58542438D01*
X100731666Y-58542438D02*
X100779285Y-58590057D01*
X100779285Y-58590057D02*
X100826904Y-58685295D01*
X100826904Y-58685295D02*
X100826904Y-58780533D01*
X100826904Y-58780533D02*
X100779285Y-58923390D01*
X100779285Y-58923390D02*
X100207857Y-59494819D01*
X100207857Y-59494819D02*
X100826904Y-59494819D01*
X52657142Y-68124819D02*
X52323809Y-67648628D01*
X52085714Y-68124819D02*
X52085714Y-67124819D01*
X52085714Y-67124819D02*
X52466666Y-67124819D01*
X52466666Y-67124819D02*
X52561904Y-67172438D01*
X52561904Y-67172438D02*
X52609523Y-67220057D01*
X52609523Y-67220057D02*
X52657142Y-67315295D01*
X52657142Y-67315295D02*
X52657142Y-67458152D01*
X52657142Y-67458152D02*
X52609523Y-67553390D01*
X52609523Y-67553390D02*
X52561904Y-67601009D01*
X52561904Y-67601009D02*
X52466666Y-67648628D01*
X52466666Y-67648628D02*
X52085714Y-67648628D01*
X53514285Y-67458152D02*
X53514285Y-68124819D01*
X53276190Y-67077200D02*
X53038095Y-67791485D01*
X53038095Y-67791485D02*
X53657142Y-67791485D01*
X54561904Y-68124819D02*
X53990476Y-68124819D01*
X54276190Y-68124819D02*
X54276190Y-67124819D01*
X54276190Y-67124819D02*
X54180952Y-67267676D01*
X54180952Y-67267676D02*
X54085714Y-67362914D01*
X54085714Y-67362914D02*
X53990476Y-67410533D01*
X80447142Y-56274819D02*
X80113809Y-55798628D01*
X79875714Y-56274819D02*
X79875714Y-55274819D01*
X79875714Y-55274819D02*
X80256666Y-55274819D01*
X80256666Y-55274819D02*
X80351904Y-55322438D01*
X80351904Y-55322438D02*
X80399523Y-55370057D01*
X80399523Y-55370057D02*
X80447142Y-55465295D01*
X80447142Y-55465295D02*
X80447142Y-55608152D01*
X80447142Y-55608152D02*
X80399523Y-55703390D01*
X80399523Y-55703390D02*
X80351904Y-55751009D01*
X80351904Y-55751009D02*
X80256666Y-55798628D01*
X80256666Y-55798628D02*
X79875714Y-55798628D01*
X81399523Y-56274819D02*
X80828095Y-56274819D01*
X81113809Y-56274819D02*
X81113809Y-55274819D01*
X81113809Y-55274819D02*
X81018571Y-55417676D01*
X81018571Y-55417676D02*
X80923333Y-55512914D01*
X80923333Y-55512914D02*
X80828095Y-55560533D01*
X82256666Y-55274819D02*
X82066190Y-55274819D01*
X82066190Y-55274819D02*
X81970952Y-55322438D01*
X81970952Y-55322438D02*
X81923333Y-55370057D01*
X81923333Y-55370057D02*
X81828095Y-55512914D01*
X81828095Y-55512914D02*
X81780476Y-55703390D01*
X81780476Y-55703390D02*
X81780476Y-56084342D01*
X81780476Y-56084342D02*
X81828095Y-56179580D01*
X81828095Y-56179580D02*
X81875714Y-56227200D01*
X81875714Y-56227200D02*
X81970952Y-56274819D01*
X81970952Y-56274819D02*
X82161428Y-56274819D01*
X82161428Y-56274819D02*
X82256666Y-56227200D01*
X82256666Y-56227200D02*
X82304285Y-56179580D01*
X82304285Y-56179580D02*
X82351904Y-56084342D01*
X82351904Y-56084342D02*
X82351904Y-55846247D01*
X82351904Y-55846247D02*
X82304285Y-55751009D01*
X82304285Y-55751009D02*
X82256666Y-55703390D01*
X82256666Y-55703390D02*
X82161428Y-55655771D01*
X82161428Y-55655771D02*
X81970952Y-55655771D01*
X81970952Y-55655771D02*
X81875714Y-55703390D01*
X81875714Y-55703390D02*
X81828095Y-55751009D01*
X81828095Y-55751009D02*
X81780476Y-55846247D01*
X50539580Y-75882857D02*
X50587200Y-75930476D01*
X50587200Y-75930476D02*
X50634819Y-76073333D01*
X50634819Y-76073333D02*
X50634819Y-76168571D01*
X50634819Y-76168571D02*
X50587200Y-76311428D01*
X50587200Y-76311428D02*
X50491961Y-76406666D01*
X50491961Y-76406666D02*
X50396723Y-76454285D01*
X50396723Y-76454285D02*
X50206247Y-76501904D01*
X50206247Y-76501904D02*
X50063390Y-76501904D01*
X50063390Y-76501904D02*
X49872914Y-76454285D01*
X49872914Y-76454285D02*
X49777676Y-76406666D01*
X49777676Y-76406666D02*
X49682438Y-76311428D01*
X49682438Y-76311428D02*
X49634819Y-76168571D01*
X49634819Y-76168571D02*
X49634819Y-76073333D01*
X49634819Y-76073333D02*
X49682438Y-75930476D01*
X49682438Y-75930476D02*
X49730057Y-75882857D01*
X49730057Y-75501904D02*
X49682438Y-75454285D01*
X49682438Y-75454285D02*
X49634819Y-75359047D01*
X49634819Y-75359047D02*
X49634819Y-75120952D01*
X49634819Y-75120952D02*
X49682438Y-75025714D01*
X49682438Y-75025714D02*
X49730057Y-74978095D01*
X49730057Y-74978095D02*
X49825295Y-74930476D01*
X49825295Y-74930476D02*
X49920533Y-74930476D01*
X49920533Y-74930476D02*
X50063390Y-74978095D01*
X50063390Y-74978095D02*
X50634819Y-75549523D01*
X50634819Y-75549523D02*
X50634819Y-74930476D01*
X50063390Y-74359047D02*
X50015771Y-74454285D01*
X50015771Y-74454285D02*
X49968152Y-74501904D01*
X49968152Y-74501904D02*
X49872914Y-74549523D01*
X49872914Y-74549523D02*
X49825295Y-74549523D01*
X49825295Y-74549523D02*
X49730057Y-74501904D01*
X49730057Y-74501904D02*
X49682438Y-74454285D01*
X49682438Y-74454285D02*
X49634819Y-74359047D01*
X49634819Y-74359047D02*
X49634819Y-74168571D01*
X49634819Y-74168571D02*
X49682438Y-74073333D01*
X49682438Y-74073333D02*
X49730057Y-74025714D01*
X49730057Y-74025714D02*
X49825295Y-73978095D01*
X49825295Y-73978095D02*
X49872914Y-73978095D01*
X49872914Y-73978095D02*
X49968152Y-74025714D01*
X49968152Y-74025714D02*
X50015771Y-74073333D01*
X50015771Y-74073333D02*
X50063390Y-74168571D01*
X50063390Y-74168571D02*
X50063390Y-74359047D01*
X50063390Y-74359047D02*
X50111009Y-74454285D01*
X50111009Y-74454285D02*
X50158628Y-74501904D01*
X50158628Y-74501904D02*
X50253866Y-74549523D01*
X50253866Y-74549523D02*
X50444342Y-74549523D01*
X50444342Y-74549523D02*
X50539580Y-74501904D01*
X50539580Y-74501904D02*
X50587200Y-74454285D01*
X50587200Y-74454285D02*
X50634819Y-74359047D01*
X50634819Y-74359047D02*
X50634819Y-74168571D01*
X50634819Y-74168571D02*
X50587200Y-74073333D01*
X50587200Y-74073333D02*
X50539580Y-74025714D01*
X50539580Y-74025714D02*
X50444342Y-73978095D01*
X50444342Y-73978095D02*
X50253866Y-73978095D01*
X50253866Y-73978095D02*
X50158628Y-74025714D01*
X50158628Y-74025714D02*
X50111009Y-74073333D01*
X50111009Y-74073333D02*
X50063390Y-74168571D01*
X101229727Y-46896666D02*
X100753536Y-47229999D01*
X101229727Y-47468094D02*
X100229727Y-47468094D01*
X100229727Y-47468094D02*
X100229727Y-47087142D01*
X100229727Y-47087142D02*
X100277346Y-46991904D01*
X100277346Y-46991904D02*
X100324965Y-46944285D01*
X100324965Y-46944285D02*
X100420203Y-46896666D01*
X100420203Y-46896666D02*
X100563060Y-46896666D01*
X100563060Y-46896666D02*
X100658298Y-46944285D01*
X100658298Y-46944285D02*
X100705917Y-46991904D01*
X100705917Y-46991904D02*
X100753536Y-47087142D01*
X100753536Y-47087142D02*
X100753536Y-47468094D01*
X100658298Y-46325237D02*
X100610679Y-46420475D01*
X100610679Y-46420475D02*
X100563060Y-46468094D01*
X100563060Y-46468094D02*
X100467822Y-46515713D01*
X100467822Y-46515713D02*
X100420203Y-46515713D01*
X100420203Y-46515713D02*
X100324965Y-46468094D01*
X100324965Y-46468094D02*
X100277346Y-46420475D01*
X100277346Y-46420475D02*
X100229727Y-46325237D01*
X100229727Y-46325237D02*
X100229727Y-46134761D01*
X100229727Y-46134761D02*
X100277346Y-46039523D01*
X100277346Y-46039523D02*
X100324965Y-45991904D01*
X100324965Y-45991904D02*
X100420203Y-45944285D01*
X100420203Y-45944285D02*
X100467822Y-45944285D01*
X100467822Y-45944285D02*
X100563060Y-45991904D01*
X100563060Y-45991904D02*
X100610679Y-46039523D01*
X100610679Y-46039523D02*
X100658298Y-46134761D01*
X100658298Y-46134761D02*
X100658298Y-46325237D01*
X100658298Y-46325237D02*
X100705917Y-46420475D01*
X100705917Y-46420475D02*
X100753536Y-46468094D01*
X100753536Y-46468094D02*
X100848774Y-46515713D01*
X100848774Y-46515713D02*
X101039250Y-46515713D01*
X101039250Y-46515713D02*
X101134488Y-46468094D01*
X101134488Y-46468094D02*
X101182108Y-46420475D01*
X101182108Y-46420475D02*
X101229727Y-46325237D01*
X101229727Y-46325237D02*
X101229727Y-46134761D01*
X101229727Y-46134761D02*
X101182108Y-46039523D01*
X101182108Y-46039523D02*
X101134488Y-45991904D01*
X101134488Y-45991904D02*
X101039250Y-45944285D01*
X101039250Y-45944285D02*
X100848774Y-45944285D01*
X100848774Y-45944285D02*
X100753536Y-45991904D01*
X100753536Y-45991904D02*
X100705917Y-46039523D01*
X100705917Y-46039523D02*
X100658298Y-46134761D01*
X82630476Y-75544819D02*
X82630476Y-76259104D01*
X82630476Y-76259104D02*
X82582857Y-76401961D01*
X82582857Y-76401961D02*
X82487619Y-76497200D01*
X82487619Y-76497200D02*
X82344762Y-76544819D01*
X82344762Y-76544819D02*
X82249524Y-76544819D01*
X83630476Y-76544819D02*
X83059048Y-76544819D01*
X83344762Y-76544819D02*
X83344762Y-75544819D01*
X83344762Y-75544819D02*
X83249524Y-75687676D01*
X83249524Y-75687676D02*
X83154286Y-75782914D01*
X83154286Y-75782914D02*
X83059048Y-75830533D01*
X84201905Y-75973390D02*
X84106667Y-75925771D01*
X84106667Y-75925771D02*
X84059048Y-75878152D01*
X84059048Y-75878152D02*
X84011429Y-75782914D01*
X84011429Y-75782914D02*
X84011429Y-75735295D01*
X84011429Y-75735295D02*
X84059048Y-75640057D01*
X84059048Y-75640057D02*
X84106667Y-75592438D01*
X84106667Y-75592438D02*
X84201905Y-75544819D01*
X84201905Y-75544819D02*
X84392381Y-75544819D01*
X84392381Y-75544819D02*
X84487619Y-75592438D01*
X84487619Y-75592438D02*
X84535238Y-75640057D01*
X84535238Y-75640057D02*
X84582857Y-75735295D01*
X84582857Y-75735295D02*
X84582857Y-75782914D01*
X84582857Y-75782914D02*
X84535238Y-75878152D01*
X84535238Y-75878152D02*
X84487619Y-75925771D01*
X84487619Y-75925771D02*
X84392381Y-75973390D01*
X84392381Y-75973390D02*
X84201905Y-75973390D01*
X84201905Y-75973390D02*
X84106667Y-76021009D01*
X84106667Y-76021009D02*
X84059048Y-76068628D01*
X84059048Y-76068628D02*
X84011429Y-76163866D01*
X84011429Y-76163866D02*
X84011429Y-76354342D01*
X84011429Y-76354342D02*
X84059048Y-76449580D01*
X84059048Y-76449580D02*
X84106667Y-76497200D01*
X84106667Y-76497200D02*
X84201905Y-76544819D01*
X84201905Y-76544819D02*
X84392381Y-76544819D01*
X84392381Y-76544819D02*
X84487619Y-76497200D01*
X84487619Y-76497200D02*
X84535238Y-76449580D01*
X84535238Y-76449580D02*
X84582857Y-76354342D01*
X84582857Y-76354342D02*
X84582857Y-76163866D01*
X84582857Y-76163866D02*
X84535238Y-76068628D01*
X84535238Y-76068628D02*
X84487619Y-76021009D01*
X84487619Y-76021009D02*
X84392381Y-75973390D01*
X93187142Y-77474819D02*
X92853809Y-76998628D01*
X92615714Y-77474819D02*
X92615714Y-76474819D01*
X92615714Y-76474819D02*
X92996666Y-76474819D01*
X92996666Y-76474819D02*
X93091904Y-76522438D01*
X93091904Y-76522438D02*
X93139523Y-76570057D01*
X93139523Y-76570057D02*
X93187142Y-76665295D01*
X93187142Y-76665295D02*
X93187142Y-76808152D01*
X93187142Y-76808152D02*
X93139523Y-76903390D01*
X93139523Y-76903390D02*
X93091904Y-76951009D01*
X93091904Y-76951009D02*
X92996666Y-76998628D01*
X92996666Y-76998628D02*
X92615714Y-76998628D01*
X93568095Y-76570057D02*
X93615714Y-76522438D01*
X93615714Y-76522438D02*
X93710952Y-76474819D01*
X93710952Y-76474819D02*
X93949047Y-76474819D01*
X93949047Y-76474819D02*
X94044285Y-76522438D01*
X94044285Y-76522438D02*
X94091904Y-76570057D01*
X94091904Y-76570057D02*
X94139523Y-76665295D01*
X94139523Y-76665295D02*
X94139523Y-76760533D01*
X94139523Y-76760533D02*
X94091904Y-76903390D01*
X94091904Y-76903390D02*
X93520476Y-77474819D01*
X93520476Y-77474819D02*
X94139523Y-77474819D01*
X94758571Y-76474819D02*
X94853809Y-76474819D01*
X94853809Y-76474819D02*
X94949047Y-76522438D01*
X94949047Y-76522438D02*
X94996666Y-76570057D01*
X94996666Y-76570057D02*
X95044285Y-76665295D01*
X95044285Y-76665295D02*
X95091904Y-76855771D01*
X95091904Y-76855771D02*
X95091904Y-77093866D01*
X95091904Y-77093866D02*
X95044285Y-77284342D01*
X95044285Y-77284342D02*
X94996666Y-77379580D01*
X94996666Y-77379580D02*
X94949047Y-77427200D01*
X94949047Y-77427200D02*
X94853809Y-77474819D01*
X94853809Y-77474819D02*
X94758571Y-77474819D01*
X94758571Y-77474819D02*
X94663333Y-77427200D01*
X94663333Y-77427200D02*
X94615714Y-77379580D01*
X94615714Y-77379580D02*
X94568095Y-77284342D01*
X94568095Y-77284342D02*
X94520476Y-77093866D01*
X94520476Y-77093866D02*
X94520476Y-76855771D01*
X94520476Y-76855771D02*
X94568095Y-76665295D01*
X94568095Y-76665295D02*
X94615714Y-76570057D01*
X94615714Y-76570057D02*
X94663333Y-76522438D01*
X94663333Y-76522438D02*
X94758571Y-76474819D01*
X85707142Y-57324819D02*
X85373809Y-56848628D01*
X85135714Y-57324819D02*
X85135714Y-56324819D01*
X85135714Y-56324819D02*
X85516666Y-56324819D01*
X85516666Y-56324819D02*
X85611904Y-56372438D01*
X85611904Y-56372438D02*
X85659523Y-56420057D01*
X85659523Y-56420057D02*
X85707142Y-56515295D01*
X85707142Y-56515295D02*
X85707142Y-56658152D01*
X85707142Y-56658152D02*
X85659523Y-56753390D01*
X85659523Y-56753390D02*
X85611904Y-56801009D01*
X85611904Y-56801009D02*
X85516666Y-56848628D01*
X85516666Y-56848628D02*
X85135714Y-56848628D01*
X86564285Y-56658152D02*
X86564285Y-57324819D01*
X86326190Y-56277200D02*
X86088095Y-56991485D01*
X86088095Y-56991485D02*
X86707142Y-56991485D01*
X87516666Y-56658152D02*
X87516666Y-57324819D01*
X87278571Y-56277200D02*
X87040476Y-56991485D01*
X87040476Y-56991485D02*
X87659523Y-56991485D01*
X101798333Y-54644819D02*
X101465000Y-54168628D01*
X101226905Y-54644819D02*
X101226905Y-53644819D01*
X101226905Y-53644819D02*
X101607857Y-53644819D01*
X101607857Y-53644819D02*
X101703095Y-53692438D01*
X101703095Y-53692438D02*
X101750714Y-53740057D01*
X101750714Y-53740057D02*
X101798333Y-53835295D01*
X101798333Y-53835295D02*
X101798333Y-53978152D01*
X101798333Y-53978152D02*
X101750714Y-54073390D01*
X101750714Y-54073390D02*
X101703095Y-54121009D01*
X101703095Y-54121009D02*
X101607857Y-54168628D01*
X101607857Y-54168628D02*
X101226905Y-54168628D01*
X102703095Y-53644819D02*
X102226905Y-53644819D01*
X102226905Y-53644819D02*
X102179286Y-54121009D01*
X102179286Y-54121009D02*
X102226905Y-54073390D01*
X102226905Y-54073390D02*
X102322143Y-54025771D01*
X102322143Y-54025771D02*
X102560238Y-54025771D01*
X102560238Y-54025771D02*
X102655476Y-54073390D01*
X102655476Y-54073390D02*
X102703095Y-54121009D01*
X102703095Y-54121009D02*
X102750714Y-54216247D01*
X102750714Y-54216247D02*
X102750714Y-54454342D01*
X102750714Y-54454342D02*
X102703095Y-54549580D01*
X102703095Y-54549580D02*
X102655476Y-54597200D01*
X102655476Y-54597200D02*
X102560238Y-54644819D01*
X102560238Y-54644819D02*
X102322143Y-54644819D01*
X102322143Y-54644819D02*
X102226905Y-54597200D01*
X102226905Y-54597200D02*
X102179286Y-54549580D01*
X72278095Y-53834819D02*
X72278095Y-54644342D01*
X72278095Y-54644342D02*
X72325714Y-54739580D01*
X72325714Y-54739580D02*
X72373333Y-54787200D01*
X72373333Y-54787200D02*
X72468571Y-54834819D01*
X72468571Y-54834819D02*
X72659047Y-54834819D01*
X72659047Y-54834819D02*
X72754285Y-54787200D01*
X72754285Y-54787200D02*
X72801904Y-54739580D01*
X72801904Y-54739580D02*
X72849523Y-54644342D01*
X72849523Y-54644342D02*
X72849523Y-53834819D01*
X73754285Y-53834819D02*
X73563809Y-53834819D01*
X73563809Y-53834819D02*
X73468571Y-53882438D01*
X73468571Y-53882438D02*
X73420952Y-53930057D01*
X73420952Y-53930057D02*
X73325714Y-54072914D01*
X73325714Y-54072914D02*
X73278095Y-54263390D01*
X73278095Y-54263390D02*
X73278095Y-54644342D01*
X73278095Y-54644342D02*
X73325714Y-54739580D01*
X73325714Y-54739580D02*
X73373333Y-54787200D01*
X73373333Y-54787200D02*
X73468571Y-54834819D01*
X73468571Y-54834819D02*
X73659047Y-54834819D01*
X73659047Y-54834819D02*
X73754285Y-54787200D01*
X73754285Y-54787200D02*
X73801904Y-54739580D01*
X73801904Y-54739580D02*
X73849523Y-54644342D01*
X73849523Y-54644342D02*
X73849523Y-54406247D01*
X73849523Y-54406247D02*
X73801904Y-54311009D01*
X73801904Y-54311009D02*
X73754285Y-54263390D01*
X73754285Y-54263390D02*
X73659047Y-54215771D01*
X73659047Y-54215771D02*
X73468571Y-54215771D01*
X73468571Y-54215771D02*
X73373333Y-54263390D01*
X73373333Y-54263390D02*
X73325714Y-54311009D01*
X73325714Y-54311009D02*
X73278095Y-54406247D01*
X109797142Y-72089580D02*
X109749523Y-72137200D01*
X109749523Y-72137200D02*
X109606666Y-72184819D01*
X109606666Y-72184819D02*
X109511428Y-72184819D01*
X109511428Y-72184819D02*
X109368571Y-72137200D01*
X109368571Y-72137200D02*
X109273333Y-72041961D01*
X109273333Y-72041961D02*
X109225714Y-71946723D01*
X109225714Y-71946723D02*
X109178095Y-71756247D01*
X109178095Y-71756247D02*
X109178095Y-71613390D01*
X109178095Y-71613390D02*
X109225714Y-71422914D01*
X109225714Y-71422914D02*
X109273333Y-71327676D01*
X109273333Y-71327676D02*
X109368571Y-71232438D01*
X109368571Y-71232438D02*
X109511428Y-71184819D01*
X109511428Y-71184819D02*
X109606666Y-71184819D01*
X109606666Y-71184819D02*
X109749523Y-71232438D01*
X109749523Y-71232438D02*
X109797142Y-71280057D01*
X110749523Y-72184819D02*
X110178095Y-72184819D01*
X110463809Y-72184819D02*
X110463809Y-71184819D01*
X110463809Y-71184819D02*
X110368571Y-71327676D01*
X110368571Y-71327676D02*
X110273333Y-71422914D01*
X110273333Y-71422914D02*
X110178095Y-71470533D01*
X111368571Y-71184819D02*
X111463809Y-71184819D01*
X111463809Y-71184819D02*
X111559047Y-71232438D01*
X111559047Y-71232438D02*
X111606666Y-71280057D01*
X111606666Y-71280057D02*
X111654285Y-71375295D01*
X111654285Y-71375295D02*
X111701904Y-71565771D01*
X111701904Y-71565771D02*
X111701904Y-71803866D01*
X111701904Y-71803866D02*
X111654285Y-71994342D01*
X111654285Y-71994342D02*
X111606666Y-72089580D01*
X111606666Y-72089580D02*
X111559047Y-72137200D01*
X111559047Y-72137200D02*
X111463809Y-72184819D01*
X111463809Y-72184819D02*
X111368571Y-72184819D01*
X111368571Y-72184819D02*
X111273333Y-72137200D01*
X111273333Y-72137200D02*
X111225714Y-72089580D01*
X111225714Y-72089580D02*
X111178095Y-71994342D01*
X111178095Y-71994342D02*
X111130476Y-71803866D01*
X111130476Y-71803866D02*
X111130476Y-71565771D01*
X111130476Y-71565771D02*
X111178095Y-71375295D01*
X111178095Y-71375295D02*
X111225714Y-71280057D01*
X111225714Y-71280057D02*
X111273333Y-71232438D01*
X111273333Y-71232438D02*
X111368571Y-71184819D01*
X37211905Y-52434819D02*
X37211905Y-53244342D01*
X37211905Y-53244342D02*
X37259524Y-53339580D01*
X37259524Y-53339580D02*
X37307143Y-53387200D01*
X37307143Y-53387200D02*
X37402381Y-53434819D01*
X37402381Y-53434819D02*
X37592857Y-53434819D01*
X37592857Y-53434819D02*
X37688095Y-53387200D01*
X37688095Y-53387200D02*
X37735714Y-53339580D01*
X37735714Y-53339580D02*
X37783333Y-53244342D01*
X37783333Y-53244342D02*
X37783333Y-52434819D01*
X38783333Y-53434819D02*
X38211905Y-53434819D01*
X38497619Y-53434819D02*
X38497619Y-52434819D01*
X38497619Y-52434819D02*
X38402381Y-52577676D01*
X38402381Y-52577676D02*
X38307143Y-52672914D01*
X38307143Y-52672914D02*
X38211905Y-52720533D01*
X39402381Y-52434819D02*
X39497619Y-52434819D01*
X39497619Y-52434819D02*
X39592857Y-52482438D01*
X39592857Y-52482438D02*
X39640476Y-52530057D01*
X39640476Y-52530057D02*
X39688095Y-52625295D01*
X39688095Y-52625295D02*
X39735714Y-52815771D01*
X39735714Y-52815771D02*
X39735714Y-53053866D01*
X39735714Y-53053866D02*
X39688095Y-53244342D01*
X39688095Y-53244342D02*
X39640476Y-53339580D01*
X39640476Y-53339580D02*
X39592857Y-53387200D01*
X39592857Y-53387200D02*
X39497619Y-53434819D01*
X39497619Y-53434819D02*
X39402381Y-53434819D01*
X39402381Y-53434819D02*
X39307143Y-53387200D01*
X39307143Y-53387200D02*
X39259524Y-53339580D01*
X39259524Y-53339580D02*
X39211905Y-53244342D01*
X39211905Y-53244342D02*
X39164286Y-53053866D01*
X39164286Y-53053866D02*
X39164286Y-52815771D01*
X39164286Y-52815771D02*
X39211905Y-52625295D01*
X39211905Y-52625295D02*
X39259524Y-52530057D01*
X39259524Y-52530057D02*
X39307143Y-52482438D01*
X39307143Y-52482438D02*
X39402381Y-52434819D01*
X70512144Y-51229581D02*
X70464525Y-51277201D01*
X70464525Y-51277201D02*
X70321668Y-51324820D01*
X70321668Y-51324820D02*
X70226430Y-51324820D01*
X70226430Y-51324820D02*
X70083573Y-51277201D01*
X70083573Y-51277201D02*
X69988335Y-51181962D01*
X69988335Y-51181962D02*
X69940716Y-51086724D01*
X69940716Y-51086724D02*
X69893097Y-50896248D01*
X69893097Y-50896248D02*
X69893097Y-50753391D01*
X69893097Y-50753391D02*
X69940716Y-50562915D01*
X69940716Y-50562915D02*
X69988335Y-50467677D01*
X69988335Y-50467677D02*
X70083573Y-50372439D01*
X70083573Y-50372439D02*
X70226430Y-50324820D01*
X70226430Y-50324820D02*
X70321668Y-50324820D01*
X70321668Y-50324820D02*
X70464525Y-50372439D01*
X70464525Y-50372439D02*
X70512144Y-50420058D01*
X71464525Y-51324820D02*
X70893097Y-51324820D01*
X71178811Y-51324820D02*
X71178811Y-50324820D01*
X71178811Y-50324820D02*
X71083573Y-50467677D01*
X71083573Y-50467677D02*
X70988335Y-50562915D01*
X70988335Y-50562915D02*
X70893097Y-50610534D01*
X72321668Y-50658153D02*
X72321668Y-51324820D01*
X72083573Y-50277201D02*
X71845478Y-50991486D01*
X71845478Y-50991486D02*
X72464525Y-50991486D01*
X35886666Y-59674819D02*
X35886666Y-60389104D01*
X35886666Y-60389104D02*
X35839047Y-60531961D01*
X35839047Y-60531961D02*
X35743809Y-60627200D01*
X35743809Y-60627200D02*
X35600952Y-60674819D01*
X35600952Y-60674819D02*
X35505714Y-60674819D01*
X36791428Y-60008152D02*
X36791428Y-60674819D01*
X36553333Y-59627200D02*
X36315238Y-60341485D01*
X36315238Y-60341485D02*
X36934285Y-60341485D01*
X55217142Y-68064819D02*
X54883809Y-67588628D01*
X54645714Y-68064819D02*
X54645714Y-67064819D01*
X54645714Y-67064819D02*
X55026666Y-67064819D01*
X55026666Y-67064819D02*
X55121904Y-67112438D01*
X55121904Y-67112438D02*
X55169523Y-67160057D01*
X55169523Y-67160057D02*
X55217142Y-67255295D01*
X55217142Y-67255295D02*
X55217142Y-67398152D01*
X55217142Y-67398152D02*
X55169523Y-67493390D01*
X55169523Y-67493390D02*
X55121904Y-67541009D01*
X55121904Y-67541009D02*
X55026666Y-67588628D01*
X55026666Y-67588628D02*
X54645714Y-67588628D01*
X56074285Y-67398152D02*
X56074285Y-68064819D01*
X55836190Y-67017200D02*
X55598095Y-67731485D01*
X55598095Y-67731485D02*
X56217142Y-67731485D01*
X56788571Y-67064819D02*
X56883809Y-67064819D01*
X56883809Y-67064819D02*
X56979047Y-67112438D01*
X56979047Y-67112438D02*
X57026666Y-67160057D01*
X57026666Y-67160057D02*
X57074285Y-67255295D01*
X57074285Y-67255295D02*
X57121904Y-67445771D01*
X57121904Y-67445771D02*
X57121904Y-67683866D01*
X57121904Y-67683866D02*
X57074285Y-67874342D01*
X57074285Y-67874342D02*
X57026666Y-67969580D01*
X57026666Y-67969580D02*
X56979047Y-68017200D01*
X56979047Y-68017200D02*
X56883809Y-68064819D01*
X56883809Y-68064819D02*
X56788571Y-68064819D01*
X56788571Y-68064819D02*
X56693333Y-68017200D01*
X56693333Y-68017200D02*
X56645714Y-67969580D01*
X56645714Y-67969580D02*
X56598095Y-67874342D01*
X56598095Y-67874342D02*
X56550476Y-67683866D01*
X56550476Y-67683866D02*
X56550476Y-67445771D01*
X56550476Y-67445771D02*
X56598095Y-67255295D01*
X56598095Y-67255295D02*
X56645714Y-67160057D01*
X56645714Y-67160057D02*
X56693333Y-67112438D01*
X56693333Y-67112438D02*
X56788571Y-67064819D01*
X62680476Y-68034819D02*
X62680476Y-68749104D01*
X62680476Y-68749104D02*
X62632857Y-68891961D01*
X62632857Y-68891961D02*
X62537619Y-68987200D01*
X62537619Y-68987200D02*
X62394762Y-69034819D01*
X62394762Y-69034819D02*
X62299524Y-69034819D01*
X63680476Y-69034819D02*
X63109048Y-69034819D01*
X63394762Y-69034819D02*
X63394762Y-68034819D01*
X63394762Y-68034819D02*
X63299524Y-68177676D01*
X63299524Y-68177676D02*
X63204286Y-68272914D01*
X63204286Y-68272914D02*
X63109048Y-68320533D01*
X64585238Y-68034819D02*
X64109048Y-68034819D01*
X64109048Y-68034819D02*
X64061429Y-68511009D01*
X64061429Y-68511009D02*
X64109048Y-68463390D01*
X64109048Y-68463390D02*
X64204286Y-68415771D01*
X64204286Y-68415771D02*
X64442381Y-68415771D01*
X64442381Y-68415771D02*
X64537619Y-68463390D01*
X64537619Y-68463390D02*
X64585238Y-68511009D01*
X64585238Y-68511009D02*
X64632857Y-68606247D01*
X64632857Y-68606247D02*
X64632857Y-68844342D01*
X64632857Y-68844342D02*
X64585238Y-68939580D01*
X64585238Y-68939580D02*
X64537619Y-68987200D01*
X64537619Y-68987200D02*
X64442381Y-69034819D01*
X64442381Y-69034819D02*
X64204286Y-69034819D01*
X64204286Y-69034819D02*
X64109048Y-68987200D01*
X64109048Y-68987200D02*
X64061429Y-68939580D01*
X80117142Y-38579580D02*
X80069523Y-38627200D01*
X80069523Y-38627200D02*
X79926666Y-38674819D01*
X79926666Y-38674819D02*
X79831428Y-38674819D01*
X79831428Y-38674819D02*
X79688571Y-38627200D01*
X79688571Y-38627200D02*
X79593333Y-38531961D01*
X79593333Y-38531961D02*
X79545714Y-38436723D01*
X79545714Y-38436723D02*
X79498095Y-38246247D01*
X79498095Y-38246247D02*
X79498095Y-38103390D01*
X79498095Y-38103390D02*
X79545714Y-37912914D01*
X79545714Y-37912914D02*
X79593333Y-37817676D01*
X79593333Y-37817676D02*
X79688571Y-37722438D01*
X79688571Y-37722438D02*
X79831428Y-37674819D01*
X79831428Y-37674819D02*
X79926666Y-37674819D01*
X79926666Y-37674819D02*
X80069523Y-37722438D01*
X80069523Y-37722438D02*
X80117142Y-37770057D01*
X81069523Y-38674819D02*
X80498095Y-38674819D01*
X80783809Y-38674819D02*
X80783809Y-37674819D01*
X80783809Y-37674819D02*
X80688571Y-37817676D01*
X80688571Y-37817676D02*
X80593333Y-37912914D01*
X80593333Y-37912914D02*
X80498095Y-37960533D01*
X81640952Y-38103390D02*
X81545714Y-38055771D01*
X81545714Y-38055771D02*
X81498095Y-38008152D01*
X81498095Y-38008152D02*
X81450476Y-37912914D01*
X81450476Y-37912914D02*
X81450476Y-37865295D01*
X81450476Y-37865295D02*
X81498095Y-37770057D01*
X81498095Y-37770057D02*
X81545714Y-37722438D01*
X81545714Y-37722438D02*
X81640952Y-37674819D01*
X81640952Y-37674819D02*
X81831428Y-37674819D01*
X81831428Y-37674819D02*
X81926666Y-37722438D01*
X81926666Y-37722438D02*
X81974285Y-37770057D01*
X81974285Y-37770057D02*
X82021904Y-37865295D01*
X82021904Y-37865295D02*
X82021904Y-37912914D01*
X82021904Y-37912914D02*
X81974285Y-38008152D01*
X81974285Y-38008152D02*
X81926666Y-38055771D01*
X81926666Y-38055771D02*
X81831428Y-38103390D01*
X81831428Y-38103390D02*
X81640952Y-38103390D01*
X81640952Y-38103390D02*
X81545714Y-38151009D01*
X81545714Y-38151009D02*
X81498095Y-38198628D01*
X81498095Y-38198628D02*
X81450476Y-38293866D01*
X81450476Y-38293866D02*
X81450476Y-38484342D01*
X81450476Y-38484342D02*
X81498095Y-38579580D01*
X81498095Y-38579580D02*
X81545714Y-38627200D01*
X81545714Y-38627200D02*
X81640952Y-38674819D01*
X81640952Y-38674819D02*
X81831428Y-38674819D01*
X81831428Y-38674819D02*
X81926666Y-38627200D01*
X81926666Y-38627200D02*
X81974285Y-38579580D01*
X81974285Y-38579580D02*
X82021904Y-38484342D01*
X82021904Y-38484342D02*
X82021904Y-38293866D01*
X82021904Y-38293866D02*
X81974285Y-38198628D01*
X81974285Y-38198628D02*
X81926666Y-38151009D01*
X81926666Y-38151009D02*
X81831428Y-38103390D01*
X87157142Y-77349580D02*
X87109523Y-77397200D01*
X87109523Y-77397200D02*
X86966666Y-77444819D01*
X86966666Y-77444819D02*
X86871428Y-77444819D01*
X86871428Y-77444819D02*
X86728571Y-77397200D01*
X86728571Y-77397200D02*
X86633333Y-77301961D01*
X86633333Y-77301961D02*
X86585714Y-77206723D01*
X86585714Y-77206723D02*
X86538095Y-77016247D01*
X86538095Y-77016247D02*
X86538095Y-76873390D01*
X86538095Y-76873390D02*
X86585714Y-76682914D01*
X86585714Y-76682914D02*
X86633333Y-76587676D01*
X86633333Y-76587676D02*
X86728571Y-76492438D01*
X86728571Y-76492438D02*
X86871428Y-76444819D01*
X86871428Y-76444819D02*
X86966666Y-76444819D01*
X86966666Y-76444819D02*
X87109523Y-76492438D01*
X87109523Y-76492438D02*
X87157142Y-76540057D01*
X87538095Y-76540057D02*
X87585714Y-76492438D01*
X87585714Y-76492438D02*
X87680952Y-76444819D01*
X87680952Y-76444819D02*
X87919047Y-76444819D01*
X87919047Y-76444819D02*
X88014285Y-76492438D01*
X88014285Y-76492438D02*
X88061904Y-76540057D01*
X88061904Y-76540057D02*
X88109523Y-76635295D01*
X88109523Y-76635295D02*
X88109523Y-76730533D01*
X88109523Y-76730533D02*
X88061904Y-76873390D01*
X88061904Y-76873390D02*
X87490476Y-77444819D01*
X87490476Y-77444819D02*
X88109523Y-77444819D01*
X88442857Y-76444819D02*
X89061904Y-76444819D01*
X89061904Y-76444819D02*
X88728571Y-76825771D01*
X88728571Y-76825771D02*
X88871428Y-76825771D01*
X88871428Y-76825771D02*
X88966666Y-76873390D01*
X88966666Y-76873390D02*
X89014285Y-76921009D01*
X89014285Y-76921009D02*
X89061904Y-77016247D01*
X89061904Y-77016247D02*
X89061904Y-77254342D01*
X89061904Y-77254342D02*
X89014285Y-77349580D01*
X89014285Y-77349580D02*
X88966666Y-77397200D01*
X88966666Y-77397200D02*
X88871428Y-77444819D01*
X88871428Y-77444819D02*
X88585714Y-77444819D01*
X88585714Y-77444819D02*
X88490476Y-77397200D01*
X88490476Y-77397200D02*
X88442857Y-77349580D01*
X78867142Y-76619580D02*
X78819523Y-76667200D01*
X78819523Y-76667200D02*
X78676666Y-76714819D01*
X78676666Y-76714819D02*
X78581428Y-76714819D01*
X78581428Y-76714819D02*
X78438571Y-76667200D01*
X78438571Y-76667200D02*
X78343333Y-76571961D01*
X78343333Y-76571961D02*
X78295714Y-76476723D01*
X78295714Y-76476723D02*
X78248095Y-76286247D01*
X78248095Y-76286247D02*
X78248095Y-76143390D01*
X78248095Y-76143390D02*
X78295714Y-75952914D01*
X78295714Y-75952914D02*
X78343333Y-75857676D01*
X78343333Y-75857676D02*
X78438571Y-75762438D01*
X78438571Y-75762438D02*
X78581428Y-75714819D01*
X78581428Y-75714819D02*
X78676666Y-75714819D01*
X78676666Y-75714819D02*
X78819523Y-75762438D01*
X78819523Y-75762438D02*
X78867142Y-75810057D01*
X79819523Y-76714819D02*
X79248095Y-76714819D01*
X79533809Y-76714819D02*
X79533809Y-75714819D01*
X79533809Y-75714819D02*
X79438571Y-75857676D01*
X79438571Y-75857676D02*
X79343333Y-75952914D01*
X79343333Y-75952914D02*
X79248095Y-76000533D01*
X80152857Y-75714819D02*
X80771904Y-75714819D01*
X80771904Y-75714819D02*
X80438571Y-76095771D01*
X80438571Y-76095771D02*
X80581428Y-76095771D01*
X80581428Y-76095771D02*
X80676666Y-76143390D01*
X80676666Y-76143390D02*
X80724285Y-76191009D01*
X80724285Y-76191009D02*
X80771904Y-76286247D01*
X80771904Y-76286247D02*
X80771904Y-76524342D01*
X80771904Y-76524342D02*
X80724285Y-76619580D01*
X80724285Y-76619580D02*
X80676666Y-76667200D01*
X80676666Y-76667200D02*
X80581428Y-76714819D01*
X80581428Y-76714819D02*
X80295714Y-76714819D01*
X80295714Y-76714819D02*
X80200476Y-76667200D01*
X80200476Y-76667200D02*
X80152857Y-76619580D01*
X69838334Y-59192319D02*
X69362144Y-59192319D01*
X69362144Y-59192319D02*
X69362144Y-58192319D01*
X70076430Y-58192319D02*
X70695477Y-58192319D01*
X70695477Y-58192319D02*
X70362144Y-58573271D01*
X70362144Y-58573271D02*
X70505001Y-58573271D01*
X70505001Y-58573271D02*
X70600239Y-58620890D01*
X70600239Y-58620890D02*
X70647858Y-58668509D01*
X70647858Y-58668509D02*
X70695477Y-58763747D01*
X70695477Y-58763747D02*
X70695477Y-59001842D01*
X70695477Y-59001842D02*
X70647858Y-59097080D01*
X70647858Y-59097080D02*
X70600239Y-59144700D01*
X70600239Y-59144700D02*
X70505001Y-59192319D01*
X70505001Y-59192319D02*
X70219287Y-59192319D01*
X70219287Y-59192319D02*
X70124049Y-59144700D01*
X70124049Y-59144700D02*
X70076430Y-59097080D01*
X71540476Y-32474819D02*
X71540476Y-33189104D01*
X71540476Y-33189104D02*
X71492857Y-33331961D01*
X71492857Y-33331961D02*
X71397619Y-33427200D01*
X71397619Y-33427200D02*
X71254762Y-33474819D01*
X71254762Y-33474819D02*
X71159524Y-33474819D01*
X72540476Y-33474819D02*
X71969048Y-33474819D01*
X72254762Y-33474819D02*
X72254762Y-32474819D01*
X72254762Y-32474819D02*
X72159524Y-32617676D01*
X72159524Y-32617676D02*
X72064286Y-32712914D01*
X72064286Y-32712914D02*
X71969048Y-32760533D01*
X72873810Y-32474819D02*
X73492857Y-32474819D01*
X73492857Y-32474819D02*
X73159524Y-32855771D01*
X73159524Y-32855771D02*
X73302381Y-32855771D01*
X73302381Y-32855771D02*
X73397619Y-32903390D01*
X73397619Y-32903390D02*
X73445238Y-32951009D01*
X73445238Y-32951009D02*
X73492857Y-33046247D01*
X73492857Y-33046247D02*
X73492857Y-33284342D01*
X73492857Y-33284342D02*
X73445238Y-33379580D01*
X73445238Y-33379580D02*
X73397619Y-33427200D01*
X73397619Y-33427200D02*
X73302381Y-33474819D01*
X73302381Y-33474819D02*
X73016667Y-33474819D01*
X73016667Y-33474819D02*
X72921429Y-33427200D01*
X72921429Y-33427200D02*
X72873810Y-33379580D01*
X74768095Y-44154819D02*
X74768095Y-44964342D01*
X74768095Y-44964342D02*
X74815714Y-45059580D01*
X74815714Y-45059580D02*
X74863333Y-45107200D01*
X74863333Y-45107200D02*
X74958571Y-45154819D01*
X74958571Y-45154819D02*
X75149047Y-45154819D01*
X75149047Y-45154819D02*
X75244285Y-45107200D01*
X75244285Y-45107200D02*
X75291904Y-45059580D01*
X75291904Y-45059580D02*
X75339523Y-44964342D01*
X75339523Y-44964342D02*
X75339523Y-44154819D01*
X75958571Y-44583390D02*
X75863333Y-44535771D01*
X75863333Y-44535771D02*
X75815714Y-44488152D01*
X75815714Y-44488152D02*
X75768095Y-44392914D01*
X75768095Y-44392914D02*
X75768095Y-44345295D01*
X75768095Y-44345295D02*
X75815714Y-44250057D01*
X75815714Y-44250057D02*
X75863333Y-44202438D01*
X75863333Y-44202438D02*
X75958571Y-44154819D01*
X75958571Y-44154819D02*
X76149047Y-44154819D01*
X76149047Y-44154819D02*
X76244285Y-44202438D01*
X76244285Y-44202438D02*
X76291904Y-44250057D01*
X76291904Y-44250057D02*
X76339523Y-44345295D01*
X76339523Y-44345295D02*
X76339523Y-44392914D01*
X76339523Y-44392914D02*
X76291904Y-44488152D01*
X76291904Y-44488152D02*
X76244285Y-44535771D01*
X76244285Y-44535771D02*
X76149047Y-44583390D01*
X76149047Y-44583390D02*
X75958571Y-44583390D01*
X75958571Y-44583390D02*
X75863333Y-44631009D01*
X75863333Y-44631009D02*
X75815714Y-44678628D01*
X75815714Y-44678628D02*
X75768095Y-44773866D01*
X75768095Y-44773866D02*
X75768095Y-44964342D01*
X75768095Y-44964342D02*
X75815714Y-45059580D01*
X75815714Y-45059580D02*
X75863333Y-45107200D01*
X75863333Y-45107200D02*
X75958571Y-45154819D01*
X75958571Y-45154819D02*
X76149047Y-45154819D01*
X76149047Y-45154819D02*
X76244285Y-45107200D01*
X76244285Y-45107200D02*
X76291904Y-45059580D01*
X76291904Y-45059580D02*
X76339523Y-44964342D01*
X76339523Y-44964342D02*
X76339523Y-44773866D01*
X76339523Y-44773866D02*
X76291904Y-44678628D01*
X76291904Y-44678628D02*
X76244285Y-44631009D01*
X76244285Y-44631009D02*
X76149047Y-44583390D01*
X85657142Y-33084819D02*
X85323809Y-32608628D01*
X85085714Y-33084819D02*
X85085714Y-32084819D01*
X85085714Y-32084819D02*
X85466666Y-32084819D01*
X85466666Y-32084819D02*
X85561904Y-32132438D01*
X85561904Y-32132438D02*
X85609523Y-32180057D01*
X85609523Y-32180057D02*
X85657142Y-32275295D01*
X85657142Y-32275295D02*
X85657142Y-32418152D01*
X85657142Y-32418152D02*
X85609523Y-32513390D01*
X85609523Y-32513390D02*
X85561904Y-32561009D01*
X85561904Y-32561009D02*
X85466666Y-32608628D01*
X85466666Y-32608628D02*
X85085714Y-32608628D01*
X86514285Y-32418152D02*
X86514285Y-33084819D01*
X86276190Y-32037200D02*
X86038095Y-32751485D01*
X86038095Y-32751485D02*
X86657142Y-32751485D01*
X87514285Y-32084819D02*
X87038095Y-32084819D01*
X87038095Y-32084819D02*
X86990476Y-32561009D01*
X86990476Y-32561009D02*
X87038095Y-32513390D01*
X87038095Y-32513390D02*
X87133333Y-32465771D01*
X87133333Y-32465771D02*
X87371428Y-32465771D01*
X87371428Y-32465771D02*
X87466666Y-32513390D01*
X87466666Y-32513390D02*
X87514285Y-32561009D01*
X87514285Y-32561009D02*
X87561904Y-32656247D01*
X87561904Y-32656247D02*
X87561904Y-32894342D01*
X87561904Y-32894342D02*
X87514285Y-32989580D01*
X87514285Y-32989580D02*
X87466666Y-33037200D01*
X87466666Y-33037200D02*
X87371428Y-33084819D01*
X87371428Y-33084819D02*
X87133333Y-33084819D01*
X87133333Y-33084819D02*
X87038095Y-33037200D01*
X87038095Y-33037200D02*
X86990476Y-32989580D01*
X111057142Y-59024819D02*
X110723809Y-58548628D01*
X110485714Y-59024819D02*
X110485714Y-58024819D01*
X110485714Y-58024819D02*
X110866666Y-58024819D01*
X110866666Y-58024819D02*
X110961904Y-58072438D01*
X110961904Y-58072438D02*
X111009523Y-58120057D01*
X111009523Y-58120057D02*
X111057142Y-58215295D01*
X111057142Y-58215295D02*
X111057142Y-58358152D01*
X111057142Y-58358152D02*
X111009523Y-58453390D01*
X111009523Y-58453390D02*
X110961904Y-58501009D01*
X110961904Y-58501009D02*
X110866666Y-58548628D01*
X110866666Y-58548628D02*
X110485714Y-58548628D01*
X112009523Y-59024819D02*
X111438095Y-59024819D01*
X111723809Y-59024819D02*
X111723809Y-58024819D01*
X111723809Y-58024819D02*
X111628571Y-58167676D01*
X111628571Y-58167676D02*
X111533333Y-58262914D01*
X111533333Y-58262914D02*
X111438095Y-58310533D01*
X112961904Y-59024819D02*
X112390476Y-59024819D01*
X112676190Y-59024819D02*
X112676190Y-58024819D01*
X112676190Y-58024819D02*
X112580952Y-58167676D01*
X112580952Y-58167676D02*
X112485714Y-58262914D01*
X112485714Y-58262914D02*
X112390476Y-58310533D01*
X91474819Y-71131904D02*
X92284342Y-71131904D01*
X92284342Y-71131904D02*
X92379580Y-71084285D01*
X92379580Y-71084285D02*
X92427200Y-71036666D01*
X92427200Y-71036666D02*
X92474819Y-70941428D01*
X92474819Y-70941428D02*
X92474819Y-70750952D01*
X92474819Y-70750952D02*
X92427200Y-70655714D01*
X92427200Y-70655714D02*
X92379580Y-70608095D01*
X92379580Y-70608095D02*
X92284342Y-70560476D01*
X92284342Y-70560476D02*
X91474819Y-70560476D01*
X92474819Y-70036666D02*
X92474819Y-69846190D01*
X92474819Y-69846190D02*
X92427200Y-69750952D01*
X92427200Y-69750952D02*
X92379580Y-69703333D01*
X92379580Y-69703333D02*
X92236723Y-69608095D01*
X92236723Y-69608095D02*
X92046247Y-69560476D01*
X92046247Y-69560476D02*
X91665295Y-69560476D01*
X91665295Y-69560476D02*
X91570057Y-69608095D01*
X91570057Y-69608095D02*
X91522438Y-69655714D01*
X91522438Y-69655714D02*
X91474819Y-69750952D01*
X91474819Y-69750952D02*
X91474819Y-69941428D01*
X91474819Y-69941428D02*
X91522438Y-70036666D01*
X91522438Y-70036666D02*
X91570057Y-70084285D01*
X91570057Y-70084285D02*
X91665295Y-70131904D01*
X91665295Y-70131904D02*
X91903390Y-70131904D01*
X91903390Y-70131904D02*
X91998628Y-70084285D01*
X91998628Y-70084285D02*
X92046247Y-70036666D01*
X92046247Y-70036666D02*
X92093866Y-69941428D01*
X92093866Y-69941428D02*
X92093866Y-69750952D01*
X92093866Y-69750952D02*
X92046247Y-69655714D01*
X92046247Y-69655714D02*
X91998628Y-69608095D01*
X91998628Y-69608095D02*
X91903390Y-69560476D01*
X70020476Y-46334819D02*
X70353809Y-47334819D01*
X70353809Y-47334819D02*
X70687142Y-46334819D01*
X71020476Y-47334819D02*
X71020476Y-46334819D01*
X71020476Y-46334819D02*
X71258571Y-46334819D01*
X71258571Y-46334819D02*
X71401428Y-46382438D01*
X71401428Y-46382438D02*
X71496666Y-46477676D01*
X71496666Y-46477676D02*
X71544285Y-46572914D01*
X71544285Y-46572914D02*
X71591904Y-46763390D01*
X71591904Y-46763390D02*
X71591904Y-46906247D01*
X71591904Y-46906247D02*
X71544285Y-47096723D01*
X71544285Y-47096723D02*
X71496666Y-47191961D01*
X71496666Y-47191961D02*
X71401428Y-47287200D01*
X71401428Y-47287200D02*
X71258571Y-47334819D01*
X71258571Y-47334819D02*
X71020476Y-47334819D01*
X71972857Y-46430057D02*
X72020476Y-46382438D01*
X72020476Y-46382438D02*
X72115714Y-46334819D01*
X72115714Y-46334819D02*
X72353809Y-46334819D01*
X72353809Y-46334819D02*
X72449047Y-46382438D01*
X72449047Y-46382438D02*
X72496666Y-46430057D01*
X72496666Y-46430057D02*
X72544285Y-46525295D01*
X72544285Y-46525295D02*
X72544285Y-46620533D01*
X72544285Y-46620533D02*
X72496666Y-46763390D01*
X72496666Y-46763390D02*
X71925238Y-47334819D01*
X71925238Y-47334819D02*
X72544285Y-47334819D01*
X108703095Y-43794819D02*
X108703095Y-44604342D01*
X108703095Y-44604342D02*
X108750714Y-44699580D01*
X108750714Y-44699580D02*
X108798333Y-44747200D01*
X108798333Y-44747200D02*
X108893571Y-44794819D01*
X108893571Y-44794819D02*
X109084047Y-44794819D01*
X109084047Y-44794819D02*
X109179285Y-44747200D01*
X109179285Y-44747200D02*
X109226904Y-44699580D01*
X109226904Y-44699580D02*
X109274523Y-44604342D01*
X109274523Y-44604342D02*
X109274523Y-43794819D01*
X110179285Y-44128152D02*
X110179285Y-44794819D01*
X109941190Y-43747200D02*
X109703095Y-44461485D01*
X109703095Y-44461485D02*
X110322142Y-44461485D01*
X37145476Y-37694819D02*
X37145476Y-38409104D01*
X37145476Y-38409104D02*
X37097857Y-38551961D01*
X37097857Y-38551961D02*
X37002619Y-38647200D01*
X37002619Y-38647200D02*
X36859762Y-38694819D01*
X36859762Y-38694819D02*
X36764524Y-38694819D01*
X38145476Y-38694819D02*
X37574048Y-38694819D01*
X37859762Y-38694819D02*
X37859762Y-37694819D01*
X37859762Y-37694819D02*
X37764524Y-37837676D01*
X37764524Y-37837676D02*
X37669286Y-37932914D01*
X37669286Y-37932914D02*
X37574048Y-37980533D01*
X38764524Y-37694819D02*
X38859762Y-37694819D01*
X38859762Y-37694819D02*
X38955000Y-37742438D01*
X38955000Y-37742438D02*
X39002619Y-37790057D01*
X39002619Y-37790057D02*
X39050238Y-37885295D01*
X39050238Y-37885295D02*
X39097857Y-38075771D01*
X39097857Y-38075771D02*
X39097857Y-38313866D01*
X39097857Y-38313866D02*
X39050238Y-38504342D01*
X39050238Y-38504342D02*
X39002619Y-38599580D01*
X39002619Y-38599580D02*
X38955000Y-38647200D01*
X38955000Y-38647200D02*
X38859762Y-38694819D01*
X38859762Y-38694819D02*
X38764524Y-38694819D01*
X38764524Y-38694819D02*
X38669286Y-38647200D01*
X38669286Y-38647200D02*
X38621667Y-38599580D01*
X38621667Y-38599580D02*
X38574048Y-38504342D01*
X38574048Y-38504342D02*
X38526429Y-38313866D01*
X38526429Y-38313866D02*
X38526429Y-38075771D01*
X38526429Y-38075771D02*
X38574048Y-37885295D01*
X38574048Y-37885295D02*
X38621667Y-37790057D01*
X38621667Y-37790057D02*
X38669286Y-37742438D01*
X38669286Y-37742438D02*
X38764524Y-37694819D01*
X83907142Y-55229580D02*
X83859523Y-55277200D01*
X83859523Y-55277200D02*
X83716666Y-55324819D01*
X83716666Y-55324819D02*
X83621428Y-55324819D01*
X83621428Y-55324819D02*
X83478571Y-55277200D01*
X83478571Y-55277200D02*
X83383333Y-55181961D01*
X83383333Y-55181961D02*
X83335714Y-55086723D01*
X83335714Y-55086723D02*
X83288095Y-54896247D01*
X83288095Y-54896247D02*
X83288095Y-54753390D01*
X83288095Y-54753390D02*
X83335714Y-54562914D01*
X83335714Y-54562914D02*
X83383333Y-54467676D01*
X83383333Y-54467676D02*
X83478571Y-54372438D01*
X83478571Y-54372438D02*
X83621428Y-54324819D01*
X83621428Y-54324819D02*
X83716666Y-54324819D01*
X83716666Y-54324819D02*
X83859523Y-54372438D01*
X83859523Y-54372438D02*
X83907142Y-54420057D01*
X84859523Y-55324819D02*
X84288095Y-55324819D01*
X84573809Y-55324819D02*
X84573809Y-54324819D01*
X84573809Y-54324819D02*
X84478571Y-54467676D01*
X84478571Y-54467676D02*
X84383333Y-54562914D01*
X84383333Y-54562914D02*
X84288095Y-54610533D01*
X85764285Y-54324819D02*
X85288095Y-54324819D01*
X85288095Y-54324819D02*
X85240476Y-54801009D01*
X85240476Y-54801009D02*
X85288095Y-54753390D01*
X85288095Y-54753390D02*
X85383333Y-54705771D01*
X85383333Y-54705771D02*
X85621428Y-54705771D01*
X85621428Y-54705771D02*
X85716666Y-54753390D01*
X85716666Y-54753390D02*
X85764285Y-54801009D01*
X85764285Y-54801009D02*
X85811904Y-54896247D01*
X85811904Y-54896247D02*
X85811904Y-55134342D01*
X85811904Y-55134342D02*
X85764285Y-55229580D01*
X85764285Y-55229580D02*
X85716666Y-55277200D01*
X85716666Y-55277200D02*
X85621428Y-55324819D01*
X85621428Y-55324819D02*
X85383333Y-55324819D01*
X85383333Y-55324819D02*
X85288095Y-55277200D01*
X85288095Y-55277200D02*
X85240476Y-55229580D01*
X97674819Y-65585357D02*
X97198628Y-65918690D01*
X97674819Y-66156785D02*
X96674819Y-66156785D01*
X96674819Y-66156785D02*
X96674819Y-65775833D01*
X96674819Y-65775833D02*
X96722438Y-65680595D01*
X96722438Y-65680595D02*
X96770057Y-65632976D01*
X96770057Y-65632976D02*
X96865295Y-65585357D01*
X96865295Y-65585357D02*
X97008152Y-65585357D01*
X97008152Y-65585357D02*
X97103390Y-65632976D01*
X97103390Y-65632976D02*
X97151009Y-65680595D01*
X97151009Y-65680595D02*
X97198628Y-65775833D01*
X97198628Y-65775833D02*
X97198628Y-66156785D01*
X97674819Y-64632976D02*
X97674819Y-65204404D01*
X97674819Y-64918690D02*
X96674819Y-64918690D01*
X96674819Y-64918690D02*
X96817676Y-65013928D01*
X96817676Y-65013928D02*
X96912914Y-65109166D01*
X96912914Y-65109166D02*
X96960533Y-65204404D01*
X96674819Y-64299642D02*
X96674819Y-63680595D01*
X96674819Y-63680595D02*
X97055771Y-64013928D01*
X97055771Y-64013928D02*
X97055771Y-63871071D01*
X97055771Y-63871071D02*
X97103390Y-63775833D01*
X97103390Y-63775833D02*
X97151009Y-63728214D01*
X97151009Y-63728214D02*
X97246247Y-63680595D01*
X97246247Y-63680595D02*
X97484342Y-63680595D01*
X97484342Y-63680595D02*
X97579580Y-63728214D01*
X97579580Y-63728214D02*
X97627200Y-63775833D01*
X97627200Y-63775833D02*
X97674819Y-63871071D01*
X97674819Y-63871071D02*
X97674819Y-64156785D01*
X97674819Y-64156785D02*
X97627200Y-64252023D01*
X97627200Y-64252023D02*
X97579580Y-64299642D01*
X71007142Y-44774819D02*
X70673809Y-44298628D01*
X70435714Y-44774819D02*
X70435714Y-43774819D01*
X70435714Y-43774819D02*
X70816666Y-43774819D01*
X70816666Y-43774819D02*
X70911904Y-43822438D01*
X70911904Y-43822438D02*
X70959523Y-43870057D01*
X70959523Y-43870057D02*
X71007142Y-43965295D01*
X71007142Y-43965295D02*
X71007142Y-44108152D01*
X71007142Y-44108152D02*
X70959523Y-44203390D01*
X70959523Y-44203390D02*
X70911904Y-44251009D01*
X70911904Y-44251009D02*
X70816666Y-44298628D01*
X70816666Y-44298628D02*
X70435714Y-44298628D01*
X71388095Y-43870057D02*
X71435714Y-43822438D01*
X71435714Y-43822438D02*
X71530952Y-43774819D01*
X71530952Y-43774819D02*
X71769047Y-43774819D01*
X71769047Y-43774819D02*
X71864285Y-43822438D01*
X71864285Y-43822438D02*
X71911904Y-43870057D01*
X71911904Y-43870057D02*
X71959523Y-43965295D01*
X71959523Y-43965295D02*
X71959523Y-44060533D01*
X71959523Y-44060533D02*
X71911904Y-44203390D01*
X71911904Y-44203390D02*
X71340476Y-44774819D01*
X71340476Y-44774819D02*
X71959523Y-44774819D01*
X72340476Y-43870057D02*
X72388095Y-43822438D01*
X72388095Y-43822438D02*
X72483333Y-43774819D01*
X72483333Y-43774819D02*
X72721428Y-43774819D01*
X72721428Y-43774819D02*
X72816666Y-43822438D01*
X72816666Y-43822438D02*
X72864285Y-43870057D01*
X72864285Y-43870057D02*
X72911904Y-43965295D01*
X72911904Y-43965295D02*
X72911904Y-44060533D01*
X72911904Y-44060533D02*
X72864285Y-44203390D01*
X72864285Y-44203390D02*
X72292857Y-44774819D01*
X72292857Y-44774819D02*
X72911904Y-44774819D01*
X76488334Y-47284820D02*
X76012144Y-47284820D01*
X76012144Y-47284820D02*
X76012144Y-46284820D01*
X77345477Y-47284820D02*
X76774049Y-47284820D01*
X77059763Y-47284820D02*
X77059763Y-46284820D01*
X77059763Y-46284820D02*
X76964525Y-46427677D01*
X76964525Y-46427677D02*
X76869287Y-46522915D01*
X76869287Y-46522915D02*
X76774049Y-46570534D01*
X65080476Y-55424818D02*
X65080476Y-56139103D01*
X65080476Y-56139103D02*
X65032857Y-56281960D01*
X65032857Y-56281960D02*
X64937619Y-56377199D01*
X64937619Y-56377199D02*
X64794762Y-56424818D01*
X64794762Y-56424818D02*
X64699524Y-56424818D01*
X66080476Y-56424818D02*
X65509048Y-56424818D01*
X65794762Y-56424818D02*
X65794762Y-55424818D01*
X65794762Y-55424818D02*
X65699524Y-55567675D01*
X65699524Y-55567675D02*
X65604286Y-55662913D01*
X65604286Y-55662913D02*
X65509048Y-55710532D01*
X66937619Y-55424818D02*
X66747143Y-55424818D01*
X66747143Y-55424818D02*
X66651905Y-55472437D01*
X66651905Y-55472437D02*
X66604286Y-55520056D01*
X66604286Y-55520056D02*
X66509048Y-55662913D01*
X66509048Y-55662913D02*
X66461429Y-55853389D01*
X66461429Y-55853389D02*
X66461429Y-56234341D01*
X66461429Y-56234341D02*
X66509048Y-56329579D01*
X66509048Y-56329579D02*
X66556667Y-56377199D01*
X66556667Y-56377199D02*
X66651905Y-56424818D01*
X66651905Y-56424818D02*
X66842381Y-56424818D01*
X66842381Y-56424818D02*
X66937619Y-56377199D01*
X66937619Y-56377199D02*
X66985238Y-56329579D01*
X66985238Y-56329579D02*
X67032857Y-56234341D01*
X67032857Y-56234341D02*
X67032857Y-55996246D01*
X67032857Y-55996246D02*
X66985238Y-55901008D01*
X66985238Y-55901008D02*
X66937619Y-55853389D01*
X66937619Y-55853389D02*
X66842381Y-55805770D01*
X66842381Y-55805770D02*
X66651905Y-55805770D01*
X66651905Y-55805770D02*
X66556667Y-55853389D01*
X66556667Y-55853389D02*
X66509048Y-55901008D01*
X66509048Y-55901008D02*
X66461429Y-55996246D01*
X98403095Y-66294819D02*
X98403095Y-67104342D01*
X98403095Y-67104342D02*
X98450714Y-67199580D01*
X98450714Y-67199580D02*
X98498333Y-67247200D01*
X98498333Y-67247200D02*
X98593571Y-67294819D01*
X98593571Y-67294819D02*
X98784047Y-67294819D01*
X98784047Y-67294819D02*
X98879285Y-67247200D01*
X98879285Y-67247200D02*
X98926904Y-67199580D01*
X98926904Y-67199580D02*
X98974523Y-67104342D01*
X98974523Y-67104342D02*
X98974523Y-66294819D01*
X99926904Y-66294819D02*
X99450714Y-66294819D01*
X99450714Y-66294819D02*
X99403095Y-66771009D01*
X99403095Y-66771009D02*
X99450714Y-66723390D01*
X99450714Y-66723390D02*
X99545952Y-66675771D01*
X99545952Y-66675771D02*
X99784047Y-66675771D01*
X99784047Y-66675771D02*
X99879285Y-66723390D01*
X99879285Y-66723390D02*
X99926904Y-66771009D01*
X99926904Y-66771009D02*
X99974523Y-66866247D01*
X99974523Y-66866247D02*
X99974523Y-67104342D01*
X99974523Y-67104342D02*
X99926904Y-67199580D01*
X99926904Y-67199580D02*
X99879285Y-67247200D01*
X99879285Y-67247200D02*
X99784047Y-67294819D01*
X99784047Y-67294819D02*
X99545952Y-67294819D01*
X99545952Y-67294819D02*
X99450714Y-67247200D01*
X99450714Y-67247200D02*
X99403095Y-67199580D01*
X75218095Y-64827319D02*
X75218095Y-65636842D01*
X75218095Y-65636842D02*
X75265714Y-65732080D01*
X75265714Y-65732080D02*
X75313333Y-65779700D01*
X75313333Y-65779700D02*
X75408571Y-65827319D01*
X75408571Y-65827319D02*
X75599047Y-65827319D01*
X75599047Y-65827319D02*
X75694285Y-65779700D01*
X75694285Y-65779700D02*
X75741904Y-65732080D01*
X75741904Y-65732080D02*
X75789523Y-65636842D01*
X75789523Y-65636842D02*
X75789523Y-64827319D01*
X76170476Y-64827319D02*
X76837142Y-64827319D01*
X76837142Y-64827319D02*
X76408571Y-65827319D01*
X74227142Y-75234819D02*
X73893809Y-74758628D01*
X73655714Y-75234819D02*
X73655714Y-74234819D01*
X73655714Y-74234819D02*
X74036666Y-74234819D01*
X74036666Y-74234819D02*
X74131904Y-74282438D01*
X74131904Y-74282438D02*
X74179523Y-74330057D01*
X74179523Y-74330057D02*
X74227142Y-74425295D01*
X74227142Y-74425295D02*
X74227142Y-74568152D01*
X74227142Y-74568152D02*
X74179523Y-74663390D01*
X74179523Y-74663390D02*
X74131904Y-74711009D01*
X74131904Y-74711009D02*
X74036666Y-74758628D01*
X74036666Y-74758628D02*
X73655714Y-74758628D01*
X75179523Y-75234819D02*
X74608095Y-75234819D01*
X74893809Y-75234819D02*
X74893809Y-74234819D01*
X74893809Y-74234819D02*
X74798571Y-74377676D01*
X74798571Y-74377676D02*
X74703333Y-74472914D01*
X74703333Y-74472914D02*
X74608095Y-74520533D01*
X76036666Y-74568152D02*
X76036666Y-75234819D01*
X75798571Y-74187200D02*
X75560476Y-74901485D01*
X75560476Y-74901485D02*
X76179523Y-74901485D01*
X98548333Y-39199580D02*
X98500714Y-39247200D01*
X98500714Y-39247200D02*
X98357857Y-39294819D01*
X98357857Y-39294819D02*
X98262619Y-39294819D01*
X98262619Y-39294819D02*
X98119762Y-39247200D01*
X98119762Y-39247200D02*
X98024524Y-39151961D01*
X98024524Y-39151961D02*
X97976905Y-39056723D01*
X97976905Y-39056723D02*
X97929286Y-38866247D01*
X97929286Y-38866247D02*
X97929286Y-38723390D01*
X97929286Y-38723390D02*
X97976905Y-38532914D01*
X97976905Y-38532914D02*
X98024524Y-38437676D01*
X98024524Y-38437676D02*
X98119762Y-38342438D01*
X98119762Y-38342438D02*
X98262619Y-38294819D01*
X98262619Y-38294819D02*
X98357857Y-38294819D01*
X98357857Y-38294819D02*
X98500714Y-38342438D01*
X98500714Y-38342438D02*
X98548333Y-38390057D01*
X99119762Y-38723390D02*
X99024524Y-38675771D01*
X99024524Y-38675771D02*
X98976905Y-38628152D01*
X98976905Y-38628152D02*
X98929286Y-38532914D01*
X98929286Y-38532914D02*
X98929286Y-38485295D01*
X98929286Y-38485295D02*
X98976905Y-38390057D01*
X98976905Y-38390057D02*
X99024524Y-38342438D01*
X99024524Y-38342438D02*
X99119762Y-38294819D01*
X99119762Y-38294819D02*
X99310238Y-38294819D01*
X99310238Y-38294819D02*
X99405476Y-38342438D01*
X99405476Y-38342438D02*
X99453095Y-38390057D01*
X99453095Y-38390057D02*
X99500714Y-38485295D01*
X99500714Y-38485295D02*
X99500714Y-38532914D01*
X99500714Y-38532914D02*
X99453095Y-38628152D01*
X99453095Y-38628152D02*
X99405476Y-38675771D01*
X99405476Y-38675771D02*
X99310238Y-38723390D01*
X99310238Y-38723390D02*
X99119762Y-38723390D01*
X99119762Y-38723390D02*
X99024524Y-38771009D01*
X99024524Y-38771009D02*
X98976905Y-38818628D01*
X98976905Y-38818628D02*
X98929286Y-38913866D01*
X98929286Y-38913866D02*
X98929286Y-39104342D01*
X98929286Y-39104342D02*
X98976905Y-39199580D01*
X98976905Y-39199580D02*
X99024524Y-39247200D01*
X99024524Y-39247200D02*
X99119762Y-39294819D01*
X99119762Y-39294819D02*
X99310238Y-39294819D01*
X99310238Y-39294819D02*
X99405476Y-39247200D01*
X99405476Y-39247200D02*
X99453095Y-39199580D01*
X99453095Y-39199580D02*
X99500714Y-39104342D01*
X99500714Y-39104342D02*
X99500714Y-38913866D01*
X99500714Y-38913866D02*
X99453095Y-38818628D01*
X99453095Y-38818628D02*
X99405476Y-38771009D01*
X99405476Y-38771009D02*
X99310238Y-38723390D01*
X81043333Y-68904819D02*
X80567143Y-68904819D01*
X80567143Y-68904819D02*
X80567143Y-67904819D01*
X81805238Y-68238152D02*
X81805238Y-68904819D01*
X81567143Y-67857200D02*
X81329048Y-68571485D01*
X81329048Y-68571485D02*
X81948095Y-68571485D01*
X94817142Y-70059579D02*
X94769523Y-70107199D01*
X94769523Y-70107199D02*
X94626666Y-70154818D01*
X94626666Y-70154818D02*
X94531428Y-70154818D01*
X94531428Y-70154818D02*
X94388571Y-70107199D01*
X94388571Y-70107199D02*
X94293333Y-70011960D01*
X94293333Y-70011960D02*
X94245714Y-69916722D01*
X94245714Y-69916722D02*
X94198095Y-69726246D01*
X94198095Y-69726246D02*
X94198095Y-69583389D01*
X94198095Y-69583389D02*
X94245714Y-69392913D01*
X94245714Y-69392913D02*
X94293333Y-69297675D01*
X94293333Y-69297675D02*
X94388571Y-69202437D01*
X94388571Y-69202437D02*
X94531428Y-69154818D01*
X94531428Y-69154818D02*
X94626666Y-69154818D01*
X94626666Y-69154818D02*
X94769523Y-69202437D01*
X94769523Y-69202437D02*
X94817142Y-69250056D01*
X95198095Y-69250056D02*
X95245714Y-69202437D01*
X95245714Y-69202437D02*
X95340952Y-69154818D01*
X95340952Y-69154818D02*
X95579047Y-69154818D01*
X95579047Y-69154818D02*
X95674285Y-69202437D01*
X95674285Y-69202437D02*
X95721904Y-69250056D01*
X95721904Y-69250056D02*
X95769523Y-69345294D01*
X95769523Y-69345294D02*
X95769523Y-69440532D01*
X95769523Y-69440532D02*
X95721904Y-69583389D01*
X95721904Y-69583389D02*
X95150476Y-70154818D01*
X95150476Y-70154818D02*
X95769523Y-70154818D01*
X96245714Y-70154818D02*
X96436190Y-70154818D01*
X96436190Y-70154818D02*
X96531428Y-70107199D01*
X96531428Y-70107199D02*
X96579047Y-70059579D01*
X96579047Y-70059579D02*
X96674285Y-69916722D01*
X96674285Y-69916722D02*
X96721904Y-69726246D01*
X96721904Y-69726246D02*
X96721904Y-69345294D01*
X96721904Y-69345294D02*
X96674285Y-69250056D01*
X96674285Y-69250056D02*
X96626666Y-69202437D01*
X96626666Y-69202437D02*
X96531428Y-69154818D01*
X96531428Y-69154818D02*
X96340952Y-69154818D01*
X96340952Y-69154818D02*
X96245714Y-69202437D01*
X96245714Y-69202437D02*
X96198095Y-69250056D01*
X96198095Y-69250056D02*
X96150476Y-69345294D01*
X96150476Y-69345294D02*
X96150476Y-69583389D01*
X96150476Y-69583389D02*
X96198095Y-69678627D01*
X96198095Y-69678627D02*
X96245714Y-69726246D01*
X96245714Y-69726246D02*
X96340952Y-69773865D01*
X96340952Y-69773865D02*
X96531428Y-69773865D01*
X96531428Y-69773865D02*
X96626666Y-69726246D01*
X96626666Y-69726246D02*
X96674285Y-69678627D01*
X96674285Y-69678627D02*
X96721904Y-69583389D01*
X42690476Y-74244819D02*
X42690476Y-74959104D01*
X42690476Y-74959104D02*
X42642857Y-75101961D01*
X42642857Y-75101961D02*
X42547619Y-75197200D01*
X42547619Y-75197200D02*
X42404762Y-75244819D01*
X42404762Y-75244819D02*
X42309524Y-75244819D01*
X43690476Y-75244819D02*
X43119048Y-75244819D01*
X43404762Y-75244819D02*
X43404762Y-74244819D01*
X43404762Y-74244819D02*
X43309524Y-74387676D01*
X43309524Y-74387676D02*
X43214286Y-74482914D01*
X43214286Y-74482914D02*
X43119048Y-74530533D01*
X44642857Y-75244819D02*
X44071429Y-75244819D01*
X44357143Y-75244819D02*
X44357143Y-74244819D01*
X44357143Y-74244819D02*
X44261905Y-74387676D01*
X44261905Y-74387676D02*
X44166667Y-74482914D01*
X44166667Y-74482914D02*
X44071429Y-74530533D01*
X57727142Y-68004819D02*
X57393809Y-67528628D01*
X57155714Y-68004819D02*
X57155714Y-67004819D01*
X57155714Y-67004819D02*
X57536666Y-67004819D01*
X57536666Y-67004819D02*
X57631904Y-67052438D01*
X57631904Y-67052438D02*
X57679523Y-67100057D01*
X57679523Y-67100057D02*
X57727142Y-67195295D01*
X57727142Y-67195295D02*
X57727142Y-67338152D01*
X57727142Y-67338152D02*
X57679523Y-67433390D01*
X57679523Y-67433390D02*
X57631904Y-67481009D01*
X57631904Y-67481009D02*
X57536666Y-67528628D01*
X57536666Y-67528628D02*
X57155714Y-67528628D01*
X58679523Y-68004819D02*
X58108095Y-68004819D01*
X58393809Y-68004819D02*
X58393809Y-67004819D01*
X58393809Y-67004819D02*
X58298571Y-67147676D01*
X58298571Y-67147676D02*
X58203333Y-67242914D01*
X58203333Y-67242914D02*
X58108095Y-67290533D01*
X59012857Y-67004819D02*
X59679523Y-67004819D01*
X59679523Y-67004819D02*
X59250952Y-68004819D01*
X69234818Y-61227023D02*
X70234818Y-60893690D01*
X70234818Y-60893690D02*
X69234818Y-60560357D01*
X70234818Y-60227023D02*
X69234818Y-60227023D01*
X69234818Y-60227023D02*
X69234818Y-59988928D01*
X69234818Y-59988928D02*
X69282437Y-59846071D01*
X69282437Y-59846071D02*
X69377675Y-59750833D01*
X69377675Y-59750833D02*
X69472913Y-59703214D01*
X69472913Y-59703214D02*
X69663389Y-59655595D01*
X69663389Y-59655595D02*
X69806246Y-59655595D01*
X69806246Y-59655595D02*
X69996722Y-59703214D01*
X69996722Y-59703214D02*
X70091960Y-59750833D01*
X70091960Y-59750833D02*
X70187199Y-59846071D01*
X70187199Y-59846071D02*
X70234818Y-59988928D01*
X70234818Y-59988928D02*
X70234818Y-60227023D01*
X69234818Y-59322261D02*
X69234818Y-58703214D01*
X69234818Y-58703214D02*
X69615770Y-59036547D01*
X69615770Y-59036547D02*
X69615770Y-58893690D01*
X69615770Y-58893690D02*
X69663389Y-58798452D01*
X69663389Y-58798452D02*
X69711008Y-58750833D01*
X69711008Y-58750833D02*
X69806246Y-58703214D01*
X69806246Y-58703214D02*
X70044341Y-58703214D01*
X70044341Y-58703214D02*
X70139579Y-58750833D01*
X70139579Y-58750833D02*
X70187199Y-58798452D01*
X70187199Y-58798452D02*
X70234818Y-58893690D01*
X70234818Y-58893690D02*
X70234818Y-59179404D01*
X70234818Y-59179404D02*
X70187199Y-59274642D01*
X70187199Y-59274642D02*
X70139579Y-59322261D01*
X53276666Y-55414819D02*
X53276666Y-56129104D01*
X53276666Y-56129104D02*
X53229047Y-56271961D01*
X53229047Y-56271961D02*
X53133809Y-56367200D01*
X53133809Y-56367200D02*
X52990952Y-56414819D01*
X52990952Y-56414819D02*
X52895714Y-56414819D01*
X54181428Y-55414819D02*
X53990952Y-55414819D01*
X53990952Y-55414819D02*
X53895714Y-55462438D01*
X53895714Y-55462438D02*
X53848095Y-55510057D01*
X53848095Y-55510057D02*
X53752857Y-55652914D01*
X53752857Y-55652914D02*
X53705238Y-55843390D01*
X53705238Y-55843390D02*
X53705238Y-56224342D01*
X53705238Y-56224342D02*
X53752857Y-56319580D01*
X53752857Y-56319580D02*
X53800476Y-56367200D01*
X53800476Y-56367200D02*
X53895714Y-56414819D01*
X53895714Y-56414819D02*
X54086190Y-56414819D01*
X54086190Y-56414819D02*
X54181428Y-56367200D01*
X54181428Y-56367200D02*
X54229047Y-56319580D01*
X54229047Y-56319580D02*
X54276666Y-56224342D01*
X54276666Y-56224342D02*
X54276666Y-55986247D01*
X54276666Y-55986247D02*
X54229047Y-55891009D01*
X54229047Y-55891009D02*
X54181428Y-55843390D01*
X54181428Y-55843390D02*
X54086190Y-55795771D01*
X54086190Y-55795771D02*
X53895714Y-55795771D01*
X53895714Y-55795771D02*
X53800476Y-55843390D01*
X53800476Y-55843390D02*
X53752857Y-55891009D01*
X53752857Y-55891009D02*
X53705238Y-55986247D01*
X104183809Y-56249819D02*
X104374285Y-56249819D01*
X104374285Y-56249819D02*
X104469523Y-56297438D01*
X104469523Y-56297438D02*
X104564761Y-56392676D01*
X104564761Y-56392676D02*
X104612380Y-56583152D01*
X104612380Y-56583152D02*
X104612380Y-56916485D01*
X104612380Y-56916485D02*
X104564761Y-57106961D01*
X104564761Y-57106961D02*
X104469523Y-57202200D01*
X104469523Y-57202200D02*
X104374285Y-57249819D01*
X104374285Y-57249819D02*
X104183809Y-57249819D01*
X104183809Y-57249819D02*
X104088571Y-57202200D01*
X104088571Y-57202200D02*
X103993333Y-57106961D01*
X103993333Y-57106961D02*
X103945714Y-56916485D01*
X103945714Y-56916485D02*
X103945714Y-56583152D01*
X103945714Y-56583152D02*
X103993333Y-56392676D01*
X103993333Y-56392676D02*
X104088571Y-56297438D01*
X104088571Y-56297438D02*
X104183809Y-56249819D01*
X105040952Y-57249819D02*
X105040952Y-56249819D01*
X105040952Y-56630771D02*
X105136190Y-56583152D01*
X105136190Y-56583152D02*
X105326666Y-56583152D01*
X105326666Y-56583152D02*
X105421904Y-56630771D01*
X105421904Y-56630771D02*
X105469523Y-56678390D01*
X105469523Y-56678390D02*
X105517142Y-56773628D01*
X105517142Y-56773628D02*
X105517142Y-57059342D01*
X105517142Y-57059342D02*
X105469523Y-57154580D01*
X105469523Y-57154580D02*
X105421904Y-57202200D01*
X105421904Y-57202200D02*
X105326666Y-57249819D01*
X105326666Y-57249819D02*
X105136190Y-57249819D01*
X105136190Y-57249819D02*
X105040952Y-57202200D01*
X105945714Y-56583152D02*
X105945714Y-57440295D01*
X105945714Y-57440295D02*
X105898095Y-57535533D01*
X105898095Y-57535533D02*
X105802857Y-57583152D01*
X105802857Y-57583152D02*
X105755238Y-57583152D01*
X105945714Y-56249819D02*
X105898095Y-56297438D01*
X105898095Y-56297438D02*
X105945714Y-56345057D01*
X105945714Y-56345057D02*
X105993333Y-56297438D01*
X105993333Y-56297438D02*
X105945714Y-56249819D01*
X105945714Y-56249819D02*
X105945714Y-56345057D01*
X106802856Y-57202200D02*
X106707618Y-57249819D01*
X106707618Y-57249819D02*
X106517142Y-57249819D01*
X106517142Y-57249819D02*
X106421904Y-57202200D01*
X106421904Y-57202200D02*
X106374285Y-57106961D01*
X106374285Y-57106961D02*
X106374285Y-56726009D01*
X106374285Y-56726009D02*
X106421904Y-56630771D01*
X106421904Y-56630771D02*
X106517142Y-56583152D01*
X106517142Y-56583152D02*
X106707618Y-56583152D01*
X106707618Y-56583152D02*
X106802856Y-56630771D01*
X106802856Y-56630771D02*
X106850475Y-56726009D01*
X106850475Y-56726009D02*
X106850475Y-56821247D01*
X106850475Y-56821247D02*
X106374285Y-56916485D01*
X107707618Y-57202200D02*
X107612380Y-57249819D01*
X107612380Y-57249819D02*
X107421904Y-57249819D01*
X107421904Y-57249819D02*
X107326666Y-57202200D01*
X107326666Y-57202200D02*
X107279047Y-57154580D01*
X107279047Y-57154580D02*
X107231428Y-57059342D01*
X107231428Y-57059342D02*
X107231428Y-56773628D01*
X107231428Y-56773628D02*
X107279047Y-56678390D01*
X107279047Y-56678390D02*
X107326666Y-56630771D01*
X107326666Y-56630771D02*
X107421904Y-56583152D01*
X107421904Y-56583152D02*
X107612380Y-56583152D01*
X107612380Y-56583152D02*
X107707618Y-56630771D01*
X107993333Y-56583152D02*
X108374285Y-56583152D01*
X108136190Y-56249819D02*
X108136190Y-57106961D01*
X108136190Y-57106961D02*
X108183809Y-57202200D01*
X108183809Y-57202200D02*
X108279047Y-57249819D01*
X108279047Y-57249819D02*
X108374285Y-57249819D01*
X108707619Y-57249819D02*
X108707619Y-56583152D01*
X108707619Y-56249819D02*
X108660000Y-56297438D01*
X108660000Y-56297438D02*
X108707619Y-56345057D01*
X108707619Y-56345057D02*
X108755238Y-56297438D01*
X108755238Y-56297438D02*
X108707619Y-56249819D01*
X108707619Y-56249819D02*
X108707619Y-56345057D01*
X109088571Y-56583152D02*
X109326666Y-57249819D01*
X109326666Y-57249819D02*
X109564761Y-56583152D01*
X110326666Y-57202200D02*
X110231428Y-57249819D01*
X110231428Y-57249819D02*
X110040952Y-57249819D01*
X110040952Y-57249819D02*
X109945714Y-57202200D01*
X109945714Y-57202200D02*
X109898095Y-57106961D01*
X109898095Y-57106961D02*
X109898095Y-56726009D01*
X109898095Y-56726009D02*
X109945714Y-56630771D01*
X109945714Y-56630771D02*
X110040952Y-56583152D01*
X110040952Y-56583152D02*
X110231428Y-56583152D01*
X110231428Y-56583152D02*
X110326666Y-56630771D01*
X110326666Y-56630771D02*
X110374285Y-56726009D01*
X110374285Y-56726009D02*
X110374285Y-56821247D01*
X110374285Y-56821247D02*
X109898095Y-56916485D01*
D10*
%TO.C,J8*%
X88305000Y-55380000D02*
X88305000Y-63000000D01*
X88305000Y-63000000D02*
X94275000Y-63000000D01*
X89065000Y-56140000D02*
X89065000Y-59190000D01*
X89065000Y-62240000D02*
X89065000Y-59190000D01*
X92015000Y-55390000D02*
X92015000Y-56140000D01*
X92015000Y-56140000D02*
X89065000Y-56140000D01*
X92015000Y-62240000D02*
X89065000Y-62240000D01*
X92015000Y-62990000D02*
X92015000Y-62240000D01*
X93515000Y-55390000D02*
X93515000Y-57189999D01*
X93515000Y-57189999D02*
X94265001Y-57190000D01*
X93515000Y-58690001D02*
X93515000Y-59689999D01*
X93515000Y-59689999D02*
X94265000Y-59689999D01*
X93515000Y-61190001D02*
X93515000Y-62990000D01*
X93515000Y-62990000D02*
X94265000Y-62990000D01*
X94265000Y-55390000D02*
X93515000Y-55390000D01*
X94265000Y-59689999D02*
X94265001Y-58690000D01*
X94265000Y-62990000D02*
X94265001Y-61190000D01*
X94265001Y-57190000D02*
X94265000Y-55390000D01*
X94265001Y-58690000D02*
X93515000Y-58690001D01*
X94265001Y-61190000D02*
X93515000Y-61190001D01*
X94275000Y-55380000D02*
X88305000Y-55380000D01*
X94275000Y-63000000D02*
X94275000Y-55380000D01*
X94565000Y-55090000D02*
X93315000Y-55090000D01*
X94565000Y-56340000D02*
X94565000Y-55090000D01*
%TO.C,R51*%
X47774724Y-63727500D02*
X47265276Y-63727500D01*
X47774724Y-64772500D02*
X47265276Y-64772500D01*
%TO.C,C26*%
X94975000Y-63251253D02*
X94975000Y-62728747D01*
X96445000Y-63251253D02*
X96445000Y-62728747D01*
%TO.C,C12*%
X107031233Y-68530000D02*
X107323767Y-68530000D01*
X107031233Y-69550000D02*
X107323767Y-69550000D01*
%TO.C,C30*%
X45110000Y-65316267D02*
X45110000Y-65023733D01*
X44090000Y-65316267D02*
X44090000Y-65023733D01*
%TO.C,VD5*%
X49900000Y-67200000D02*
X49900000Y-71210000D01*
X51900000Y-67200000D02*
X49900000Y-67200000D01*
X51900000Y-67200000D02*
X51900000Y-71210000D01*
%TO.C,L2*%
X74110000Y-31870001D02*
X74110000Y-32270001D01*
X74110000Y-31870001D02*
X79630000Y-31870001D01*
X74110000Y-37390001D02*
X74110000Y-36990001D01*
X74110000Y-37390001D02*
X79630000Y-37390001D01*
X79630000Y-31870001D02*
X79630000Y-32270001D01*
X79630000Y-37390001D02*
X79630000Y-36990001D01*
%TO.C,C2*%
X91680000Y-69863733D02*
X91680000Y-70156267D01*
X92700000Y-69863733D02*
X92700000Y-70156267D01*
%TO.C,C17*%
X70705000Y-65751253D02*
X70705000Y-65228747D01*
X72175000Y-65751253D02*
X72175000Y-65228747D01*
%TO.C,C3*%
X69928747Y-73975000D02*
X70451253Y-73975000D01*
X69928747Y-75445000D02*
X70451253Y-75445000D01*
%TO.C,J1*%
X88865000Y-32060000D02*
X88865000Y-39680000D01*
X88865000Y-39680000D02*
X94835000Y-39680000D01*
X89625000Y-32820000D02*
X89625000Y-35870000D01*
X89625000Y-38920000D02*
X89625000Y-35870000D01*
X92575000Y-32070000D02*
X92575000Y-32820000D01*
X92575000Y-32820000D02*
X89625000Y-32820000D01*
X92575000Y-38920000D02*
X89625000Y-38920000D01*
X92575000Y-39670000D02*
X92575000Y-38920000D01*
X94075000Y-32070000D02*
X94075000Y-33869999D01*
X94075000Y-33869999D02*
X94825001Y-33870000D01*
X94075000Y-35370001D02*
X94075000Y-36369999D01*
X94075000Y-36369999D02*
X94825000Y-36369999D01*
X94075000Y-37870001D02*
X94075000Y-39670000D01*
X94075000Y-39670000D02*
X94825000Y-39670000D01*
X94825000Y-32070000D02*
X94075000Y-32070000D01*
X94825000Y-36369999D02*
X94825001Y-35370000D01*
X94825000Y-39670000D02*
X94825001Y-37870000D01*
X94825001Y-33870000D02*
X94825000Y-32070000D01*
X94825001Y-35370000D02*
X94075000Y-35370001D01*
X94825001Y-37870000D02*
X94075000Y-37870001D01*
X94835000Y-32060000D02*
X88865000Y-32060000D01*
X94835000Y-39680000D02*
X94835000Y-32060000D01*
X95125000Y-31770000D02*
X93875000Y-31770000D01*
X95125000Y-33020000D02*
X95125000Y-31770000D01*
%TO.C,U12*%
X47549999Y-65262499D02*
X46749999Y-65262500D01*
X47549999Y-65262499D02*
X48349999Y-65262500D01*
X47549999Y-68382501D02*
X46749999Y-68382500D01*
X47549999Y-68382501D02*
X48349999Y-68382500D01*
X49089999Y-68662500D02*
X48609999Y-68662500D01*
X48849999Y-68332500D01*
X49089999Y-68662500D01*
G36*
X49089999Y-68662500D02*
G01*
X48609999Y-68662500D01*
X48849999Y-68332500D01*
X49089999Y-68662500D01*
G37*
%TO.C,J5*%
X90440000Y-40540000D02*
X90440000Y-48160000D01*
X90440000Y-48160000D02*
X96410000Y-48160000D01*
X91200000Y-41300000D02*
X91200000Y-44350000D01*
X91200000Y-47400000D02*
X91200000Y-44350000D01*
X94150000Y-40550000D02*
X94150000Y-41300000D01*
X94150000Y-41300000D02*
X91200000Y-41300000D01*
X94150000Y-47400000D02*
X91200000Y-47400000D01*
X94150000Y-48150000D02*
X94150000Y-47400000D01*
X95650000Y-40550000D02*
X95650000Y-42349999D01*
X95650000Y-42349999D02*
X96400001Y-42350000D01*
X95650000Y-43850001D02*
X95650000Y-44849999D01*
X95650000Y-44849999D02*
X96400000Y-44849999D01*
X95650000Y-46350001D02*
X95650000Y-48150000D01*
X95650000Y-48150000D02*
X96400000Y-48150000D01*
X96400000Y-40550000D02*
X95650000Y-40550000D01*
X96400000Y-44849999D02*
X96400001Y-43850000D01*
X96400000Y-48150000D02*
X96400001Y-46350000D01*
X96400001Y-42350000D02*
X96400000Y-40550000D01*
X96400001Y-43850000D02*
X95650000Y-43850001D01*
X96400001Y-46350000D02*
X95650000Y-46350001D01*
X96410000Y-40540000D02*
X90440000Y-40540000D01*
X96410000Y-48160000D02*
X96410000Y-40540000D01*
X96700000Y-40250000D02*
X95450000Y-40250000D01*
X96700000Y-41500000D02*
X96700000Y-40250000D01*
%TO.C,R15*%
X73637500Y-66454724D02*
X73637500Y-65945276D01*
X74682500Y-66454724D02*
X74682500Y-65945276D01*
%TO.C,R7*%
X106457224Y-52017500D02*
X105947776Y-52017500D01*
X106457224Y-53062500D02*
X105947776Y-53062500D01*
%TO.C,J14*%
X59950000Y-70765001D02*
X59950000Y-72015001D01*
X60240000Y-71055001D02*
X60240000Y-77025001D01*
X60240000Y-77025001D02*
X67860000Y-77025001D01*
X60250000Y-71065001D02*
X60250000Y-71815001D01*
X60250000Y-71815001D02*
X62049999Y-71815001D01*
X60250000Y-73315001D02*
X61000000Y-73315001D01*
X61000000Y-73315001D02*
X61000000Y-76265001D01*
X61000000Y-76265001D02*
X64050000Y-76265001D01*
X61200000Y-70765001D02*
X59950000Y-70765001D01*
X62049999Y-71815001D02*
X62050000Y-71065000D01*
X62050000Y-71065000D02*
X60250000Y-71065001D01*
X63550000Y-71065000D02*
X63550001Y-71815001D01*
X63550001Y-71815001D02*
X64549999Y-71815001D01*
X64549999Y-71065001D02*
X63550000Y-71065000D01*
X64549999Y-71815001D02*
X64549999Y-71065001D01*
X66050000Y-71065000D02*
X66050001Y-71815001D01*
X66050001Y-71815001D02*
X67850000Y-71815001D01*
X67100000Y-73315001D02*
X67100000Y-76265001D01*
X67100000Y-76265001D02*
X64050000Y-76265001D01*
X67850000Y-71065001D02*
X66050000Y-71065000D01*
X67850000Y-71815001D02*
X67850000Y-71065001D01*
X67850000Y-73315001D02*
X67100000Y-73315001D01*
X67860000Y-71055001D02*
X60240000Y-71055001D01*
X67860000Y-77025001D02*
X67860000Y-71055001D01*
%TO.C,J19*%
X44360000Y-32080000D02*
X44360000Y-33330000D01*
X44650000Y-32370000D02*
X44650000Y-38340000D01*
X44650000Y-38340000D02*
X57270000Y-38340000D01*
X44660000Y-32380000D02*
X44660000Y-33130000D01*
X44660000Y-33130000D02*
X46459999Y-33130000D01*
X44660000Y-34630000D02*
X45410000Y-34630000D01*
X45410000Y-34630000D02*
X45410000Y-37580000D01*
X45410000Y-37580000D02*
X50960000Y-37580000D01*
X45610000Y-32080000D02*
X44360000Y-32080000D01*
X46459999Y-33130000D02*
X46460000Y-32379999D01*
X46460000Y-32379999D02*
X44660000Y-32380000D01*
X47960000Y-32379999D02*
X47960001Y-33130000D01*
X47960001Y-33130000D02*
X53960000Y-33130000D01*
X53960000Y-32380000D02*
X47960000Y-32379999D01*
X53960000Y-33130000D02*
X53960000Y-32380000D01*
X55459999Y-33130000D02*
X57260000Y-33130000D01*
X55460000Y-32379999D02*
X55459999Y-33130000D01*
X56510000Y-34630001D02*
X56510000Y-37580000D01*
X56510000Y-37580000D02*
X50960000Y-37580000D01*
X57260000Y-32380000D02*
X55460000Y-32379999D01*
X57260000Y-33130000D02*
X57260000Y-32380000D01*
X57260000Y-34630000D02*
X56510000Y-34630001D01*
X57270000Y-32370000D02*
X44650000Y-32370000D01*
X57270000Y-38340000D02*
X57270000Y-32370000D01*
%TO.C,R10*%
X110307500Y-62024724D02*
X110307500Y-61515276D01*
X111352500Y-62024724D02*
X111352500Y-61515276D01*
%TO.C,R50*%
X51704723Y-64017500D02*
X51195275Y-64017500D01*
X51704723Y-65062500D02*
X51195275Y-65062500D01*
%TO.C,VD4*%
X71530000Y-40447500D02*
X71530000Y-36437500D01*
X71530000Y-40447500D02*
X73530000Y-40447500D01*
X73530000Y-40447500D02*
X73530000Y-36437500D01*
%TO.C,R42*%
X83280277Y-67597501D02*
X83789725Y-67597501D01*
X83280277Y-68642501D02*
X83789725Y-68642501D01*
%TO.C,C27*%
X48910000Y-75003733D02*
X48910000Y-75296267D01*
X49930000Y-75003733D02*
X49930000Y-75296267D01*
%TO.C,J9*%
X81085001Y-65350000D02*
X81085001Y-66600000D01*
X81085001Y-66600000D02*
X82335001Y-66600000D01*
X81375001Y-58690000D02*
X81375001Y-66310000D01*
X81375001Y-66310000D02*
X87345001Y-66310000D01*
X81385000Y-60500000D02*
X82135001Y-60499999D01*
X81385000Y-63000000D02*
X82135001Y-62999999D01*
X81385000Y-64500000D02*
X81385001Y-66300000D01*
X81385001Y-58700000D02*
X81385000Y-60500000D01*
X81385001Y-62000001D02*
X81385000Y-63000000D01*
X81385001Y-66300000D02*
X82135001Y-66300000D01*
X82135001Y-58700000D02*
X81385001Y-58700000D01*
X82135001Y-60499999D02*
X82135001Y-58700000D01*
X82135001Y-62000001D02*
X81385001Y-62000001D01*
X82135001Y-62999999D02*
X82135001Y-62000001D01*
X82135001Y-64500001D02*
X81385000Y-64500000D01*
X82135001Y-66300000D02*
X82135001Y-64500001D01*
X83635001Y-58700000D02*
X83635001Y-59450000D01*
X83635001Y-59450000D02*
X86585001Y-59450000D01*
X83635001Y-65550000D02*
X86585001Y-65550000D01*
X83635001Y-66300000D02*
X83635001Y-65550000D01*
X86585001Y-59450000D02*
X86585001Y-62500000D01*
X86585001Y-65550000D02*
X86585001Y-62500000D01*
X87345001Y-58690000D02*
X81375001Y-58690000D01*
X87345001Y-66310000D02*
X87345001Y-58690000D01*
%TO.C,C1*%
X100550000Y-35127288D02*
X102090000Y-35127288D01*
X100550000Y-35167288D02*
X102090000Y-35167288D01*
X100551000Y-35087288D02*
X102090000Y-35087288D01*
X100552000Y-35047288D02*
X102090000Y-35047288D01*
X100554000Y-35007288D02*
X102090000Y-35007288D01*
X100557000Y-34967288D02*
X102090000Y-34967288D01*
X100561000Y-34927288D02*
X102090000Y-34927288D01*
X100565000Y-34887288D02*
X102090000Y-34887288D01*
X100569000Y-34847288D02*
X102090000Y-34847288D01*
X100574000Y-34807288D02*
X102090000Y-34807288D01*
X100580000Y-34767288D02*
X102090000Y-34767288D01*
X100587000Y-34727288D02*
X102090000Y-34727288D01*
X100594000Y-34687288D02*
X102090000Y-34687288D01*
X100602000Y-34647288D02*
X102090000Y-34647288D01*
X100610000Y-34607288D02*
X102090000Y-34607288D01*
X100619000Y-34567288D02*
X102090000Y-34567288D01*
X100629000Y-34527288D02*
X102090000Y-34527288D01*
X100639000Y-34487288D02*
X102090000Y-34487288D01*
X100650000Y-34446288D02*
X102090000Y-34446288D01*
X100662000Y-34406288D02*
X102090000Y-34406288D01*
X100675000Y-34366288D02*
X102090000Y-34366288D01*
X100688000Y-34326288D02*
X102090000Y-34326288D01*
X100702000Y-34286288D02*
X102090000Y-34286288D01*
X100716000Y-34246288D02*
X102090000Y-34246288D01*
X100732000Y-34206288D02*
X102090000Y-34206288D01*
X100748000Y-34166288D02*
X102090000Y-34166288D01*
X100765000Y-34126288D02*
X102090000Y-34126288D01*
X100782000Y-34086288D02*
X102090000Y-34086288D01*
X100801000Y-34046288D02*
X102090000Y-34046288D01*
X100820000Y-34006288D02*
X102090000Y-34006288D01*
X100840000Y-33966288D02*
X102090000Y-33966288D01*
X100862000Y-33926288D02*
X102090000Y-33926288D01*
X100883000Y-33886288D02*
X102090000Y-33886288D01*
X100906000Y-33846288D02*
X102090000Y-33846288D01*
X100930000Y-33806288D02*
X102090000Y-33806288D01*
X100955000Y-33766288D02*
X102090000Y-33766288D01*
X100981000Y-33726288D02*
X102090000Y-33726288D01*
X101008000Y-33686288D02*
X102090000Y-33686288D01*
X101035000Y-33646288D02*
X102090000Y-33646288D01*
X101065000Y-33606288D02*
X102090000Y-33606288D01*
X101095000Y-33566288D02*
X102090000Y-33566288D01*
X101126000Y-33526288D02*
X102090000Y-33526288D01*
X101159000Y-33486288D02*
X102090000Y-33486288D01*
X101193000Y-33446288D02*
X102090000Y-33446288D01*
X101229000Y-33406288D02*
X102090000Y-33406288D01*
X101266000Y-33366288D02*
X102090000Y-33366288D01*
X101304000Y-33326288D02*
X102090000Y-33326288D01*
X101345000Y-33286288D02*
X102090000Y-33286288D01*
X101387000Y-33246288D02*
X102090000Y-33246288D01*
X101405000Y-37722063D02*
X101905000Y-37722063D01*
X101431000Y-33206288D02*
X102090000Y-33206288D01*
X101477000Y-33166288D02*
X102090000Y-33166288D01*
X101525000Y-33126288D02*
X104735000Y-33126288D01*
X101576000Y-33086288D02*
X104684000Y-33086288D01*
X101630000Y-33046288D02*
X104630000Y-33046288D01*
X101655000Y-37972063D02*
X101655000Y-37472063D01*
X101687000Y-33006288D02*
X104573000Y-33006288D01*
X101747000Y-32966288D02*
X104513000Y-32966288D01*
X101811000Y-32926288D02*
X104449000Y-32926288D01*
X101879000Y-32886288D02*
X104381000Y-32886288D01*
X101952000Y-32846288D02*
X104308000Y-32846288D01*
X102032000Y-32806288D02*
X104228000Y-32806288D01*
X102119000Y-32766288D02*
X104141000Y-32766288D01*
X102215000Y-32726288D02*
X104045000Y-32726288D01*
X102325000Y-32686288D02*
X103935000Y-32686288D01*
X102453000Y-32646288D02*
X103807000Y-32646288D01*
X102612000Y-32606288D02*
X103648000Y-32606288D01*
X102846000Y-32566288D02*
X103414000Y-32566288D01*
X104170000Y-33166288D02*
X104783000Y-33166288D01*
X104170000Y-33206288D02*
X104829000Y-33206288D01*
X104170000Y-33246288D02*
X104873000Y-33246288D01*
X104170000Y-33286288D02*
X104915000Y-33286288D01*
X104170000Y-33326288D02*
X104956000Y-33326288D01*
X104170000Y-33366288D02*
X104994000Y-33366288D01*
X104170000Y-33406288D02*
X105031000Y-33406288D01*
X104170000Y-33446288D02*
X105067000Y-33446288D01*
X104170000Y-33486288D02*
X105101000Y-33486288D01*
X104170000Y-33526288D02*
X105134000Y-33526288D01*
X104170000Y-33566288D02*
X105165000Y-33566288D01*
X104170000Y-33606288D02*
X105195000Y-33606288D01*
X104170000Y-33646288D02*
X105225000Y-33646288D01*
X104170000Y-33686288D02*
X105252000Y-33686288D01*
X104170000Y-33726288D02*
X105279000Y-33726288D01*
X104170000Y-33766288D02*
X105305000Y-33766288D01*
X104170000Y-33806288D02*
X105330000Y-33806288D01*
X104170000Y-33846288D02*
X105354000Y-33846288D01*
X104170000Y-33886288D02*
X105377000Y-33886288D01*
X104170000Y-33926288D02*
X105398000Y-33926288D01*
X104170000Y-33966288D02*
X105420000Y-33966288D01*
X104170000Y-34006288D02*
X105440000Y-34006288D01*
X104170000Y-34046288D02*
X105459000Y-34046288D01*
X104170000Y-34086288D02*
X105478000Y-34086288D01*
X104170000Y-34126288D02*
X105495000Y-34126288D01*
X104170000Y-34166288D02*
X105512000Y-34166288D01*
X104170000Y-34206288D02*
X105528000Y-34206288D01*
X104170000Y-34246288D02*
X105544000Y-34246288D01*
X104170000Y-34286288D02*
X105558000Y-34286288D01*
X104170000Y-34326288D02*
X105572000Y-34326288D01*
X104170000Y-34366288D02*
X105585000Y-34366288D01*
X104170000Y-34406288D02*
X105598000Y-34406288D01*
X104170000Y-34446288D02*
X105610000Y-34446288D01*
X104170000Y-34487288D02*
X105621000Y-34487288D01*
X104170000Y-34527288D02*
X105631000Y-34527288D01*
X104170000Y-34567288D02*
X105641000Y-34567288D01*
X104170000Y-34607288D02*
X105650000Y-34607288D01*
X104170000Y-34647288D02*
X105658000Y-34647288D01*
X104170000Y-34687288D02*
X105666000Y-34687288D01*
X104170000Y-34727288D02*
X105673000Y-34727288D01*
X104170000Y-34767288D02*
X105680000Y-34767288D01*
X104170000Y-34807288D02*
X105686000Y-34807288D01*
X104170000Y-34847288D02*
X105691000Y-34847288D01*
X104170000Y-34887288D02*
X105695000Y-34887288D01*
X104170000Y-34927288D02*
X105699000Y-34927288D01*
X104170000Y-34967288D02*
X105703000Y-34967288D01*
X104170000Y-35007288D02*
X105706000Y-35007288D01*
X104170000Y-35047288D02*
X105708000Y-35047288D01*
X104170000Y-35087288D02*
X105709000Y-35087288D01*
X104170000Y-35127288D02*
X105710000Y-35127288D01*
X104170000Y-35167288D02*
X105710000Y-35167288D01*
X105750000Y-35167288D02*
G75*
G02*
X100510000Y-35167288I-2620000J0D01*
G01*
X100510000Y-35167288D02*
G75*
G02*
X105750000Y-35167288I2620000J0D01*
G01*
%TO.C,C9*%
X103349999Y-74620000D02*
X101840000Y-74620000D01*
X103349999Y-75341000D02*
X102061000Y-75341000D01*
X103349999Y-75781000D02*
X102325000Y-75781000D01*
X103349999Y-75941000D02*
X102453000Y-75941000D01*
X103349999Y-76221000D02*
X102737000Y-76221000D01*
X103350000Y-74220000D02*
X101810000Y-74220000D01*
X103350000Y-74260000D02*
X101810000Y-74260001D01*
X103350000Y-74300000D02*
X101811000Y-74300000D01*
X103350000Y-74340001D02*
X101812000Y-74340000D01*
X103350000Y-74380000D02*
X101814000Y-74380000D01*
X103350000Y-74420000D02*
X101817000Y-74420000D01*
X103350000Y-74459999D02*
X101821000Y-74460000D01*
X103350000Y-74500000D02*
X101825000Y-74500000D01*
X103350000Y-74540000D02*
X101829000Y-74539999D01*
X103350000Y-74580000D02*
X101834000Y-74580000D01*
X103350000Y-74660000D02*
X101847000Y-74660000D01*
X103350000Y-74700000D02*
X101854000Y-74700000D01*
X103350000Y-74740000D02*
X101862000Y-74740000D01*
X103350000Y-74780001D02*
X101869999Y-74780000D01*
X103350000Y-74820000D02*
X101879000Y-74820000D01*
X103350000Y-74860000D02*
X101889000Y-74860000D01*
X103350000Y-74899999D02*
X101899000Y-74899999D01*
X103350000Y-74941000D02*
X101910000Y-74941000D01*
X103350000Y-74981000D02*
X101922000Y-74981001D01*
X103350000Y-75021000D02*
X101935000Y-75021000D01*
X103350000Y-75061001D02*
X101948000Y-75061000D01*
X103350000Y-75101000D02*
X101962000Y-75101000D01*
X103350000Y-75141000D02*
X101976000Y-75141000D01*
X103350000Y-75180999D02*
X101992000Y-75180999D01*
X103350000Y-75221000D02*
X102008000Y-75221000D01*
X103350000Y-75261000D02*
X102025000Y-75260999D01*
X103350000Y-75301000D02*
X102042000Y-75301000D01*
X103350000Y-75381000D02*
X102080000Y-75381000D01*
X103350000Y-75421000D02*
X102099999Y-75421000D01*
X103350000Y-75461000D02*
X102122000Y-75461000D01*
X103350000Y-75501001D02*
X102143000Y-75501001D01*
X103350000Y-75541000D02*
X102166000Y-75541000D01*
X103350000Y-75581000D02*
X102190000Y-75581000D01*
X103350000Y-75620999D02*
X102215000Y-75621000D01*
X103350000Y-75661000D02*
X102241000Y-75661000D01*
X103350000Y-75701000D02*
X102267999Y-75701000D01*
X103350000Y-75741000D02*
X102295000Y-75741000D01*
X103350000Y-75821000D02*
X102355000Y-75821000D01*
X103350000Y-75861000D02*
X102386000Y-75861000D01*
X103350000Y-75901000D02*
X102419000Y-75901000D01*
X103350000Y-75981000D02*
X102489000Y-75981000D01*
X103350000Y-76021000D02*
X102526000Y-76021000D01*
X103350000Y-76060999D02*
X102564000Y-76060999D01*
X103350000Y-76101001D02*
X102605000Y-76101000D01*
X103350000Y-76141000D02*
X102647000Y-76141000D01*
X103350000Y-76181000D02*
X102691000Y-76181000D01*
X104674000Y-76821000D02*
X104106000Y-76821000D01*
X104908000Y-76781000D02*
X103872000Y-76781000D01*
X105067000Y-76741000D02*
X103713000Y-76741000D01*
X105195000Y-76701000D02*
X103585000Y-76701000D01*
X105305000Y-76661000D02*
X103475000Y-76661000D01*
X105401000Y-76621000D02*
X103379000Y-76621000D01*
X105488000Y-76581000D02*
X103292000Y-76581000D01*
X105568000Y-76541000D02*
X103212000Y-76541000D01*
X105641000Y-76501000D02*
X103139000Y-76501000D01*
X105709000Y-76461000D02*
X103071000Y-76461000D01*
X105773000Y-76421000D02*
X103007000Y-76421000D01*
X105833001Y-76381000D02*
X102946999Y-76381000D01*
X105865000Y-71415225D02*
X105865000Y-71915225D01*
X105890000Y-76341000D02*
X102890000Y-76341000D01*
X105944000Y-76301000D02*
X102836000Y-76301000D01*
X105995000Y-76261000D02*
X102785000Y-76261000D01*
X106043000Y-76221000D02*
X105430001Y-76221000D01*
X106089000Y-76181000D02*
X105430000Y-76181000D01*
X106115000Y-71665225D02*
X105615000Y-71665225D01*
X106133000Y-76141000D02*
X105430000Y-76141000D01*
X106175000Y-76101000D02*
X105430000Y-76101001D01*
X106216000Y-76060999D02*
X105430000Y-76060999D01*
X106254000Y-76021000D02*
X105430000Y-76021000D01*
X106291000Y-75981000D02*
X105430000Y-75981000D01*
X106327000Y-75941000D02*
X105430001Y-75941000D01*
X106361000Y-75901000D02*
X105430000Y-75901000D01*
X106394000Y-75861000D02*
X105430000Y-75861000D01*
X106425000Y-75821000D02*
X105430000Y-75821000D01*
X106455000Y-75781000D02*
X105430001Y-75781000D01*
X106485000Y-75741000D02*
X105430000Y-75741000D01*
X106512001Y-75701000D02*
X105430000Y-75701000D01*
X106539000Y-75661000D02*
X105430000Y-75661000D01*
X106565000Y-75621000D02*
X105430000Y-75620999D01*
X106590000Y-75581000D02*
X105430000Y-75581000D01*
X106614000Y-75541000D02*
X105430000Y-75541000D01*
X106637000Y-75501001D02*
X105430000Y-75501001D01*
X106658000Y-75461000D02*
X105430000Y-75461000D01*
X106680001Y-75421000D02*
X105430000Y-75421000D01*
X106700000Y-75381000D02*
X105430000Y-75381000D01*
X106719000Y-75341000D02*
X105430001Y-75341000D01*
X106738000Y-75301000D02*
X105430000Y-75301000D01*
X106755000Y-75260999D02*
X105430000Y-75261000D01*
X106772000Y-75221000D02*
X105430000Y-75221000D01*
X106788000Y-75180999D02*
X105430000Y-75180999D01*
X106804000Y-75141000D02*
X105430000Y-75141000D01*
X106818000Y-75101000D02*
X105430000Y-75101000D01*
X106832000Y-75061000D02*
X105430000Y-75061001D01*
X106845000Y-75021000D02*
X105430000Y-75021000D01*
X106858000Y-74981001D02*
X105430000Y-74981000D01*
X106870000Y-74941000D02*
X105430000Y-74941000D01*
X106881000Y-74899999D02*
X105430000Y-74899999D01*
X106891000Y-74860000D02*
X105430000Y-74860000D01*
X106901000Y-74820000D02*
X105430000Y-74820000D01*
X106910001Y-74780000D02*
X105430000Y-74780001D01*
X106918000Y-74740000D02*
X105430000Y-74740000D01*
X106926000Y-74700000D02*
X105430000Y-74700000D01*
X106933000Y-74660000D02*
X105430000Y-74660000D01*
X106940000Y-74620000D02*
X105430001Y-74620000D01*
X106946000Y-74580000D02*
X105430000Y-74580000D01*
X106951000Y-74539999D02*
X105430000Y-74540000D01*
X106955000Y-74500000D02*
X105430000Y-74500000D01*
X106959000Y-74460000D02*
X105430000Y-74459999D01*
X106963000Y-74420000D02*
X105430000Y-74420000D01*
X106966000Y-74380000D02*
X105430000Y-74380000D01*
X106968000Y-74340000D02*
X105430000Y-74340001D01*
X106969000Y-74300000D02*
X105430000Y-74300000D01*
X106970000Y-74220000D02*
X105430000Y-74220000D01*
X106970000Y-74260001D02*
X105430000Y-74260000D01*
X107010001Y-74220000D02*
G75*
G02*
X101769999Y-74220000I-2620001J0D01*
G01*
X101769999Y-74220000D02*
G75*
G02*
X107010001Y-74220000I2620001J0D01*
G01*
%TO.C,VD1*%
X69840000Y-73567500D02*
X69840000Y-69557500D01*
X69840000Y-73567500D02*
X71840000Y-73567500D01*
X71840000Y-73567500D02*
X71840000Y-69557500D01*
%TO.C,L7*%
X44199999Y-68670000D02*
X44199999Y-69470000D01*
X44199999Y-68670000D02*
X49319999Y-68670000D01*
X44199999Y-73290000D02*
X44199999Y-72490000D01*
X44199999Y-73290000D02*
X49319999Y-73290000D01*
X49319999Y-68670000D02*
X49319999Y-69470000D01*
X49319999Y-73290000D02*
X49319999Y-72490000D01*
%TO.C,C31*%
X51636266Y-65720000D02*
X51343732Y-65720000D01*
X51636266Y-66740000D02*
X51343732Y-66740000D01*
%TO.C,C7*%
X105261267Y-41430000D02*
X104968733Y-41430000D01*
X105261267Y-42450000D02*
X104968733Y-42450000D01*
%TO.C,U3*%
X56100000Y-71960000D02*
X54150000Y-71960000D01*
X56100000Y-71960000D02*
X58050000Y-71960000D01*
X56100000Y-77080000D02*
X54150000Y-77080000D01*
X56100000Y-77080000D02*
X58050000Y-77080000D01*
X53400000Y-72055000D02*
X53160000Y-71725000D01*
X53640000Y-71725000D01*
X53400000Y-72055000D01*
G36*
X53400000Y-72055000D02*
G01*
X53160000Y-71725000D01*
X53640000Y-71725000D01*
X53400000Y-72055000D01*
G37*
%TO.C,C32*%
X95731253Y-65245000D02*
X95208747Y-65245000D01*
X95731253Y-66715000D02*
X95208747Y-66715000D01*
%TO.C,R19*%
X58187500Y-65025277D02*
X58187500Y-65534725D01*
X59232500Y-65025277D02*
X59232500Y-65534725D01*
%TO.C,C19*%
X71513748Y-40782501D02*
X72036254Y-40782501D01*
X71513748Y-42252501D02*
X72036254Y-42252501D01*
%TO.C,U11*%
X73760001Y-70522499D02*
X76259999Y-70522499D01*
X76259999Y-75242499D02*
X73760001Y-75242499D01*
X77020000Y-75422499D02*
X76540000Y-75422499D01*
X76780000Y-75092499D01*
X77020000Y-75422499D01*
G36*
X77020000Y-75422499D02*
G01*
X76540000Y-75422499D01*
X76780000Y-75092499D01*
X77020000Y-75422499D01*
G37*
%TO.C,C22*%
X89865000Y-74188747D02*
X89865000Y-74711253D01*
X91335000Y-74188747D02*
X91335000Y-74711253D01*
%TO.C,C16*%
X79175000Y-62741253D02*
X79175000Y-62218747D01*
X80645000Y-62741253D02*
X80645000Y-62218747D01*
%TO.C,R9*%
X108742500Y-61994724D02*
X108742500Y-61485276D01*
X109787500Y-61994724D02*
X109787500Y-61485276D01*
%TO.C,R1*%
X96927500Y-50390184D02*
X96927500Y-50899632D01*
X97972500Y-50390184D02*
X97972500Y-50899632D01*
%TO.C,R4*%
X95307500Y-50520184D02*
X95307500Y-51029632D01*
X96352500Y-50520184D02*
X96352500Y-51029632D01*
%TO.C,J3*%
X35750000Y-64060000D02*
X35750000Y-70030000D01*
X35750000Y-70030000D02*
X43370000Y-70030000D01*
X35760000Y-67770000D02*
X36510000Y-67770000D01*
X35760000Y-69270000D02*
X35760000Y-70020000D01*
X35760000Y-70020000D02*
X37560000Y-70020001D01*
X36510000Y-64820000D02*
X39560000Y-64820000D01*
X36510000Y-67770000D02*
X36510000Y-64820000D01*
X37559999Y-69270000D02*
X35760000Y-69270000D01*
X37560000Y-70020001D02*
X37559999Y-69270000D01*
X39060001Y-69270000D02*
X39060001Y-70020000D01*
X39060001Y-70020000D02*
X40060000Y-70020001D01*
X40059999Y-69270000D02*
X39060001Y-69270000D01*
X40060000Y-70020001D02*
X40059999Y-69270000D01*
X41560000Y-70020001D02*
X43360000Y-70020000D01*
X41560001Y-69270000D02*
X41560000Y-70020001D01*
X42410000Y-70320000D02*
X43660000Y-70320000D01*
X42610000Y-64820000D02*
X39560000Y-64820000D01*
X42610000Y-67770000D02*
X42610000Y-64820000D01*
X43360000Y-67770000D02*
X42610000Y-67770000D01*
X43360000Y-69270000D02*
X41560001Y-69270000D01*
X43360000Y-70020000D02*
X43360000Y-69270000D01*
X43370000Y-64060000D02*
X35750000Y-64060000D01*
X43370000Y-70030000D02*
X43370000Y-64060000D01*
X43660000Y-70320000D02*
X43660000Y-69070000D01*
%TO.C,R2*%
X96505276Y-52752408D02*
X97014724Y-52752408D01*
X96505276Y-53797408D02*
X97014724Y-53797408D01*
%TO.C,J17*%
X95015000Y-69630000D02*
X95015000Y-77250000D01*
X95015000Y-77250000D02*
X100985000Y-77250000D01*
X95775000Y-70390000D02*
X95775000Y-73440000D01*
X95775000Y-76490000D02*
X95775000Y-73440000D01*
X98725000Y-69640000D02*
X98725000Y-70390000D01*
X98725000Y-70390000D02*
X95775000Y-70390000D01*
X98725000Y-76490000D02*
X95775000Y-76490000D01*
X98725000Y-77240000D02*
X98725000Y-76490000D01*
X100225000Y-69640000D02*
X100225000Y-71439999D01*
X100225000Y-71439999D02*
X100975001Y-71440000D01*
X100225000Y-72940001D02*
X100225000Y-73939999D01*
X100225000Y-73939999D02*
X100975000Y-73939999D01*
X100225000Y-75440001D02*
X100225000Y-77240000D01*
X100225000Y-77240000D02*
X100975000Y-77240000D01*
X100975000Y-69640000D02*
X100225000Y-69640000D01*
X100975000Y-73939999D02*
X100975001Y-72940000D01*
X100975000Y-77240000D02*
X100975001Y-75440000D01*
X100975001Y-71440000D02*
X100975000Y-69640000D01*
X100975001Y-72940000D02*
X100225000Y-72940001D01*
X100975001Y-75440000D02*
X100225000Y-75440001D01*
X100985000Y-69630000D02*
X95015000Y-69630000D01*
X100985000Y-77250000D02*
X100985000Y-69630000D01*
X101275000Y-69340000D02*
X100025000Y-69340000D01*
X101275000Y-70590000D02*
X101275000Y-69340000D01*
%TO.C,C5*%
X101668733Y-39480000D02*
X101961267Y-39480000D01*
X101668733Y-40500000D02*
X101961267Y-40500000D01*
%TO.C,J12*%
X81725001Y-41190000D02*
X81725001Y-42440000D01*
X81725001Y-42440000D02*
X82975001Y-42440000D01*
X82015001Y-34530000D02*
X82015001Y-42150000D01*
X82015001Y-42150000D02*
X87985001Y-42150000D01*
X82025000Y-36340000D02*
X82775001Y-36339999D01*
X82025000Y-38840000D02*
X82775001Y-38839999D01*
X82025000Y-40340000D02*
X82025001Y-42140000D01*
X82025001Y-34540000D02*
X82025000Y-36340000D01*
X82025001Y-37840001D02*
X82025000Y-38840000D01*
X82025001Y-42140000D02*
X82775001Y-42140000D01*
X82775001Y-34540000D02*
X82025001Y-34540000D01*
X82775001Y-36339999D02*
X82775001Y-34540000D01*
X82775001Y-37840001D02*
X82025001Y-37840001D01*
X82775001Y-38839999D02*
X82775001Y-37840001D01*
X82775001Y-40340001D02*
X82025000Y-40340000D01*
X82775001Y-42140000D02*
X82775001Y-40340001D01*
X84275001Y-34540000D02*
X84275001Y-35290000D01*
X84275001Y-35290000D02*
X87225001Y-35290000D01*
X84275001Y-41390000D02*
X87225001Y-41390000D01*
X84275001Y-42140000D02*
X84275001Y-41390000D01*
X87225001Y-35290000D02*
X87225001Y-38340000D01*
X87225001Y-41390000D02*
X87225001Y-38340000D01*
X87985001Y-34530000D02*
X82015001Y-34530000D01*
X87985001Y-42150000D02*
X87985001Y-34530000D01*
%TO.C,J7*%
X83305001Y-52720000D02*
X83305001Y-53970000D01*
X83305001Y-53970000D02*
X84555001Y-53970000D01*
X83595001Y-46060000D02*
X83595001Y-53680000D01*
X83595001Y-53680000D02*
X89565001Y-53680000D01*
X83605000Y-47870000D02*
X84355001Y-47869999D01*
X83605000Y-50370000D02*
X84355001Y-50369999D01*
X83605000Y-51870000D02*
X83605001Y-53670000D01*
X83605001Y-46070000D02*
X83605000Y-47870000D01*
X83605001Y-49370001D02*
X83605000Y-50370000D01*
X83605001Y-53670000D02*
X84355001Y-53670000D01*
X84355001Y-46070000D02*
X83605001Y-46070000D01*
X84355001Y-47869999D02*
X84355001Y-46070000D01*
X84355001Y-49370001D02*
X83605001Y-49370001D01*
X84355001Y-50369999D02*
X84355001Y-49370001D01*
X84355001Y-51870001D02*
X83605000Y-51870000D01*
X84355001Y-53670000D02*
X84355001Y-51870001D01*
X85855001Y-46070000D02*
X85855001Y-46820000D01*
X85855001Y-46820000D02*
X88805001Y-46820000D01*
X85855001Y-52920000D02*
X88805001Y-52920000D01*
X85855001Y-53670000D02*
X85855001Y-52920000D01*
X88805001Y-46820000D02*
X88805001Y-49870000D01*
X88805001Y-52920000D02*
X88805001Y-49870000D01*
X89565001Y-46060000D02*
X83595001Y-46060000D01*
X89565001Y-53680000D02*
X89565001Y-46060000D01*
%TO.C,R18*%
X93247500Y-70505276D02*
X93247500Y-71014724D01*
X94292500Y-70505276D02*
X94292500Y-71014724D01*
%TO.C,C11*%
X103668733Y-68630000D02*
X103961267Y-68630000D01*
X103668733Y-69650000D02*
X103961267Y-69650000D01*
%TO.C,L8*%
X88130000Y-63540000D02*
X88130000Y-64340000D01*
X88130000Y-68160000D02*
X88130000Y-67360000D01*
X93250000Y-63540000D02*
X88130000Y-63540000D01*
X93250000Y-63540000D02*
X93250000Y-64340000D01*
X93250000Y-68160000D02*
X88130000Y-68160000D01*
X93250000Y-68160000D02*
X93250000Y-67360000D01*
%TO.C,R43*%
X85315276Y-43887500D02*
X85824724Y-43887500D01*
X85315276Y-44932500D02*
X85824724Y-44932500D01*
%TO.C,R12*%
X102222776Y-57317500D02*
X102732224Y-57317500D01*
X102222776Y-58362500D02*
X102732224Y-58362500D01*
%TO.C,R41*%
X53597500Y-64995275D02*
X53597500Y-65504723D01*
X54642500Y-64995275D02*
X54642500Y-65504723D01*
%TO.C,R16*%
X81210277Y-53837501D02*
X81719725Y-53837501D01*
X81210277Y-54882501D02*
X81719725Y-54882501D01*
%TO.C,C28*%
X51100000Y-75386267D02*
X51100000Y-75093733D01*
X52120000Y-75386267D02*
X52120000Y-75093733D01*
%TO.C,R8*%
X98287500Y-46545276D02*
X98287500Y-47054724D01*
X99332500Y-46545276D02*
X99332500Y-47054724D01*
%TO.C,J18*%
X80770000Y-76020000D02*
X80770000Y-77270000D01*
X80770000Y-77270000D02*
X82020000Y-77270000D01*
X81060000Y-69360000D02*
X81060000Y-76980000D01*
X81060000Y-76980000D02*
X87030000Y-76980000D01*
X81069999Y-71170000D02*
X81820000Y-71169999D01*
X81069999Y-73670000D02*
X81820000Y-73669999D01*
X81069999Y-75170000D02*
X81070000Y-76970000D01*
X81070000Y-69370000D02*
X81069999Y-71170000D01*
X81070000Y-72670001D02*
X81069999Y-73670000D01*
X81070000Y-76970000D02*
X81820000Y-76970000D01*
X81820000Y-69370000D02*
X81070000Y-69370000D01*
X81820000Y-71169999D02*
X81820000Y-69370000D01*
X81820000Y-72670001D02*
X81070000Y-72670001D01*
X81820000Y-73669999D02*
X81820000Y-72670001D01*
X81820000Y-75170001D02*
X81069999Y-75170000D01*
X81820000Y-76970000D02*
X81820000Y-75170001D01*
X83320000Y-69370000D02*
X83320000Y-70120000D01*
X83320000Y-70120000D02*
X86270000Y-70120000D01*
X83320000Y-76220000D02*
X86270000Y-76220000D01*
X83320000Y-76970000D02*
X83320000Y-76220000D01*
X86270000Y-70120000D02*
X86270000Y-73170000D01*
X86270000Y-76220000D02*
X86270000Y-73170000D01*
X87030000Y-69360000D02*
X81060000Y-69360000D01*
X87030000Y-76980000D02*
X87030000Y-69360000D01*
%TO.C,R20*%
X91847500Y-74055276D02*
X91847500Y-74564724D01*
X92892500Y-74055276D02*
X92892500Y-74564724D01*
%TO.C,R44*%
X83060277Y-56977501D02*
X83569725Y-56977501D01*
X83060277Y-58022501D02*
X83569725Y-58022501D01*
%TO.C,R5*%
X101360276Y-52317500D02*
X101869724Y-52317500D01*
X101360276Y-53362500D02*
X101869724Y-53362500D01*
%TO.C,U6*%
X76725002Y-48662501D02*
X79225000Y-48662501D01*
X79225000Y-53382501D02*
X76725002Y-53382501D01*
X79985001Y-53562501D02*
X79505001Y-53562501D01*
X79745001Y-53232501D01*
X79985001Y-53562501D01*
G36*
X79985001Y-53562501D02*
G01*
X79505001Y-53562501D01*
X79745001Y-53232501D01*
X79985001Y-53562501D01*
G37*
%TO.C,C10*%
X107143733Y-70320000D02*
X107436267Y-70320000D01*
X107143733Y-71340000D02*
X107436267Y-71340000D01*
%TO.C,U10*%
X40410000Y-56440000D02*
X67890000Y-56440000D01*
X67890000Y-38920000D01*
X40410000Y-38920000D01*
X40410000Y-56440000D01*
%TO.C,C14*%
X72723748Y-51755001D02*
X73246254Y-51755001D01*
X72723748Y-53225001D02*
X73246254Y-53225001D01*
%TO.C,J4*%
X37490000Y-57000000D02*
X37490000Y-62970000D01*
X37490000Y-62970000D02*
X45110000Y-62970000D01*
X37500000Y-60710000D02*
X38250000Y-60710000D01*
X37500000Y-62210000D02*
X37500000Y-62960000D01*
X37500000Y-62960000D02*
X39300000Y-62960001D01*
X38250000Y-57760000D02*
X41300000Y-57760000D01*
X38250000Y-60710000D02*
X38250000Y-57760000D01*
X39299999Y-62210000D02*
X37500000Y-62210000D01*
X39300000Y-62960001D02*
X39299999Y-62210000D01*
X40800001Y-62210000D02*
X40800001Y-62960000D01*
X40800001Y-62960000D02*
X41800000Y-62960001D01*
X41799999Y-62210000D02*
X40800001Y-62210000D01*
X41800000Y-62960001D02*
X41799999Y-62210000D01*
X43300000Y-62960001D02*
X45100000Y-62960000D01*
X43300001Y-62210000D02*
X43300000Y-62960001D01*
X44150000Y-63260000D02*
X45400000Y-63260000D01*
X44350000Y-57760000D02*
X41300000Y-57760000D01*
X44350000Y-60710000D02*
X44350000Y-57760000D01*
X45100000Y-60710000D02*
X44350000Y-60710000D01*
X45100000Y-62210000D02*
X43300001Y-62210000D01*
X45100000Y-62960000D02*
X45100000Y-62210000D01*
X45110000Y-57000000D02*
X37490000Y-57000000D01*
X45110000Y-62970000D02*
X45110000Y-57000000D01*
X45400000Y-63260000D02*
X45400000Y-62010000D01*
%TO.C,R40*%
X55167500Y-64995276D02*
X55167500Y-65504724D01*
X56212500Y-64995276D02*
X56212500Y-65504724D01*
%TO.C,J15*%
X59660000Y-63895001D02*
X59660000Y-65145001D01*
X59950000Y-64185001D02*
X59950000Y-70155001D01*
X59950000Y-70155001D02*
X67570000Y-70155001D01*
X59960000Y-64195001D02*
X59960000Y-64945001D01*
X59960000Y-64945001D02*
X61759999Y-64945001D01*
X59960000Y-66445001D02*
X60710000Y-66445001D01*
X60710000Y-66445001D02*
X60710000Y-69395001D01*
X60710000Y-69395001D02*
X63760000Y-69395001D01*
X60910000Y-63895001D02*
X59660000Y-63895001D01*
X61759999Y-64945001D02*
X61760000Y-64195000D01*
X61760000Y-64195000D02*
X59960000Y-64195001D01*
X63260000Y-64195000D02*
X63260001Y-64945001D01*
X63260001Y-64945001D02*
X64259999Y-64945001D01*
X64259999Y-64195001D02*
X63260000Y-64195000D01*
X64259999Y-64945001D02*
X64259999Y-64195001D01*
X65760000Y-64195000D02*
X65760001Y-64945001D01*
X65760001Y-64945001D02*
X67560000Y-64945001D01*
X66810000Y-66445001D02*
X66810000Y-69395001D01*
X66810000Y-69395001D02*
X63760000Y-69395001D01*
X67560000Y-64195001D02*
X65760000Y-64195000D01*
X67560000Y-64945001D02*
X67560000Y-64195001D01*
X67560000Y-66445001D02*
X66810000Y-66445001D01*
X67570000Y-64185001D02*
X59950000Y-64185001D01*
X67570000Y-70155001D02*
X67570000Y-64185001D01*
%TO.C,C18*%
X79800001Y-40931254D02*
X79800001Y-40408748D01*
X81270001Y-40931254D02*
X81270001Y-40408748D01*
%TO.C,C23*%
X87805000Y-74701253D02*
X87805000Y-74178747D01*
X89275000Y-74701253D02*
X89275000Y-74178747D01*
%TO.C,C13*%
X78195000Y-73541253D02*
X78195000Y-73018747D01*
X79665000Y-73541253D02*
X79665000Y-73018747D01*
%TO.C,L3*%
X74135001Y-53800001D02*
X74135001Y-54200001D01*
X74135001Y-53800001D02*
X79655001Y-53800001D01*
X74135001Y-59320001D02*
X74135001Y-58920001D01*
X74135001Y-59320001D02*
X79655001Y-59320001D01*
X79655001Y-53800001D02*
X79655001Y-54200001D01*
X79655001Y-59320001D02*
X79655001Y-58920001D01*
%TO.C,J13*%
X57870000Y-32060000D02*
X57870000Y-33310000D01*
X58160000Y-32350000D02*
X58160000Y-38320000D01*
X58160000Y-38320000D02*
X70780000Y-38320000D01*
X58170000Y-32360000D02*
X58170000Y-33110000D01*
X58170000Y-33110000D02*
X59969999Y-33110000D01*
X58170000Y-34610000D02*
X58920000Y-34610000D01*
X58920000Y-34610000D02*
X58920000Y-37560000D01*
X58920000Y-37560000D02*
X64470000Y-37560000D01*
X59120000Y-32060000D02*
X57870000Y-32060000D01*
X59969999Y-33110000D02*
X59970000Y-32359999D01*
X59970000Y-32359999D02*
X58170000Y-32360000D01*
X61470000Y-32359999D02*
X61470001Y-33110000D01*
X61470001Y-33110000D02*
X67470000Y-33110000D01*
X67470000Y-32360000D02*
X61470000Y-32359999D01*
X67470000Y-33110000D02*
X67470000Y-32360000D01*
X68969999Y-33110000D02*
X70770000Y-33110000D01*
X68970000Y-32359999D02*
X68969999Y-33110000D01*
X70020000Y-34610001D02*
X70020000Y-37560000D01*
X70020000Y-37560000D02*
X64470000Y-37560000D01*
X70770000Y-32360000D02*
X68970000Y-32359999D01*
X70770000Y-33110000D02*
X70770000Y-32360000D01*
X70770000Y-34610000D02*
X70020000Y-34610001D01*
X70780000Y-32350000D02*
X58160000Y-32350000D01*
X70780000Y-38320000D02*
X70780000Y-32350000D01*
%TO.C,U8*%
X75345002Y-37650001D02*
X77845000Y-37650001D01*
X77845000Y-42370001D02*
X75345002Y-42370001D01*
X78605001Y-42550001D02*
X78125001Y-42550001D01*
X78365001Y-42220001D01*
X78605001Y-42550001D01*
G36*
X78605001Y-42550001D02*
G01*
X78125001Y-42550001D01*
X78365001Y-42220001D01*
X78605001Y-42550001D01*
G37*
%TO.C,R45*%
X82990277Y-32867501D02*
X83499725Y-32867501D01*
X82990277Y-33912501D02*
X83499725Y-33912501D01*
%TO.C,R11*%
X107219724Y-58117500D02*
X106710276Y-58117500D01*
X107219724Y-59162500D02*
X106710276Y-59162500D01*
%TO.C,U9*%
X88059999Y-70370000D02*
X88060000Y-69570000D01*
X88059999Y-70370000D02*
X88060000Y-71170000D01*
X91180001Y-70370000D02*
X91180000Y-69570000D01*
X91180001Y-70370000D02*
X91180000Y-71170000D01*
X91460000Y-69310000D02*
X91130000Y-69070000D01*
X91460000Y-68830000D01*
X91460000Y-69310000D01*
G36*
X91460000Y-69310000D02*
G01*
X91130000Y-69070000D01*
X91460000Y-68830000D01*
X91460000Y-69310000D01*
G37*
%TO.C,VD2*%
X72895001Y-51310001D02*
X72895001Y-47300001D01*
X72895001Y-51310001D02*
X74895001Y-51310001D01*
X74895001Y-51310001D02*
X74895001Y-47300001D01*
%TO.C,U4*%
X99940000Y-42815000D02*
X108390000Y-42815000D01*
X99940000Y-50165000D02*
X99940000Y-42815000D01*
X100740000Y-50965000D02*
X99940000Y-50165000D01*
X108390000Y-42815000D02*
X108390000Y-50965000D01*
X108390000Y-50965000D02*
X100740000Y-50965000D01*
%TO.C,J10*%
X36625000Y-42280000D02*
X36625000Y-49960000D01*
X36625000Y-42280000D02*
X39285000Y-42280000D01*
X36625000Y-49960000D02*
X39285000Y-49960000D01*
X37955000Y-39680000D02*
X39285000Y-39680000D01*
X39285000Y-39680000D02*
X39285000Y-41010000D01*
X39285000Y-42280000D02*
X39285000Y-49960000D01*
%TO.C,C15*%
X81210001Y-51851254D02*
X81210001Y-51328748D01*
X82680001Y-51851254D02*
X82680001Y-51328748D01*
%TO.C,R13*%
X98497500Y-64534724D02*
X98497500Y-64025276D01*
X99542500Y-64534724D02*
X99542500Y-64025276D01*
%TO.C,R22*%
X74425276Y-42827500D02*
X74934724Y-42827500D01*
X74425276Y-43872500D02*
X74934724Y-43872500D01*
%TO.C,L1*%
X77605001Y-42770001D02*
X77605001Y-43170001D01*
X77605001Y-42770001D02*
X83125001Y-42770001D01*
X77605001Y-48290001D02*
X77605001Y-47890001D01*
X77605001Y-48290001D02*
X83125001Y-48290001D01*
X83125001Y-42770001D02*
X83125001Y-43170001D01*
X83125001Y-48290001D02*
X83125001Y-47890001D01*
%TO.C,J16*%
X61790000Y-56770000D02*
X61790000Y-58020000D01*
X62080000Y-57060000D02*
X62080000Y-63030000D01*
X62080000Y-63030000D02*
X69700000Y-63030000D01*
X62090000Y-57070000D02*
X62090000Y-57820000D01*
X62090000Y-57820000D02*
X63889999Y-57820000D01*
X62090000Y-59320000D02*
X62840000Y-59320000D01*
X62840000Y-59320000D02*
X62840000Y-62270000D01*
X62840000Y-62270000D02*
X65890000Y-62270000D01*
X63040000Y-56770000D02*
X61790000Y-56770000D01*
X63889999Y-57820000D02*
X63890000Y-57069999D01*
X63890000Y-57069999D02*
X62090000Y-57070000D01*
X65390000Y-57069999D02*
X65390001Y-57820000D01*
X65390001Y-57820000D02*
X66389999Y-57820000D01*
X66389999Y-57070000D02*
X65390000Y-57069999D01*
X66389999Y-57820000D02*
X66389999Y-57070000D01*
X67890000Y-57069999D02*
X67890001Y-57820000D01*
X67890001Y-57820000D02*
X69690000Y-57820000D01*
X68940000Y-59320000D02*
X68940000Y-62270000D01*
X68940000Y-62270000D02*
X65890000Y-62270000D01*
X69690000Y-57070000D02*
X67890000Y-57069999D01*
X69690000Y-57820000D02*
X69690000Y-57070000D01*
X69690000Y-59320000D02*
X68940000Y-59320000D01*
X69700000Y-57060000D02*
X62080000Y-57060000D01*
X69700000Y-63030000D02*
X69700000Y-57060000D01*
%TO.C,U5*%
X100240000Y-60215000D02*
X107890000Y-60215000D01*
X100240000Y-68365000D02*
X100240000Y-60215000D01*
X107890000Y-60215000D02*
X108690000Y-61015000D01*
X108690000Y-61015000D02*
X108690000Y-68365000D01*
X108690000Y-68365000D02*
X100240000Y-68365000D01*
%TO.C,U7*%
X74730001Y-59512500D02*
X77229999Y-59512500D01*
X77229999Y-64232500D02*
X74730001Y-64232500D01*
X77990000Y-64412500D02*
X77510000Y-64412500D01*
X77750000Y-64082500D01*
X77990000Y-64412500D01*
G36*
X77990000Y-64412500D02*
G01*
X77510000Y-64412500D01*
X77750000Y-64082500D01*
X77990000Y-64412500D01*
G37*
%TO.C,R14*%
X74615276Y-75687500D02*
X75124724Y-75687500D01*
X74615276Y-76732500D02*
X75124724Y-76732500D01*
%TO.C,C8*%
X101911267Y-41480000D02*
X101618733Y-41480000D01*
X101911267Y-42500000D02*
X101618733Y-42500000D01*
%TO.C,L4*%
X75040000Y-64720000D02*
X75040000Y-65120000D01*
X75040000Y-64720000D02*
X80560000Y-64720000D01*
X75040000Y-70240000D02*
X75040000Y-69840000D01*
X75040000Y-70240000D02*
X80560000Y-70240000D01*
X80560000Y-64720000D02*
X80560000Y-65120000D01*
X80560000Y-70240000D02*
X80560000Y-69840000D01*
%TO.C,C29*%
X95721253Y-67285000D02*
X95198747Y-67285000D01*
X95721253Y-68755000D02*
X95198747Y-68755000D01*
%TO.C,J11*%
X45485000Y-75200000D02*
X45485000Y-73870000D01*
X45485000Y-76595000D02*
X45485000Y-75835000D01*
X46055000Y-75200000D02*
X45485000Y-75200000D01*
X46507470Y-73870000D02*
X45485000Y-73870000D01*
X46815000Y-76595000D02*
X45485000Y-76595000D01*
X48145000Y-73870000D02*
X47122530Y-73870000D01*
X48145000Y-75200000D02*
X47575000Y-75200000D01*
X48145000Y-75200000D02*
X48145000Y-73870000D01*
%TO.C,R17*%
X56637500Y-65015276D02*
X56637500Y-65524724D01*
X57682500Y-65015276D02*
X57682500Y-65524724D01*
%TO.C,VD3*%
X70780000Y-62277500D02*
X70780000Y-58267500D01*
X70780000Y-62277500D02*
X72780000Y-62277500D01*
X72780000Y-62277500D02*
X72780000Y-58267500D01*
%TO.C,J6*%
X45760000Y-56760000D02*
X45760000Y-58010000D01*
X46050000Y-57050000D02*
X46050000Y-63020000D01*
X46050000Y-63020000D02*
X61170000Y-63020000D01*
X46060000Y-57060000D02*
X46060000Y-57810000D01*
X46060000Y-57810000D02*
X47859999Y-57810000D01*
X46060000Y-59310000D02*
X46810000Y-59310000D01*
X46810000Y-59310000D02*
X46810000Y-62260000D01*
X46810000Y-62260000D02*
X53610000Y-62260000D01*
X47010000Y-56760000D02*
X45760000Y-56760000D01*
X47859999Y-57810000D02*
X47860000Y-57059999D01*
X47860000Y-57059999D02*
X46060000Y-57060000D01*
X49360000Y-57059999D02*
X49360001Y-57810000D01*
X49360001Y-57810000D02*
X57860000Y-57810000D01*
X57860000Y-57060000D02*
X49360000Y-57059999D01*
X57860000Y-57810000D02*
X57860000Y-57060000D01*
X59359999Y-57810000D02*
X61160001Y-57810000D01*
X59360000Y-57059999D02*
X59359999Y-57810000D01*
X60410000Y-59310001D02*
X60410000Y-62260000D01*
X60410000Y-62260000D02*
X53610000Y-62260000D01*
X61160000Y-57059999D02*
X59360000Y-57059999D01*
X61160000Y-59310001D02*
X60410000Y-59310001D01*
X61160001Y-57810000D02*
X61160000Y-57059999D01*
X61170000Y-57050000D02*
X46050000Y-57050000D01*
X61170000Y-63020000D02*
X61170000Y-57050000D01*
%TD*%
M02*
